<svg width="71" height="173" viewBox="0 0 71 173" fill="none" xmlns="http://www.w3.org/2000/svg">
<g clip-path="url(#clip0)">
<path d="M50.5315 72.5074C48.0369 72.5286 46.0114 70.5569 45.9901 68.0764L45.4357 17.3636C45.4144 14.8831 47.3973 12.869 49.8919 12.8478C52.3865 12.8266 54.412 14.7983 54.4333 17.2788L54.9664 68.0128C55.009 70.4509 53.0261 72.4862 50.5315 72.5074Z" fill="#00AEEF"/>
<path d="M65.1153 59.9776C62.6207 59.9988 60.5952 58.0271 60.5739 55.5466L60.2967 30.1902C60.2754 27.7097 62.2582 25.6956 64.7528 25.6744C67.2474 25.6532 69.273 27.6249 69.2943 30.1054L69.5715 55.4618C69.5928 57.9423 67.5886 59.9564 65.1153 59.9776Z" fill="#00AEEF"/>
<path d="M6.24713 59.9776C3.75254 59.9988 1.72701 58.0271 1.70569 55.5466L1.42852 30.1902C1.40719 27.7097 3.39008 25.6956 5.88467 25.6744C8.37927 25.6532 10.4048 27.6249 10.4261 30.1054L10.7033 55.4618C10.7246 57.9423 8.74173 59.9564 6.24713 59.9776Z" fill="#00AEEF"/>
<path d="M21.236 85.0372C18.7415 85.0584 16.7159 83.0867 16.6946 80.6061L15.8844 4.51583C15.8418 2.05651 17.846 0.0212178 20.3192 1.67929e-05C22.7925 -0.0211842 24.8394 1.95051 24.8607 4.43102L25.6709 80.5213C25.7135 82.9807 23.7306 84.9948 21.236 85.0372Z" fill="#00AEEF"/>
<path d="M35.9477 85.0372C33.4531 85.0584 31.4276 83.0867 31.4063 80.6061L30.5961 4.51583C30.5747 2.05651 32.5576 0.0212178 35.0522 1.67929e-05C37.5468 -0.0211842 39.5723 1.95051 39.5937 4.43102L40.4039 80.5213C40.4252 82.9807 38.4423 84.9948 35.9477 85.0372Z" fill="#00AEEF"/>
<path d="M9.01894 115.695H11.6415L19.0613 136.09H15.7991L14.1147 131.468H6.46038L4.81864 136.09H1.53516L9.01894 115.695ZM7.20663 128.882H13.5604L10.3409 119.977L7.20663 128.882Z" fill="#808285"/>
<path d="M21.1295 115.695H29.1463C31.4703 115.822 33.0694 116.479 33.9436 117.666C34.8391 118.854 35.3081 119.935 35.3934 120.91C35.3508 122.903 34.8817 124.345 34.0289 125.235C33.1547 126.125 32.2592 126.719 31.3424 126.974L36.161 136.09H32.4724L28.1868 127.334H24.1571V136.09H21.1295V115.695ZM24.1571 124.599H29.2742C30.3616 124.641 31.1931 124.345 31.7262 123.687C32.2592 123.03 32.4724 122.267 32.3871 121.355C32.3871 120.465 32.1099 119.744 31.5556 119.214C31.0012 118.684 30.2337 118.43 29.2955 118.493H24.1784V124.599H24.1571Z" fill="#808285"/>
<path d="M37.355 115.695H40.6811L45.2865 131.108L49.9559 115.695H53.3033L46.6084 136.09H44.1352L37.355 115.695Z" fill="#808285"/>
<path d="M62.1091 115.545C63.9427 115.545 65.6271 116.309 67.1622 117.814C68.6973 119.319 69.4649 121.015 69.4649 122.838V128.838C69.4436 130.895 68.7826 132.633 67.5033 134.054C66.2241 135.474 64.4118 136.174 62.0664 136.174C59.8064 136.174 58.0154 135.474 56.6934 134.054C55.3715 132.633 54.7319 130.916 54.7532 128.881V122.838C54.7532 120.803 55.4142 119.086 56.7361 117.665C58.058 116.245 59.849 115.545 62.1091 115.545ZM62.0664 118.704C60.8085 118.704 59.7637 119.128 58.9748 119.955C58.1859 120.782 57.8448 122.075 57.9301 123.793V127.969C57.8661 129.941 58.2712 131.276 59.1454 131.997C60.0409 132.718 61.0003 133.1 62.0451 133.121C62.9619 133.142 63.9214 132.739 64.9021 131.913C65.8829 131.086 66.3094 129.771 66.2241 127.948V123.771C66.2241 122.054 65.819 120.761 65.0088 119.892C64.2412 119.044 63.2391 118.641 62.0664 118.704Z" fill="#808285"/>
<path d="M2.94235 152.35H3.88048L6.52433 159.643H5.35166L4.75466 157.99H2.02553L1.42853 159.643H0.255859L2.94235 152.35ZM2.28138 157.057H4.56277L3.41141 153.877L2.28138 157.057Z" fill="#808285"/>
<path d="M9.87177 152.35H12.7288C13.5604 152.393 14.136 152.626 14.4558 153.05C14.7757 153.474 14.9462 153.856 14.9676 154.216C14.9462 154.916 14.797 155.446 14.4772 155.764C14.1574 156.082 13.8375 156.294 13.5177 156.378L15.2447 159.643H13.9228L12.3877 156.506H10.9592V159.643H9.87177V152.35ZM10.9592 155.53H12.7928C13.1766 155.552 13.4751 155.446 13.667 155.212C13.8589 154.979 13.9441 154.704 13.9015 154.386C13.9015 154.068 13.7949 153.813 13.603 153.622C13.3898 153.41 13.1339 153.325 12.7928 153.347H10.9592V155.53Z" fill="#808285"/>
<path d="M18.2297 152.35H23.3682V153.347H21.3853V159.622H20.2126V153.347H18.2297V152.35Z" fill="#808285"/>
<path d="M26.4384 152.35H27.5684V159.643H26.4384V152.35Z" fill="#808285"/>
<path d="M30.9159 152.35H35.6279V153.453H32.0459V155.552H35.0949V156.569H32.0459V159.665H30.9159V152.35Z" fill="#808285"/>
<path d="M39.0394 152.35H40.1694V159.643H39.0394V152.35Z" fill="#808285"/>
<path d="M46.182 152.35C47.5465 152.329 48.3994 153.007 48.7192 154.407H47.5465C47.3546 153.813 46.9069 153.474 46.2033 153.368C45.2012 153.474 44.7108 153.983 44.7108 154.916C44.6682 155.615 44.6682 156.336 44.7321 157.057C44.7321 157.947 45.2225 158.456 46.2459 158.605C46.9495 158.562 47.3973 158.244 47.5679 157.608H48.7405C48.3781 159.029 47.5465 159.728 46.2246 159.686C44.7108 159.58 43.8366 158.753 43.6234 157.205C43.5808 156.378 43.5808 155.552 43.6234 154.704C43.8366 153.135 44.6895 152.35 46.182 152.35Z" fill="#808285"/>
<path d="M52.2159 152.35H53.346V159.643H52.2159V152.35Z" fill="#808285"/>
<path d="M59.3585 152.35H60.2967L62.9405 159.643H61.7679L61.1709 157.99H58.4417L57.8447 159.643H56.6721L59.3585 152.35ZM58.6976 157.057H60.979L59.8276 153.877L58.6976 157.057Z" fill="#808285"/>
<path d="M66.288 152.35H67.418V158.605H71V159.643H66.3093V152.35H66.288Z" fill="#808285"/>
<path d="M0 165.664H1.19399L2.83574 171.177L4.4988 165.664H5.69279L3.3048 172.958H2.40931L0 165.664Z" fill="#808285"/>
<path d="M11.4495 165.601C12.1105 165.601 12.7075 165.876 13.2619 166.407C13.8162 166.958 14.0934 167.551 14.0934 168.209V170.35C14.0934 171.092 13.8589 171.707 13.3898 172.216C12.942 172.724 12.2811 172.979 11.4495 172.979C10.6393 172.979 9.9997 172.724 9.53063 172.216C9.04024 171.728 8.82703 171.113 8.82703 170.371V168.209C8.82703 167.488 9.06156 166.873 9.53063 166.364C9.9997 165.855 10.6393 165.601 11.4495 165.601ZM11.4282 166.746C10.9805 166.746 10.618 166.894 10.3195 167.191C10.0423 167.488 9.93574 167.933 9.95706 168.548V170.032C9.93574 170.732 10.085 171.219 10.4048 171.474C10.7246 171.728 11.0658 171.876 11.4495 171.876C11.7907 171.876 12.1105 171.749 12.473 171.452C12.8141 171.156 12.9847 170.689 12.942 170.032V168.548C12.942 167.933 12.7928 167.467 12.5156 167.149C12.2171 166.852 11.8547 166.725 11.4282 166.746Z" fill="#808285"/>
<path d="M17.3982 165.664H18.5282V172.958H17.3982V165.664Z" fill="#808285"/>
<path d="M24.5409 165.664C25.9054 165.643 26.7583 166.322 27.0781 167.721H25.9054C25.7135 167.127 25.2658 166.788 24.5622 166.682C23.5601 166.788 23.0697 167.297 23.0697 168.23C23.027 168.929 23.027 169.65 23.091 170.371C23.091 171.262 23.5814 171.77 24.6048 171.919C25.3084 171.876 25.7562 171.558 25.9267 170.922H27.0994C26.737 172.343 25.9054 173.042 24.5835 173C23.0697 172.894 22.1955 172.067 21.9823 170.519C21.9397 169.693 21.9397 168.866 21.9823 168.018C22.1955 166.449 23.0484 165.664 24.5409 165.664Z" fill="#808285"/>
<path d="M30.5748 165.622H35.2868V166.725H31.7048V168.76H34.7537V169.756H31.7048V171.898H35.2868V172.936H30.5748V165.622Z" fill="#808285"/>
<path d="M41.3847 165.601C42.0457 165.601 42.6427 165.876 43.197 166.407C43.7514 166.958 44.0285 167.551 44.0285 168.209V170.35C44.0285 171.092 43.794 171.707 43.3249 172.216C42.8772 172.724 42.2162 172.979 41.3847 172.979C40.5745 172.979 39.9348 172.724 39.4658 172.216C38.9967 171.707 38.7622 171.092 38.7835 170.371V168.209C38.7835 167.488 39.018 166.873 39.4871 166.364C39.9348 165.855 40.5745 165.601 41.3847 165.601ZM41.3634 166.746C40.9156 166.746 40.5532 166.894 40.2547 167.191C39.9775 167.488 39.8496 167.954 39.8922 168.569V170.053C39.8709 170.753 40.0201 171.24 40.34 171.495C40.6598 171.749 41.0009 171.898 41.3847 171.898C41.7258 171.898 42.0457 171.77 42.4081 171.474C42.7706 171.177 42.9198 170.71 42.8772 170.053V168.569C42.8772 167.954 42.7279 167.488 42.4508 167.17C42.1309 166.852 41.7898 166.725 41.3634 166.746Z" fill="#808285"/>
<path d="M47.0562 165.664H48.2501L49.8919 171.177L51.555 165.664H52.7489L50.361 172.958H49.4655L47.0562 165.664Z" fill="#808285"/>
<path d="M55.8832 165.622H60.5952V166.725H57.0132V168.76H60.0622V169.756H57.0132V171.898H60.5952V172.936H55.8832V165.622Z" fill="#808285"/>
<path d="M64.0493 165.664H66.9063C67.7378 165.707 68.3135 165.94 68.6333 166.364C68.9532 166.788 69.1237 167.17 69.145 167.53C69.1237 168.23 68.9745 168.76 68.6547 169.078C68.3348 169.396 68.015 169.608 67.6952 169.693L69.4222 172.958H68.1003L66.5652 169.82H65.1366V172.958H64.0493V165.664ZM65.1366 168.845H66.9703C67.3541 168.866 67.6526 168.76 67.8444 168.527C68.0363 168.293 68.1216 168.018 68.079 167.7C68.079 167.382 67.9724 167.127 67.7805 166.937C67.5886 166.746 67.3114 166.661 66.9703 166.682H65.1366V168.845Z" fill="#808285"/>
</g>
<defs>
<clipPath id="clip0">
<rect width="71" height="173" fill="white"/>
</clipPath>
</defs>
</svg>
