<?xml version="1.0" standalone="no"?>
<!DOCTYPE svg PUBLIC "-//W3C//DTD SVG 1.1//EN" "http://www.w3.org/Graphics/SVG/1.1/DTD/svg11.dtd" >
<svg xmlns="http://www.w3.org/2000/svg" xmlns:xlink="http://www.w3.org/1999/xlink" version="1.1">
<metadata>
Created by FontForge 20190801 at Sat May 23 11:42:07 2015
 By www-data
Copyright (c) Olivier Gourvat - Mostardesign Studio, 2012. All rights reserved.
</metadata>
<defs>
<font id="SofiaProRegular" horiz-adv-x="580" >
  <font-face 
    font-family="SofiaProRegular"
    font-weight="400"
    font-stretch="normal"
    units-per-em="1000"
    panose-1="2 11 0 0 0 0 0 0 0 0"
    ascent="750"
    descent="-250"
    x-height="467"
    cap-height="689"
    bbox="-172 -251 1141 1091"
    underline-thickness="50"
    underline-position="-100"
    unicode-range="U+0020-FB04"
  />
<missing-glyph horiz-adv-x="635" 
d="M80 0v665h475v-665h-475zM185 431h62q0 37 21 60t53 23t56 -20.5t24 -52.5q0 -30 -24 -50q-15 -17 -33 -21q-45 -13 -69 -38t-24 -72v-38h62v38q0 22 12.5 32.5t37.5 17.5q44 13 71.5 47.5t27.5 83.5q0 60 -41.5 97.5t-99.5 37.5q-57 0 -96.5 -40t-39.5 -105zM237 131
q0 -18 13.5 -30.5t32.5 -12.5q18 0 31.5 12.5t13.5 30.5t-13.5 30.5t-31.5 12.5q-19 0 -32.5 -12.5t-13.5 -30.5z" />
    <glyph glyph-name="f_f" unicode="ff" horiz-adv-x="707" 
d="M711 721v-87h-51q-27 0 -45.5 -10t-27 -28t-11.5 -37t-3 -45v-47h108v-77h-108v-390h-92v390h-272v-390h-92v390h-90v77h90v47q0 97 44 152t135 55h51v-87h-51q-27 0 -45.5 -10t-27 -28t-11.5 -37t-3 -45v-47h272v47q0 97 44 152t135 55h51z" />
    <glyph glyph-name="fi" unicode="fi" horiz-adv-x="631" 
d="M467 0v390h-258v-390h-92v390h-90v77h90v47q0 97 44 152t135 55h51v-87h-51q-27 0 -45.5 -10t-27 -28t-11.5 -37t-3 -45v-47h348v-467h-90zM449 639q0 26 18 42.5t45 16.5t45 -16.5t18 -42.5t-18 -42.5t-45 -16.5t-45 16.5t-18 42.5z" />
    <glyph glyph-name="fl" unicode="fl" horiz-adv-x="616" 
d="M449 0v634h-153q-27 0 -45.5 -10t-27 -28t-11.5 -37t-3 -45v-47h108v-77h-108v-390h-92v390h-90v77h90v47q0 97 44 152t135 55h244v-721h-91z" />
    <glyph glyph-name="f_f_i" unicode="ffi" horiz-adv-x="995" 
d="M831 390h-258v-390h-92v390h-272v-390h-92v390h-90v77h90v47q0 97 44 152t135 55h51v-87h-51q-27 0 -45.5 -10t-27 -28t-11.5 -37t-3 -45v-47h272v47q0 97 44 152t135 55h51v-87h-51q-27 0 -45.5 -10t-27 -28t-11.5 -37t-3 -45v-47h348v-467h-90v390zM813 639
q0 26 18 42.5t45 16.5t45 -16.5t18 -42.5t-18 -42.5t-45 -16.5t-45 16.5t-18 42.5z" />
    <glyph glyph-name="f_f_l" unicode="ffl" horiz-adv-x="980" 
d="M813 0v634h-153q-27 0 -45.5 -10t-27 -28t-11.5 -37t-3 -45v-47h108v-77h-108v-390h-92v390h-272v-390h-92v390h-90v77h90v47q0 97 44 152t135 55h51v-87h-51q-27 0 -45.5 -10t-27 -28t-11.5 -37t-3 -45v-47h272v47q0 97 44 152t135 55h244v-721h-91z" />
    <glyph glyph-name="f_f_j" unicode="ffj" horiz-adv-x="987" 
d="M683 -229v85h54q51 0 67.5 32t16.5 84v418h-248v-390h-92v390h-272v-390h-92v390h-90v77h90v47q0 97 44 152t135 55h51v-87h-51q-27 0 -45.5 -10t-27 -28t-11.5 -37t-3 -45v-47h272v47q0 97 44 152t135 55h51v-87h-51q-27 0 -45.5 -10t-27 -28t-11.5 -37t-3 -45v-47h340
v-496q0 -200 -168 -200h-62zM804 639q0 26 18 42.5t45 16.5t45 -16.5t18 -42.5t-18 -42.5t-45 -16.5t-45 16.5t-18 42.5z" />
    <glyph glyph-name="f_j" unicode="fj" horiz-adv-x="623" 
d="M319 -229v85h54q51 0 67.5 32t16.5 84v418h-248v-390h-92v390h-90v77h90v47q0 97 44 152t135 55h51v-87h-51q-27 0 -45.5 -10t-27 -28t-11.5 -37t-3 -45v-47h340v-496q0 -200 -168 -200h-62zM440 639q0 26 18 42.5t45 16.5t45 -16.5t18 -42.5t-18 -42.5t-45 -16.5
t-45 16.5t-18 42.5z" />
    <glyph glyph-name=".notdef" horiz-adv-x="635" 
d="M80 0v665h475v-665h-475zM185 431h62q0 37 21 60t53 23t56 -20.5t24 -52.5q0 -30 -24 -50q-15 -17 -33 -21q-45 -13 -69 -38t-24 -72v-38h62v38q0 22 12.5 32.5t37.5 17.5q44 13 71.5 47.5t27.5 83.5q0 60 -41.5 97.5t-99.5 37.5q-57 0 -96.5 -40t-39.5 -105zM237 131
q0 -18 13.5 -30.5t32.5 -12.5q18 0 31.5 12.5t13.5 30.5t-13.5 30.5t-31.5 12.5q-19 0 -32.5 -12.5t-13.5 -30.5z" />
    <glyph glyph-name=".null" horiz-adv-x="0" 
 />
    <glyph glyph-name="nonmarkingreturn" horiz-adv-x="333" 
 />
    <glyph glyph-name="space" unicode=" " horiz-adv-x="260" 
 />
    <glyph glyph-name="space" unicode="&#xa0;" horiz-adv-x="260" 
 />
    <glyph glyph-name="exclam" unicode="!" horiz-adv-x="264" 
d="M177 689l-9 -504h-71l-10 504h90zM66 52q0 27 19 45t46 18t46.5 -18t19.5 -45t-19.5 -44.5t-46.5 -17.5t-46 17.5t-19 44.5z" />
    <glyph glyph-name="quotedbl" unicode="&#x22;" horiz-adv-x="355" 
d="M75 689h71v-288h-71v288zM209 689h71v-288h-71v288z" />
    <glyph glyph-name="numbersign" unicode="#" horiz-adv-x="656" 
d="M515 515h105l-23 -85h-106l-48 -175h105l-23 -85h-105l-49 -170h-86l48 170h-107l-49 -170h-85l48 170h-104l23 85h104l47 175h-102l22 85h104l48 174h87l-48 -174h107l48 174h87zM297 430l-48 -175h107l48 175h-107z" />
    <glyph glyph-name="dollar" unicode="$" horiz-adv-x="562" 
d="M314 -9v-110h-62v111q-90 12 -147.5 71.5t-57.5 135.5h93q0 -47 42.5 -84.5t105.5 -37.5q62 0 97 29t42 72q3 51 -30.5 81.5t-86.5 41.5l-89 22q-168 42 -168 180q0 79 57.5 131t141.5 61v100h62v-101q82 -10 133 -64t51 -135h-93q0 51 -36 82t-94 31q-53 0 -91 -29
t-38 -75q0 -72 98 -96l90 -22q99 -25 147 -79.5t37 -136.5q-9 -72 -63.5 -122.5t-140.5 -56.5z" />
    <glyph glyph-name="percent" unicode="%" horiz-adv-x="682" 
d="M532 673l-329 -673h-66l329 673h66zM38 539q0 57 38 95.5t95 38.5q56 0 95 -39t39 -95q0 -57 -38.5 -95t-95.5 -38t-95 38t-38 95zM108 539q0 -27 18 -45t45 -18t45.5 18t18.5 45q0 26 -19 45t-45 19q-27 0 -45 -18.5t-18 -45.5zM378 123q0 57 38 95.5t95 38.5
q56 0 95 -39t39 -95q0 -57 -38.5 -95t-95.5 -38t-95 38t-38 95zM448 123q0 -27 18 -45t45 -18t45.5 18t18.5 45q0 26 -19 45t-45 19q-27 0 -45 -18.5t-18 -45.5z" />
    <glyph glyph-name="ampersand" unicode="&#x26;" horiz-adv-x="657" 
d="M283 422h135v89h86v-90h87v-73h-87v-137q0 -32 3.5 -54t14 -42t32 -30t54.5 -10v-84q-55 0 -96 20t-62 54q-26 -35 -71.5 -54.5t-98.5 -19.5q-98 0 -161.5 63.5t-63.5 156.5q0 57 27 104.5t75 77.5q-49 47 -49 124q0 71 52 121.5t127 50.5q52 0 95.5 -26.5t70.5 -71.5
l-74 -46q-33 57 -92 57q-40 0 -66 -24t-26 -61t25 -66t63 -29zM418 348h-137q-59 0 -99 -41t-40 -96q0 -58 38 -95.5t100 -37.5q59 0 97.5 36t40.5 91v143z" />
    <glyph glyph-name="quotesingle" unicode="'" horiz-adv-x="221" 
d="M75 689h71v-288h-71v288z" />
    <glyph glyph-name="parenleft" unicode="(" horiz-adv-x="363" 
d="M49 232q0 215 74.5 340t199.5 125v-89q-86 0 -137.5 -101.5t-51.5 -274.5t51.5 -274.5t137.5 -101.5v-89q-125 0 -199.5 125t-74.5 340z" />
    <glyph glyph-name="parenright" unicode=")" horiz-adv-x="363" 
d="M314 232q0 -215 -74.5 -340t-199.5 -125v89q86 0 137.5 102t51.5 274t-51.5 274t-137.5 102v89q125 0 199.5 -125t74.5 -340z" />
    <glyph glyph-name="asterisk" unicode="*" horiz-adv-x="467" 
d="M158 350l-60 46l85 105l-131 37l13 38q2 6 6.5 19t5.5 16l125 -49l-8 135h79l-9 -135q21 8 72.5 28t54.5 21l23 -73l-130 -35l87 -108l-62 -43l-73 111z" />
    <glyph glyph-name="plus" unicode="+" horiz-adv-x="519" 
d="M216 305v162h87v-162h162v-87h-162v-163h-87v163h-162v87h162z" />
    <glyph glyph-name="comma" unicode="," horiz-adv-x="257" 
d="M81 -126l-64 21q72 101 68 220h96q-6 -87 -34.5 -149t-65.5 -92z" />
    <glyph glyph-name="hyphen" unicode="-" horiz-adv-x="486" 
d="M69 277h348v-87h-348v87z" />
    <glyph glyph-name="period" unicode="." horiz-adv-x="266" 
d="M68 52q0 27 19 45t46 18t46.5 -18t19.5 -45t-19.5 -44.5t-46.5 -17.5t-46 17.5t-19 44.5z" />
    <glyph glyph-name="slash" unicode="/" horiz-adv-x="501" 
d="M470 689l-340 -689h-99l340 689h99z" />
    <glyph glyph-name="zero" unicode="0" horiz-adv-x="605" 
d="M66 325q0 74 11 131.5t36.5 105.5t73.5 73.5t116 25.5t115.5 -25.5t73 -73.5t36.5 -105t11 -132q0 -74 -11 -130.5t-36.5 -104.5t-73 -73.5t-115.5 -25.5q-55 0 -96.5 17.5t-68 47t-43 73t-23 91t-6.5 105.5zM156 325q0 -245 147 -245t147 245q0 74 -11.5 125.5t-45.5 86
t-90 34.5t-90 -34.5t-45.5 -86t-11.5 -125.5z" />
    <glyph glyph-name="one" unicode="1" horiz-adv-x="334" 
d="M148 0v539l-106 -37v86l196 71v-659h-90z" />
    <glyph glyph-name="two" unicode="2" horiz-adv-x="527" 
d="M60 40l265 321q48 58 48 107q0 47 -33.5 75t-82.5 28q-46 0 -78.5 -27.5t-39.5 -75.5l-87 21q12 78 70 125t135 47q87 0 146 -54t59 -139q0 -90 -71 -169q-48 -55 -95 -111.5t-82 -97.5h249v-90h-403v40z" />
    <glyph glyph-name="three" unicode="3" horiz-adv-x="535" 
d="M148 513l-67 53q27 48 78 74t111 22q79 -4 130.5 -57.5t49.5 -123.5q0 -19 -6 -40q-18 -59 -71 -89q49 -17 78 -69.5t25 -106.5q-8 -84 -77.5 -137t-161.5 -47q-65 5 -116 41.5t-78 94.5l79 43q16 -35 50 -61t72 -29h-1q54 -4 97 28t45 79t-36.5 82t-89.5 35h-74v87h74
q34 -1 59 20.5t31 54.5q7 41 -11 67q-24 33 -76 38q-70 6 -114 -59z" />
    <glyph glyph-name="four" unicode="4" horiz-adv-x="592" 
d="M455 134v-134h-89v134h-340l362 519h67v-434h94v-85h-94zM179 219h187v272z" />
    <glyph glyph-name="five" unicode="5" horiz-adv-x="564" 
d="M48 139l77 42q19 -48 56 -76t84 -28q78 0 117.5 37t39.5 96q0 60 -38.5 92.5t-96.5 32.5q-41 0 -76 -12t-86 -42l-56 46l57 325h348v-86h-274l-36 -185q22 16 57.5 27t65.5 11q95 0 159 -55.5t64 -153.5q0 -100 -67.5 -160t-177.5 -60q-69 0 -128 40.5t-89 108.5z" />
    <glyph glyph-name="six" unicode="6" horiz-adv-x="556" 
d="M492 535l-80 -34q-38 75 -111 75q-68 0 -109 -65t-31 -163q29 74 134 74q88 0 146 -67.5t56 -156.5q-4 -88 -68 -149.5t-151 -57.5t-143.5 63.5t-64.5 160.5q-9 120 11 247q14 91 75 146t149 53q62 -3 109 -30t78 -96zM160 212q0 -54 35 -91t87 -39q51 -2 87.5 32.5
t38.5 87.5t-31 90.5t-85 39.5t-91 -33t-41 -87z" />
    <glyph glyph-name="seven" unicode="7" horiz-adv-x="530" 
d="M513 653l-358 -653h-105l311 564h-299v89h451z" />
    <glyph glyph-name="eight" unicode="8" horiz-adv-x="562" 
d="M107 494q0 70 50 118.5t124 48.5t125 -48.5t51 -118.5q0 -69 -51 -115q100 -62 100 -175q0 -89 -65 -151t-160 -62q-96 0 -160.5 61.5t-64.5 151.5q0 54 26.5 100.5t72.5 74.5q-48 46 -48 115zM146 204q0 -52 39 -88t96 -36t96 36t39 88t-39.5 89t-95.5 37h-7
q-54 -2 -91 -38.5t-37 -87.5zM196 494q0 -32 22.5 -55t57.5 -25h8q36 2 59.5 25t23.5 55t-24.5 54.5t-61.5 22.5q-36 0 -60.5 -22.5t-24.5 -54.5z" />
    <glyph glyph-name="nine" unicode="9" horiz-adv-x="555" 
d="M63 116l80 34q38 -75 111 -75q69 0 108.5 64.5t31.5 163.5q-29 -74 -134 -74q-87 0 -146.5 67.5t-55.5 156.5q4 88 68 149.5t151 57.5t143.5 -63.5t64.5 -160.5q9 -120 -11 -247q-15 -90 -76 -146.5t-148 -52.5q-135 6 -187 126zM395 439q0 54 -35 91t-87 39
q-51 2 -87.5 -32.5t-38.5 -87.5t31 -90.5t85 -39.5t91 33t41 87z" />
    <glyph glyph-name="colon" unicode=":" horiz-adv-x="269" 
d="M69 52q0 27 19.5 45t46.5 18t46 -18t19 -45t-19 -44.5t-46 -17.5t-46.5 17.5t-19.5 44.5zM69 415q0 27 19.5 44.5t46.5 17.5t46 -17.5t19 -44.5t-19 -45t-46 -18t-46.5 18t-19.5 45z" />
    <glyph glyph-name="semicolon" unicode=";" horiz-adv-x="284" 
d="M98 -126l-69 21q72 101 68 220h101q-6 -87 -34.5 -149t-65.5 -92zM83 415q0 27 19 44.5t46 17.5t46.5 -17.5t19.5 -44.5t-19.5 -45t-46.5 -18t-46 18t-19 45z" />
    <glyph glyph-name="less" unicode="&#x3c;" horiz-adv-x="622" 
d="M554 32l-507 193v87l507 194v-97l-381 -140l381 -142v-95z" />
    <glyph glyph-name="equal" unicode="=" horiz-adv-x="608" 
d="M74 390h460v-87h-460v87zM74 197h460v-87h-460v87z" />
    <glyph glyph-name="greater" unicode="&#x3e;" horiz-adv-x="621" 
d="M574 225l-506 -194v96l380 142l-380 140v97l506 -194v-87z" />
    <glyph glyph-name="question" unicode="?" horiz-adv-x="483" 
d="M129 488h-86q0 94 57 151.5t140 57.5q84 0 144.5 -54t60.5 -141q0 -70 -41 -120t-103 -69q-36 -11 -53.5 -26t-17.5 -47l-2 -55h-88v55q0 67 34.5 103t99.5 56q32 8 57 38.5t25 64.5q0 47 -35 76.5t-81 29.5t-78.5 -33t-32.5 -87zM119 53q0 27 19.5 45t46.5 18t46 -18
t19 -45t-19 -44.5t-46 -17.5t-46.5 17.5t-19.5 44.5z" />
    <glyph glyph-name="at" unicode="@" horiz-adv-x="970" 
d="M600 128v129q0 55 -37.5 92t-91.5 37t-91.5 -37t-37.5 -92q0 -53 37.5 -90.5t91.5 -37.5q51 0 99 48v-85q-48 -34 -99 -34q-82 0 -141 58.5t-59 140.5q0 83 59 141.5t141 58.5q81 0 138 -55q57 -54 62 -136v-145q0 -66 72 -66q34 0 58.5 21.5t36.5 56t17 68t5 68.5
q0 150 -111.5 250.5t-267.5 100.5q-152 0 -256.5 -107.5t-104.5 -260.5t104 -259t257 -106h23v-71h-23q-182 0 -307 126.5t-125 309.5t125 311t307 128q121 0 224 -54t165 -151.5t62 -216.5q0 -47 -10 -94t-31 -91t-59.5 -71.5t-88.5 -27.5q-62 0 -102.5 33.5t-40.5 109.5z
" />
    <glyph glyph-name="A" unicode="A" horiz-adv-x="645" 
d="M209 259h228l-114 306zM469 175h-292l-67 -175h-99l262 689h100l261 -689h-98z" />
    <glyph glyph-name="B" unicode="B" horiz-adv-x="628" 
d="M541 511q0 -49 -21 -88t-66 -56q55 -11 89.5 -62t34.5 -106q0 -84 -54.5 -141.5t-147.5 -57.5h-282v689h260q87 0 137 -48t50 -130zM188 403h166q44 0 68 30t24 75t-27 70t-75 25h-156v-200zM369 321h-181v-234h184q49 0 79.5 33.5t30.5 79.5q0 45 -32 83t-81 38z" />
    <glyph glyph-name="C" unicode="C" horiz-adv-x="683" 
d="M589 168l70 -59q-47 -56 -114.5 -87.5t-146.5 -31.5q-146 0 -247.5 103t-101.5 250t101.5 250.5t247.5 103.5q160 0 259 -117l-70 -58q-78 85 -189 85q-108 0 -182 -76.5t-74 -187.5t74 -187t182 -76q116 0 191 88z" />
    <glyph glyph-name="D" unicode="D" horiz-adv-x="724" 
d="M361 0h-267v689h267q143 0 226.5 -97.5t83.5 -248.5t-83 -247t-227 -96zM187 87h174q104 0 160.5 71.5t56.5 184.5q0 114 -56.5 186.5t-160.5 72.5h-174v-515z" />
    <glyph glyph-name="E" unicode="E" horiz-adv-x="565" 
d="M94 689h408v-87h-315v-220h275v-87h-275v-208h325v-87h-418v689z" />
    <glyph glyph-name="F" unicode="F" horiz-adv-x="526" 
d="M94 689h402v-87h-309v-220h245v-87h-245v-295h-93v689z" />
    <glyph glyph-name="G" unicode="G" horiz-adv-x="756" 
d="M630 606l-67 -62q-72 64 -166 64q-107 0 -181 -77.5t-74 -187.5q0 -111 73.5 -187.5t181.5 -76.5q94 0 155 50.5t65 135.5h-196v81h302q0 -177 -86.5 -266.5t-239.5 -89.5q-147 0 -247.5 103t-100.5 250t101 250.5t247 103.5q135 0 233 -91z" />
    <glyph glyph-name="H" unicode="H" horiz-adv-x="708" 
d="M614 689v-689h-94v300h-333v-300h-93v689h93v-304h333v304h94z" />
    <glyph glyph-name="I" unicode="I" horiz-adv-x="281" 
d="M94 689h93v-689h-93v689z" />
    <glyph glyph-name="J" unicode="J" horiz-adv-x="281" 
d="M-100 -240l9 88q24 -8 66 -8q61 0 90 37t29 96v716h93v-716q0 -99 -51.5 -161.5t-160.5 -62.5q-22 0 -75 11z" />
    <glyph glyph-name="K" unicode="K" horiz-adv-x="578" 
d="M265 345l320 -345h-125l-273 294v-294h-93v689h93v-298l228 298h115z" />
    <glyph glyph-name="L" unicode="L" horiz-adv-x="495" 
d="M94 689h93v-602h281v-87h-374v689z" />
    <glyph glyph-name="M" unicode="M" horiz-adv-x="934" 
d="M467 183l243 506h85l84 -689h-92l-63 518l-215 -442h-82l-217 442l-63 -518h-92l84 689h85z" />
    <glyph glyph-name="N" unicode="N" horiz-adv-x="684" 
d="M590 0h-89l-314 519v-519h-93v689h92l311 -515v515h93v-689z" />
    <glyph glyph-name="O" unicode="O" horiz-adv-x="796" 
d="M49 343q0 147 101 250.5t247 103.5q147 0 248.5 -103.5t101.5 -250.5t-101.5 -250t-248.5 -103t-247.5 103t-100.5 250zM142 343q0 -111 73.5 -187t181.5 -76t182 76t74 187t-74 187.5t-182 76.5t-181.5 -76.5t-73.5 -187.5z" />
    <glyph glyph-name="P" unicode="P" horiz-adv-x="606" 
d="M94 689h275q102 0 153.5 -63t51.5 -153t-51.5 -152.5t-153.5 -62.5h-181v-258h-94v689zM368 602h-180v-257h175q59 0 88.5 37.5t29.5 90.5t-28.5 91t-84.5 38z" />
    <glyph glyph-name="Q" unicode="Q" horiz-adv-x="796" 
d="M583 43l72 -114l-72 -44l-77 122q-54 -17 -109 -17q-147 0 -247.5 103t-100.5 250t101 250.5t247 103.5q147 0 248.5 -103.5t101.5 -250.5q0 -93 -44 -172t-120 -128zM456 247l78 -126q56 36 87.5 94t31.5 128q0 111 -74 187.5t-182 76.5t-181.5 -76.5t-73.5 -187.5
q0 -105 67.5 -179t169.5 -80q43 -3 76 4l-70 114z" />
    <glyph glyph-name="R" unicode="R" horiz-adv-x="619" 
d="M383 261l184 -261h-113l-178 258h-88v-258h-94v689h265q102 0 153 -63t51 -153q0 -84 -44.5 -144t-135.5 -68zM356 602h-168v-257h164q59 0 87 37t28 91q0 53 -27.5 91t-83.5 38z" />
    <glyph glyph-name="S" unicode="S" horiz-adv-x="573" 
d="M52 199h93q0 -47 42.5 -84.5t105.5 -37.5q62 0 97 29t42 72q6 95 -117 123l-89 22q-168 42 -168 180q0 85 66 139.5t157 54.5q96 0 159 -55.5t63 -146.5h-93q0 51 -36 82t-94 31q-53 0 -91 -29t-38 -75q0 -72 98 -96l90 -22q99 -25 147 -79.5t37 -136.5q-10 -78 -71 -129
t-159 -51q-102 0 -171.5 63t-69.5 146z" />
    <glyph glyph-name="T" unicode="T" horiz-adv-x="568" 
d="M28 689h512v-88h-209v-601h-94v601h-209v88z" />
    <glyph glyph-name="U" unicode="U" horiz-adv-x="678" 
d="M339 80q66 0 112 43.5t46 113.5v452h94v-452q0 -109 -74 -178t-178 -69q-106 0 -179 68.5t-73 178.5v452h94v-452q0 -70 46 -113.5t112 -43.5z" />
    <glyph glyph-name="V" unicode="V" horiz-adv-x="562" 
d="M125 689l156 -532l156 532h96l-207 -689h-89l-209 689h97z" />
    <glyph glyph-name="W" unicode="W" horiz-adv-x="901" 
d="M786 689h100l-233 -689h-81l-122 430l-121 -430h-81l-233 689h100l173 -539l127 446h71l127 -446z" />
    <glyph glyph-name="X" unicode="X" horiz-adv-x="615" 
d="M363 370l241 -370h-112l-185 293l-185 -293h-111l240 370l-214 319h112l158 -243l159 243h112z" />
    <glyph glyph-name="Y" unicode="Y" horiz-adv-x="628" 
d="M362 0h-96v317l-261 372h111l198 -279l200 279h112l-264 -372v-317z" />
    <glyph glyph-name="Z" unicode="Z" horiz-adv-x="573" 
d="M42 81l364 520h-350v88h468v-81l-366 -520h366v-88h-482v81z" />
    <glyph glyph-name="bracketleft" unicode="[" horiz-adv-x="327" 
d="M84 -227v916h201v-83h-111v-750h111v-83h-201z" />
    <glyph glyph-name="backslash" unicode="\" horiz-adv-x="501" 
d="M371 0l-340 689h99l340 -689h-99z" />
    <glyph glyph-name="bracketright" unicode="]" horiz-adv-x="327" 
d="M243 689v-916h-201v83h111v750h-111v83h201z" />
    <glyph glyph-name="underscore" unicode="_" horiz-adv-x="699" 
d="M69 -28h561v-81h-561v81z" />
    <glyph glyph-name="grave" unicode="`" horiz-adv-x="512" 
d="M248 554l-119 154h109l97 -154h-87z" />
    <glyph glyph-name="a" unicode="a" horiz-adv-x="612" 
d="M446 0v72q-23 -38 -68.5 -60t-95.5 -22q-99 0 -168 68t-69 176q0 109 69 176t168 67q51 0 96 -21t68 -59v70h90v-467h-90zM445 235q0 71 -46.5 112t-108.5 41q-64 0 -108 -42.5t-44 -110.5t44 -112t108 -44q65 0 110 42t45 114z" />
    <glyph glyph-name="b" unicode="b" horiz-adv-x="612" 
d="M167 72v-72h-91v721h91v-324q23 39 67 59.5t97 20.5q100 0 168 -67t68 -176q0 -108 -69 -176t-168 -68q-50 0 -95 22t-68 60zM168 235q0 -72 45 -114t110 -42q64 0 107.5 44t43.5 112t-43.5 110.5t-107.5 42.5q-62 0 -108.5 -41t-46.5 -112z" />
    <glyph glyph-name="c" unicode="c" horiz-adv-x="512" 
d="M45 235q0 108 72 175t175 67q111 0 180 -75l-69 -58q-44 44 -111 44q-65 0 -111 -42.5t-46 -110.5t46 -112.5t111 -44.5q67 0 111 46l70 -58q-70 -76 -181 -76q-103 0 -175 68.5t-72 176.5z" />
    <glyph glyph-name="d" unicode="d" horiz-adv-x="612" 
d="M445 0v72q-23 -38 -68.5 -60t-95.5 -22q-99 0 -167.5 68t-68.5 176q0 109 68 176t167 67q53 0 97.5 -20.5t67.5 -59.5v324h91v-721h-91zM444 235q0 71 -46.5 112t-108.5 41q-64 0 -107.5 -42.5t-43.5 -110.5t43.5 -112t107.5 -44q65 0 110 42t45 114z" />
    <glyph glyph-name="e" unicode="e" horiz-adv-x="556" 
d="M136 270h290q-8 59 -46 92t-96 33q-59 0 -99.5 -33.5t-48.5 -91.5zM516 235q0 -25 -1 -36h-379q8 -59 49 -93t102 -34q43 0 78.5 18.5t55.5 53.5q12 -6 39 -15.5t39 -14.5q-29 -60 -86.5 -92t-128.5 -32q-102 0 -170.5 68t-68.5 177t68.5 175.5t170.5 66.5
q101 0 166.5 -66.5t65.5 -175.5z" />
    <glyph glyph-name="f" unicode="f" horiz-adv-x="343" 
d="M347 721v-87h-51q-27 0 -45.5 -10t-27 -28t-11.5 -37t-3 -45v-47h108v-77h-108v-390h-92v390h-90v77h90v47q0 97 44 152t135 55h51z" />
    <glyph glyph-name="g" unicode="g" horiz-adv-x="611" 
d="M146 -67q20 -38 57.5 -59t77.5 -21q166 0 166 212q0 2 -0.5 5.5t-0.5 5.5q-21 -41 -66.5 -63.5t-97.5 -22.5q-99 0 -168 67t-69 175t69 176.5t168 68.5q50 0 95.5 -22t68.5 -61v73h90v-396q0 -304 -255 -304q-67 0 -122.5 32.5t-88.5 93.5q65 35 76 40zM445 233
q0 72 -45 113.5t-110 41.5q-64 0 -108 -44t-44 -111q0 -70 43.5 -112t108.5 -42q62 0 108.5 41.5t46.5 112.5z" />
    <glyph glyph-name="h" unicode="h" 
d="M167 252v-252h-91v721h91v-324q19 39 65 59.5t89 20.5q89 0 139.5 -54.5t49.5 -152.5v-270h-91v264q0 57 -30.5 90.5t-79.5 33.5q-56 0 -99 -33.5t-43 -102.5z" />
    <glyph glyph-name="i" unicode="i" horiz-adv-x="242" 
d="M166 467v-467h-90v467h90zM58 639q0 26 18 42.5t45 16.5t45 -16.5t18 -42.5t-18 -42.5t-45 -16.5t-45 16.5t-18 42.5z" />
    <glyph glyph-name="j" unicode="j" horiz-adv-x="244" 
d="M-62 -229v85h54q51 0 67.5 32t16.5 84v495h92v-496q0 -200 -168 -200h-62zM59 639q0 26 18 42.5t45 16.5t45 -16.5t18 -42.5t-18 -42.5t-45 -16.5t-45 16.5t-18 42.5z" />
    <glyph glyph-name="k" unicode="k" horiz-adv-x="502" 
d="M166 228v-228h-90v721h90v-417l161 163h124l-200 -202l248 -265h-120z" />
    <glyph glyph-name="l" unicode="l" horiz-adv-x="243" 
d="M76 721h91v-721h-91v721z" />
    <glyph glyph-name="m" unicode="m" horiz-adv-x="881" 
d="M613 388q-57 0 -90.5 -38t-33.5 -98v-252h-91v265q0 57 -27.5 90t-73.5 33q-54 0 -92 -34t-38 -102v-252h-91v467h91v-70q16 35 55 55t74 23q27 1 51 -3q89 -14 122 -91q50 96 162 96q87 0 133.5 -54t46.5 -153v-270h-91v264q0 58 -28 91t-79 33z" />
    <glyph glyph-name="n" unicode="n" horiz-adv-x="563" 
d="M167 252v-252h-91v467h91v-70q19 39 61 59.5t85 20.5q87 0 133.5 -54t46.5 -153v-270h-91v264q0 59 -27.5 91.5t-75.5 32.5q-55 0 -93.5 -33.5t-38.5 -102.5z" />
    <glyph glyph-name="o" unicode="o" horiz-adv-x="579" 
d="M289 -10q-102 0 -173 68t-71 177q0 108 70.5 175t173.5 67t174 -67t71 -175t-71.5 -176.5t-173.5 -68.5zM289 78q64 0 109 43.5t45 113.5q0 69 -45 111t-109 42q-65 0 -109.5 -42t-44.5 -111q0 -70 44.5 -113.5t109.5 -43.5z" />
    <glyph glyph-name="p" unicode="p" horiz-adv-x="609" 
d="M167 467v-73q24 39 68 61t95 22q98 0 166 -68t68 -177q0 -108 -67.5 -175t-166.5 -67q-51 0 -95.5 20.5t-67.5 59.5v-297h-91v694h91zM168 231q0 -71 46 -111.5t107 -40.5q65 0 108 42t43 110q0 69 -43.5 113t-107.5 44t-108.5 -42.5t-44.5 -114.5z" />
    <glyph glyph-name="q" unicode="q" horiz-adv-x="609" 
d="M442 394v73h91v-694h-91v297q-22 -39 -66.5 -59.5t-96.5 -20.5q-99 0 -166.5 67t-67.5 175q0 109 68 177t166 68q50 0 95 -22t68 -61zM442 231q0 72 -44.5 114.5t-109.5 42.5q-64 0 -107 -44t-43 -113q0 -68 43 -110t107 -42q61 0 107.5 40.5t46.5 111.5z" />
    <glyph glyph-name="r" unicode="r" horiz-adv-x="395" 
d="M167 170v-170h-91v467h91v-105q33 115 130 115q55 0 81 -18l-14 -85q-33 16 -69 16q-64 0 -96 -60.5t-32 -159.5z" />
    <glyph glyph-name="s" unicode="s" horiz-adv-x="439" 
d="M246 191l-64 15q-67 18 -99 53.5t-26 98.5q6 51 52.5 85t109.5 34q65 0 110.5 -32.5t51.5 -99.5h-87q-4 25 -24.5 39t-48.5 14q-26 0 -45.5 -11.5t-24.5 -30.5q-6 -23 1 -37q11 -23 55 -36l69 -17q121 -30 121 -136q0 -64 -52.5 -102t-128.5 -38q-67 0 -119.5 41
t-54.5 109h83q6 -38 38 -53q31 -19 74 -16q32 2 51 18.5t20 42.5q1 24 -16 38t-46 21z" />
    <glyph glyph-name="t" unicode="t" horiz-adv-x="328" 
d="M202 467h99v-77h-99v-390h-91v390h-84v77h84v176h91v-176z" />
    <glyph glyph-name="u" unicode="u" horiz-adv-x="562" 
d="M395 215v252h91v-467h-91v70q-20 -39 -61.5 -59.5t-83.5 -20.5q-88 0 -134.5 54t-45.5 153v270h91v-264q0 -59 27 -91.5t75 -32.5q56 0 94 33t38 103z" />
    <glyph glyph-name="v" unicode="v" horiz-adv-x="510" 
d="M17 467h96l142 -351l141 351h97l-195 -467h1h-88z" />
    <glyph glyph-name="w" unicode="w" horiz-adv-x="790" 
d="M596 0h-75l-127 343l-123 -343h-74l-178 467h97l117 -327l117 327h88l117 -327l117 327h97z" />
    <glyph glyph-name="x" unicode="x" horiz-adv-x="500" 
d="M45 467h109l96 -137l97 137h109l-153 -211l185 -256h-108l-130 181l-131 -181h-107l185 256z" />
    <glyph glyph-name="y" unicode="y" horiz-adv-x="509" 
d="M202 -227h-95l98 241l-187 453h97l140 -338l140 338h97z" />
    <glyph glyph-name="z" unicode="z" horiz-adv-x="502" 
d="M453 467v-75l-283 -305h283v-87h-411v75l278 305h-262v87h395z" />
    <glyph glyph-name="braceleft" unicode="{" horiz-adv-x="400" 
d="M186 143v-174q0 -49 32 -83t76 -34h67v-79h-64q-83 0 -140 54t-57 142v174q0 20 -18 35.5t-43 15.5v81q25 0 43 15.5t18 35.5v176q0 88 57 141.5t140 53.5h64v-79h-67q-45 0 -76.5 -34t-31.5 -82v-176q0 -28 -13 -54t-36 -38q21 -12 35 -38t14 -53z" />
    <glyph glyph-name="bar" unicode="|" horiz-adv-x="230" 
d="M146 795v-914h-62v914h62z" />
    <glyph glyph-name="braceright" unicode="}" horiz-adv-x="400" 
d="M214 -31v174q0 27 14 53t35 38q-23 12 -36 38t-13 54v176q0 48 -31.5 82t-76.5 34h-67v79h64q83 0 140 -53.5t57 -141.5v-176q0 -20 18 -35.5t43 -15.5v-81q-25 0 -43 -15.5t-18 -35.5v-174q0 -88 -57 -142t-140 -54h-64v79h67q44 0 76 34t32 83z" />
    <glyph glyph-name="exclamdown" unicode="&#xa1;" horiz-adv-x="241" 
d="M156 282l9 -509h-90l10 509h71zM54 415q0 27 19 44.5t46 17.5t46.5 -17.5t19.5 -44.5t-19.5 -45t-46.5 -18t-46 18t-19 45z" />
    <glyph glyph-name="cent" unicode="&#xa2;" horiz-adv-x="531" 
d="M251 -117v111q-87 15 -144 80t-57 161q0 95 57 159t144 79v106h62v-103q99 -5 164 -74l-69 -58q-44 44 -111 44q-65 0 -111 -42.5t-46 -110.5t46 -112.5t111 -44.5q67 0 111 46l70 -58q-63 -69 -165 -75v-108h-62z" />
    <glyph glyph-name="sterling" unicode="&#xa3;" horiz-adv-x="632" 
d="M140 348v154q0 87 60.5 141t144.5 54q83 0 140 -57.5t57 -151.5h-90q0 44 -20 74t-52 39q-28 7 -45 4q-42 -2 -74 -30.5t-32 -72.5v-154h153v-61h-153v-197h244q17 0 17 22v57h90v-49q0 -53 -24.5 -86.5t-71.5 -33.5h-436v90h92v197h-76v61h76z" />
    <glyph glyph-name="currency" unicode="&#xa4;" horiz-adv-x="610" 
d="M195 339q0 -46 32 -78t78 -32q45 0 78 32.5t33 77.5t-33 78t-78 33t-77.5 -33t-32.5 -78zM197 177l-70 -71l-55 55l70 71q-32 47 -32 107q0 59 33 108l-71 71l55 55l71 -71q46 33 107 33q59 0 108 -33l70 71l55 -55l-70 -71q33 -51 33 -108q0 -61 -33 -107l70 -71
l-55 -55l-70 71q-49 -33 -108 -33t-108 33z" />
    <glyph glyph-name="yen" unicode="&#xa5;" horiz-adv-x="687" 
d="M390 253v-78h183v-64h-183v-111h-96v111h-181v64h181v78h-181v64h181l-261 372h111l198 -279l200 279h112l-264 -372h183v-64h-183z" />
    <glyph glyph-name="brokenbar" unicode="&#xa6;" horiz-adv-x="234" 
d="M86 405v390h62v-390h-62zM148 269v-388h-62v388h62z" />
    <glyph glyph-name="section" unicode="&#xa7;" horiz-adv-x="516" 
d="M151 491v-160q0 -49 32 -78.5t79 -29.5q30 0 56 11v-89q-32 -8 -56 -8q-83 0 -140 53.5t-57 140.5v160q0 88 57 141.5t140 53.5q64 0 115 -36.5t74 -99.5l-82 -24q-15 35 -43.5 54.5t-63.5 19.5q-46 0 -78.5 -30t-32.5 -79zM365 78v160q0 49 -32 78.5t-79 29.5
q-27 0 -54 -11v89q29 8 54 8q83 0 140 -53.5t57 -140.5v-160q0 -88 -57 -141.5t-140 -53.5q-64 0 -115 36.5t-74 99.5l82 24q15 -35 43.5 -54.5t63.5 -19.5q46 0 78.5 30t32.5 79z" />
    <glyph glyph-name="dieresis" unicode="&#xa8;" horiz-adv-x="533" 
d="M120 630q0 26 17.5 42.5t44.5 16.5q25 0 43 -16.5t18 -42.5t-18 -42.5t-43 -16.5q-27 0 -44.5 16.5t-17.5 42.5zM289 630q0 26 17.5 42.5t44.5 16.5t44.5 -16.5t17.5 -42.5t-17.5 -42.5t-44.5 -16.5t-44.5 16.5t-17.5 42.5z" />
    <glyph glyph-name="copyright" unicode="&#xa9;" horiz-adv-x="809" 
d="M500 272l45 -50q-62 -65 -138 -65q-75 0 -127.5 53t-52.5 128t52 127.5t128 52.5q74 0 137 -66l-46 -47q-46 46 -91 46q-47 0 -79.5 -33.5t-32.5 -79.5q0 -48 32 -81t80 -33q45 0 93 48zM55 343q0 147 101.5 250.5t247.5 103.5t248 -103.5t102 -250.5t-102 -250
t-248 -103t-247.5 103t-101.5 250zM116 343q0 -120 84 -205.5t204 -85.5t204 85.5t84 205.5q0 121 -84 206.5t-204 85.5t-204 -85.5t-84 -206.5z" />
    <glyph glyph-name="ordfeminine" unicode="&#xaa;" horiz-adv-x="505" 
d="M354 325v50q-15 -27 -47 -42t-67 -15q-69 0 -117.5 47.5t-48.5 123.5t48 123t118 47q35 0 67 -14.5t47 -41.5v49h63v-327h-63zM354 490q0 49 -33 78t-76 29q-46 0 -76 -29.5t-30 -77.5t30.5 -79t75.5 -31t77 30t32 80zM98 215v50h315v-50h-315z" />
    <glyph glyph-name="guillemotleft" unicode="&#xab;" horiz-adv-x="489" 
d="M46 233l138 207h79l-138 -207l138 -207h-79zM222 233l138 207h79l-138 -207l138 -207h-79z" />
    <glyph glyph-name="logicalnot" unicode="&#xac;" horiz-adv-x="641" 
d="M563 359v-241h-87v154h-402v87h489z" />
    <glyph glyph-name="registered" unicode="&#xae;" horiz-adv-x="809" 
d="M458 292l90 -127h-84l-88 122h-23v-122h-69v353h137q54 0 84 -34.5t30 -81.5q0 -39 -19 -69t-58 -41zM421 450h-68v-95h66q22 0 35 14t13 33q0 20 -12.5 34t-33.5 14zM55 343q0 147 101.5 250.5t247.5 103.5t248 -103.5t102 -250.5t-102 -250t-248 -103t-247.5 103
t-101.5 250zM116 343q0 -120 84 -205.5t204 -85.5t204 85.5t84 205.5q0 121 -84 206.5t-204 85.5t-204 -85.5t-84 -206.5z" />
    <glyph glyph-name="macron" unicode="&#xaf;" horiz-adv-x="492" 
d="M120 660h252v-80h-252v80z" />
    <glyph glyph-name="degree" unicode="&#xb0;" horiz-adv-x="370" 
d="M54 566q0 54 38.5 92.5t92.5 38.5t92.5 -38.5t38.5 -92.5t-38.5 -92.5t-92.5 -38.5t-92.5 38.5t-38.5 92.5zM123 566q0 -26 18 -44t44 -18t44 18t18 44t-18 44t-44 18t-44 -18t-18 -44z" />
    <glyph glyph-name="plusminus" unicode="&#xb1;" horiz-adv-x="542" 
d="M227 364v143h87v-143h159v-87h-159v-145h-87v145h-158v87h158zM473 0h-404v82h404v-82z" />
    <glyph glyph-name="twosuperior" unicode="&#xb2;" horiz-adv-x="320" 
d="M37 458l158 191q27 34 27 61t-19 44t-47 17q-27 0 -46.5 -17.5t-24.5 -47.5l-53 14q8 49 42.5 78.5t81.5 29.5q53 0 88.5 -33t35.5 -85q0 -56 -43 -102l-101 -119h145v-59h-244v28z" />
    <glyph glyph-name="threesuperior" unicode="&#xb3;" horiz-adv-x="320" 
d="M87 738l-40 32q18 28 48 43.5t65 13.5q47 -2 78.5 -34t29.5 -74q0 -12 -3 -24q-11 -36 -43 -54q30 -12 47 -42t15 -63q-4 -50 -46 -82.5t-97 -28.5q-38 3 -69.5 25.5t-47.5 56.5l48 26q9 -21 29.5 -36.5t43.5 -17.5h-1q32 -2 58.5 16.5t26.5 47.5q1 28 -21.5 49t-53.5 21
h-45v52h45q20 0 35 13t19 32q5 23 -7 40q-13 21 -45 23q-43 4 -69 -35z" />
    <glyph glyph-name="acute" unicode="&#xb4;" horiz-adv-x="512" 
d="M335 708l-119 -154h-87l97 154h109z" />
    <glyph glyph-name="mu" unicode="&#xb5;" horiz-adv-x="555" 
d="M83 -153v620h91v-270q0 -55 24 -86t68 -31q54 0 93 33t39 100v254h91v-467h-91v57q-20 -32 -57.5 -49t-74.5 -17q-62 0 -92 30v-174h-91z" />
    <glyph glyph-name="paragraph" unicode="&#xb6;" horiz-adv-x="651" 
d="M325 689v-745h-83v311q-86 6 -146.5 68t-60.5 149q0 90 63 153.5t154 63.5h73zM383 689h93q56 0 96.5 -40.5t40.5 -96.5v-85h-82v85q0 21 -12.5 37t-32.5 16h-20v-654q0 -51 -41.5 -93t-95.5 -44h-88v76h88q21 0 37.5 14t16.5 32v753z" />
    <glyph glyph-name="periodcentered" unicode="&#xb7;" horiz-adv-x="269" 
d="M69 251q0 27 19 45t46 18t46.5 -18t19.5 -45t-19.5 -44.5t-46.5 -17.5t-46 17.5t-19 44.5z" />
    <glyph glyph-name="cedilla" unicode="&#xb8;" horiz-adv-x="522" 
d="M227 -117q7 -15 21 -21.5t29 -1.5q15 7 20.5 22t-0.5 31l-43 120h49l51 -95q8 -17 8 -42q0 -30 -16.5 -54.5t-46.5 -37.5q-19 -8 -39 -8q-29 0 -53 17t-37 47q-10 21 -10 49l64 -4v-8q0 -8 3 -14z" />
    <glyph glyph-name="onesuperior" unicode="&#xb9;" horiz-adv-x="208" 
d="M94 430v305l-68 -35v57l128 70v-397h-60z" />
    <glyph glyph-name="ordmasculine" unicode="&#xba;" horiz-adv-x="497" 
d="M248 318q-72 0 -121.5 47.5t-49.5 124.5q0 75 49.5 122t121.5 47q71 0 121.5 -47t50.5 -122q0 -77 -50.5 -124.5t-121.5 -47.5zM248 380q46 0 77 30t31 80q0 48 -31.5 77.5t-76.5 29.5t-76.5 -29.5t-31.5 -77.5q0 -50 31 -80t77 -30zM85 215v50h331v-50h-331z" />
    <glyph glyph-name="guillemotright" unicode="&#xbb;" horiz-adv-x="489" 
d="M443 233l-138 -207h-79l138 207l-138 207h79zM267 233l-138 -207h-79l138 207l-138 207h79z" />
    <glyph glyph-name="onequarter" unicode="&#xbc;" horiz-adv-x="733" 
d="M163 270h-53v324l-64 -22v51l117 42v-395zM582 295l-113 -164h113v164zM692 80h-57v-80h-53v80h-204l217 312h40v-261h57v-51zM596 670l-450 -680h-68l451 680h67z" />
    <glyph glyph-name="onehalf" unicode="&#xbd;" horiz-adv-x="771" 
d="M164 270h-53v324l-64 -22v51l117 42v-395zM478 0v24l159 193q29 36 29 64t-21 45t-52 17q-28 0 -47.5 -16.5t-23.5 -45.5l-49 13q8 47 42 75t81 28q52 0 87.5 -32.5t35.5 -83.5q0 -52 -43 -102q-63 -73 -106 -125h150v-54h-242zM594 670l-450 -680h-68l451 680h67z" />
    <glyph glyph-name="threequarters" unicode="&#xbe;" horiz-adv-x="812" 
d="M548 131l113 164v-164h-113zM714 80h57v51h-57v261h-40l-217 -312h204v-80h53v80zM104 578l-40 32q16 28 46.5 43.5t66.5 13.5q47 -4 78.5 -35t29.5 -73q0 -23 -12.5 -44.5t-33.5 -33.5q30 -12 47 -42t15 -63q-4 -50 -46.5 -82.5t-97.5 -28.5q-38 3 -69.5 25.5
t-46.5 56.5l47 25q9 -21 30 -36.5t44 -17.5h-1q32 -2 57.5 17t27.5 48q2 28 -21 49t-54 21h-45v52h45q21 0 35.5 12.5t18.5 32.5q5 26 -10 43t-43 21q-41 4 -68 -36zM234 -10l450 680h-67l-451 -680h68z" />
    <glyph glyph-name="questiondown" unicode="&#xbf;" horiz-adv-x="472" 
d="M349 -24h86q0 -94 -57 -151.5t-140 -57.5q-84 0 -144.5 54t-60.5 141q0 70 41 120t103 69q36 11 53.5 26t17.5 47l2 59h88v-59q0 -67 -34.5 -103t-99.5 -56q-33 -10 -57.5 -39t-24.5 -64q0 -47 35 -76.5t81 -29.5t78.5 33t32.5 87zM359 415q0 -27 -19.5 -45t-46.5 -18
t-46 18t-19 45t19 44.5t46 17.5t46.5 -17.5t19.5 -44.5z" />
    <glyph glyph-name="Agrave" unicode="&#xc0;" horiz-adv-x="645" 
d="M209 259h228l-114 306zM469 175h-292l-67 -175h-99l262 689h100l261 -689h-98zM285 776l-119 154h109l97 -154h-87z" />
    <glyph glyph-name="Aacute" unicode="&#xc1;" horiz-adv-x="645" 
d="M209 259h228l-114 306zM469 175h-292l-67 -175h-99l262 689h100l261 -689h-98zM482 930l-119 -154h-87l97 154h109z" />
    <glyph glyph-name="Acircumflex" unicode="&#xc2;" horiz-adv-x="645" 
d="M209 259h228l-114 306zM469 175h-292l-67 -175h-99l262 689h100l261 -689h-98zM397 776l-75 87l-74 -87h-82l110 154h93l110 -154h-82z" />
    <glyph glyph-name="Atilde" unicode="&#xc3;" horiz-adv-x="645" 
d="M209 259h228l-114 306zM469 175h-292l-67 -175h-99l262 689h100l261 -689h-98zM277 832q-10 0 -18 -11t-9 -33h-61q3 61 28.5 89t59.5 28q25 0 58 -24q21 -17 31 -17t18.5 9.5t9.5 31.5h61q-3 -60 -29 -87t-60 -27q-23 0 -57 25q-24 16 -32 16z" />
    <glyph glyph-name="Adieresis" unicode="&#xc4;" horiz-adv-x="645" 
d="M209 259h228l-114 306zM469 175h-292l-67 -175h-99l262 689h100l261 -689h-98zM176 852q0 26 17.5 42.5t44.5 16.5q25 0 43 -16.5t18 -42.5t-18 -42.5t-43 -16.5q-27 0 -44.5 16.5t-17.5 42.5zM345 852q0 26 17.5 42.5t44.5 16.5t44.5 -16.5t17.5 -42.5t-17.5 -42.5
t-44.5 -16.5t-44.5 16.5t-17.5 42.5z" />
    <glyph glyph-name="Aring" unicode="&#xc5;" horiz-adv-x="645" 
d="M209 259h228l-114 306zM469 175h-292l-67 -175h-99l262 689h100l261 -689h-98zM217 867q0 45 30 75.5t74 30.5q45 0 76 -30.5t31 -75.5q0 -44 -31 -74t-76 -30q-44 0 -74 30t-30 74zM270 867q0 -21 15 -36t36 -15q23 0 38.5 15t15.5 36q0 23 -15.5 38t-38.5 15
q-21 0 -36 -15t-15 -38z" />
    <glyph glyph-name="AE" unicode="&#xc6;" horiz-adv-x="934" 
d="M220 173l-111 -173h-109l435 689h435v-92h-313v-213h274v-92h-274v-200h324v-92h-416v173h-245zM275 262h190v298z" />
    <glyph glyph-name="Ccedilla" unicode="&#xc7;" horiz-adv-x="684" 
d="M318 -117q7 -15 21 -21.5t29 -1.5q15 7 20.5 22t-0.5 31l-29 79q-132 14 -220.5 114.5t-88.5 236.5q0 147 101.5 250.5t247.5 103.5q160 0 259 -117l-70 -58q-78 85 -189 85q-108 0 -182 -76.5t-74 -187.5t74 -187t182 -76q116 0 191 88l70 -59q-95 -111 -243 -118
l28 -53q8 -17 8 -42q0 -30 -16.5 -54.5t-46.5 -37.5q-19 -8 -39 -8q-29 0 -53 17t-37 47q-10 21 -10 49l64 -4v-8q0 -8 3 -14z" />
    <glyph glyph-name="Egrave" unicode="&#xc8;" horiz-adv-x="565" 
d="M94 689h408v-87h-315v-220h275v-87h-275v-208h325v-87h-418v689zM267 776l-119 154h109l97 -154h-87z" />
    <glyph glyph-name="Eacute" unicode="&#xc9;" horiz-adv-x="565" 
d="M94 689h408v-87h-315v-220h275v-87h-275v-208h325v-87h-418v689zM421 930l-119 -154h-87l97 154h109z" />
    <glyph glyph-name="Ecircumflex" unicode="&#xca;" horiz-adv-x="565" 
d="M94 689h408v-87h-315v-220h275v-87h-275v-208h325v-87h-418v689zM357 776l-75 87l-74 -87h-82l110 154h93l110 -154h-82z" />
    <glyph glyph-name="Edieresis" unicode="&#xcb;" horiz-adv-x="565" 
d="M94 689h408v-87h-315v-220h275v-87h-275v-208h325v-87h-418v689zM140 852q0 26 17.5 42.5t44.5 16.5q25 0 43 -16.5t18 -42.5t-18 -42.5t-43 -16.5q-27 0 -44.5 16.5t-17.5 42.5zM309 852q0 26 17.5 42.5t44.5 16.5t44.5 -16.5t17.5 -42.5t-17.5 -42.5t-44.5 -16.5
t-44.5 16.5t-17.5 42.5z" />
    <glyph glyph-name="Igrave" unicode="&#xcc;" horiz-adv-x="281" 
d="M94 689h93v-689h-93v689zM100 776l-119 154h109l97 -154h-87z" />
    <glyph glyph-name="Iacute" unicode="&#xcd;" horiz-adv-x="281" 
d="M94 689h93v-689h-93v689zM299 930l-119 -154h-87l97 154h109z" />
    <glyph glyph-name="Icircumflex" unicode="&#xce;" horiz-adv-x="281" 
d="M94 689h93v-689h-93v689zM215 776l-75 87l-74 -87h-82l110 154h93l110 -154h-82z" />
    <glyph glyph-name="Idieresis" unicode="&#xcf;" horiz-adv-x="281" 
d="M94 689h93v-689h-93v689zM-6 852q0 26 17.5 42.5t44.5 16.5q25 0 43 -16.5t18 -42.5t-18 -42.5t-43 -16.5q-27 0 -44.5 16.5t-17.5 42.5zM163 852q0 26 17.5 42.5t44.5 16.5t44.5 -16.5t17.5 -42.5t-17.5 -42.5t-44.5 -16.5t-44.5 16.5t-17.5 42.5z" />
    <glyph glyph-name="Eth" unicode="&#xd0;" horiz-adv-x="724" 
d="M363 0h-263v311h-93v68h93v310h263q143 0 225 -97t82 -249q0 -151 -82 -247t-225 -96zM193 379h165v-68h-165v-219h170q103 0 158.5 69.5t55.5 181.5t-56 183t-158 71h-170v-218z" />
    <glyph glyph-name="Ntilde" unicode="&#xd1;" horiz-adv-x="684" 
d="M590 0h-89l-314 519v-519h-93v689h92l311 -515v515h93v-689zM297 832q-10 0 -18 -11t-9 -33h-61q3 61 28.5 89t59.5 28q25 0 58 -24q21 -17 31 -17t18.5 9.5t9.5 31.5h61q-3 -60 -29 -87t-60 -27q-23 0 -57 25q-24 16 -32 16z" />
    <glyph glyph-name="Ograve" unicode="&#xd2;" horiz-adv-x="796" 
d="M49 343q0 147 101 250.5t247 103.5q147 0 248.5 -103.5t101.5 -250.5t-101.5 -250t-248.5 -103t-247.5 103t-100.5 250zM142 343q0 -111 73.5 -187t181.5 -76t182 76t74 187t-74 187.5t-182 76.5t-181.5 -76.5t-73.5 -187.5zM364 776l-119 154h109l97 -154h-87z" />
    <glyph glyph-name="Oacute" unicode="&#xd3;" horiz-adv-x="796" 
d="M49 343q0 147 101 250.5t247 103.5q147 0 248.5 -103.5t101.5 -250.5t-101.5 -250t-248.5 -103t-247.5 103t-100.5 250zM142 343q0 -111 73.5 -187t181.5 -76t182 76t74 187t-74 187.5t-182 76.5t-181.5 -76.5t-73.5 -187.5zM539 930l-119 -154h-87l97 154h109z" />
    <glyph glyph-name="Ocircumflex" unicode="&#xd4;" horiz-adv-x="796" 
d="M49 343q0 147 101 250.5t247 103.5q147 0 248.5 -103.5t101.5 -250.5t-101.5 -250t-248.5 -103t-247.5 103t-100.5 250zM142 343q0 -111 73.5 -187t181.5 -76t182 76t74 187t-74 187.5t-182 76.5t-181.5 -76.5t-73.5 -187.5zM472 776l-75 87l-74 -87h-82l110 154h93
l110 -154h-82z" />
    <glyph glyph-name="Otilde" unicode="&#xd5;" horiz-adv-x="796" 
d="M49 343q0 147 101 250.5t247 103.5q147 0 248.5 -103.5t101.5 -250.5t-101.5 -250t-248.5 -103t-247.5 103t-100.5 250zM142 343q0 -111 73.5 -187t181.5 -76t182 76t74 187t-74 187.5t-182 76.5t-181.5 -76.5t-73.5 -187.5zM353 832q-10 0 -18 -11t-9 -33h-61
q3 61 28.5 89t59.5 28q25 0 58 -24q21 -17 31 -17t18.5 9.5t9.5 31.5h61q-3 -60 -29 -87t-60 -27q-23 0 -57 25q-24 16 -32 16z" />
    <glyph glyph-name="Odieresis" unicode="&#xd6;" horiz-adv-x="796" 
d="M49 343q0 147 101 250.5t247 103.5q147 0 248.5 -103.5t101.5 -250.5t-101.5 -250t-248.5 -103t-247.5 103t-100.5 250zM142 343q0 -111 73.5 -187t181.5 -76t182 76t74 187t-74 187.5t-182 76.5t-181.5 -76.5t-73.5 -187.5zM251 852q0 26 17.5 42.5t44.5 16.5
q25 0 43 -16.5t18 -42.5t-18 -42.5t-43 -16.5q-27 0 -44.5 16.5t-17.5 42.5zM420 852q0 26 17.5 42.5t44.5 16.5t44.5 -16.5t17.5 -42.5t-17.5 -42.5t-44.5 -16.5t-44.5 16.5t-17.5 42.5z" />
    <glyph glyph-name="multiply" unicode="&#xd7;" horiz-adv-x="497" 
d="M188 273l-125 124l62 60l123 -123l126 125l60 -63l-124 -123l124 -124l-60 -63l-126 125l-123 -123l-62 60z" />
    <glyph glyph-name="Oslash" unicode="&#xd8;" horiz-adv-x="795" 
d="M178 66l-80 -82l-47 47l80 82q-83 101 -83 230q0 147 101 250.5t247 103.5q129 0 224 -81l79 81l47 -46l-80 -82q80 -99 80 -226q0 -147 -101.5 -250t-248.5 -103q-123 0 -218 76zM141 343q0 -95 54 -164l361 371q-70 57 -160 57q-108 0 -181.5 -76.5t-73.5 -187.5z
M396 80q108 0 182 76t74 187q0 89 -51 159l-359 -370q68 -52 154 -52z" />
    <glyph glyph-name="Ugrave" unicode="&#xd9;" horiz-adv-x="678" 
d="M339 80q66 0 112 43.5t46 113.5v452h94v-452q0 -109 -74 -178t-178 -69q-106 0 -179 68.5t-73 178.5v452h94v-452q0 -70 46 -113.5t112 -43.5zM314 776l-119 154h109l97 -154h-87z" />
    <glyph glyph-name="Uacute" unicode="&#xda;" horiz-adv-x="678" 
d="M339 80q66 0 112 43.5t46 113.5v452h94v-452q0 -109 -74 -178t-178 -69q-106 0 -179 68.5t-73 178.5v452h94v-452q0 -70 46 -113.5t112 -43.5zM473 930l-119 -154h-87l97 154h109z" />
    <glyph glyph-name="Ucircumflex" unicode="&#xdb;" horiz-adv-x="678" 
d="M339 80q66 0 112 43.5t46 113.5v452h94v-452q0 -109 -74 -178t-178 -69q-106 0 -179 68.5t-73 178.5v452h94v-452q0 -70 46 -113.5t112 -43.5zM413 776l-75 87l-74 -87h-82l110 154h93l110 -154h-82z" />
    <glyph glyph-name="Udieresis" unicode="&#xdc;" horiz-adv-x="678" 
d="M339 80q66 0 112 43.5t46 113.5v452h94v-452q0 -109 -74 -178t-178 -69q-106 0 -179 68.5t-73 178.5v452h94v-452q0 -70 46 -113.5t112 -43.5zM192 852q0 26 17.5 42.5t44.5 16.5q25 0 43 -16.5t18 -42.5t-18 -42.5t-43 -16.5q-27 0 -44.5 16.5t-17.5 42.5zM361 852
q0 26 17.5 42.5t44.5 16.5t44.5 -16.5t17.5 -42.5t-17.5 -42.5t-44.5 -16.5t-44.5 16.5t-17.5 42.5z" />
    <glyph glyph-name="Yacute" unicode="&#xdd;" horiz-adv-x="628" 
d="M362 0h-96v317l-261 372h111l198 -279l200 279h112l-264 -372v-317zM459 930l-119 -154h-87l97 154h109z" />
    <glyph glyph-name="Thorn" unicode="&#xde;" horiz-adv-x="572" 
d="M327 138h-140v-138h-93v689h93v-123h140q90 0 150.5 -58.5t60.5 -153.5q0 -96 -60.5 -156t-150.5 -60zM187 228h140q51 0 85 35t34 91t-36 88t-91 36l-132 1v-251z" />
    <glyph glyph-name="germandbls" unicode="&#xdf;" horiz-adv-x="796" 
d="M743 385q12 -104 -30 -195t-126 -145.5t-189 -54.5t-189.5 54.5t-127 145.5t-30.5 195h598q-12 78 -62 134.5t-114.5 77.5t-137.5 3t-127 -78l-71 58q46 54 108 83.5t125.5 33.5t127 -15.5t114.5 -58.5t86.5 -101t44.5 -137zM649 301h-503q15 -105 87 -162t165 -57
q92 0 164 57t87 162z" />
    <glyph glyph-name="germandbls" unicode="&#x42f;" horiz-adv-x="796" 
d="M743 385q12 -104 -30 -195t-126 -145.5t-189 -54.5t-189.5 54.5t-127 145.5t-30.5 195h598q-12 78 -62 134.5t-114.5 77.5t-137.5 3t-127 -78l-71 58q46 54 108 83.5t125.5 33.5t127 -15.5t114.5 -58.5t86.5 -101t44.5 -137zM649 301h-503q15 -105 87 -162t165 -57
q92 0 164 57t87 162z" />
    <glyph glyph-name="germandbls" unicode="&#x18f;" horiz-adv-x="796" 
d="M743 385q12 -104 -30 -195t-126 -145.5t-189 -54.5t-189.5 54.5t-127 145.5t-30.5 195h598q-12 78 -62 134.5t-114.5 77.5t-137.5 3t-127 -78l-71 58q46 54 108 83.5t125.5 33.5t127 -15.5t114.5 -58.5t86.5 -101t44.5 -137zM649 301h-503q15 -105 87 -162t165 -57
q92 0 164 57t87 162z" />
    <glyph glyph-name="agrave" unicode="&#xe0;" horiz-adv-x="612" 
d="M446 0v72q-23 -38 -68.5 -60t-95.5 -22q-99 0 -168 68t-69 176q0 109 69 176t168 67q51 0 96 -21t68 -59v70h90v-467h-90zM445 235q0 71 -46.5 112t-108.5 41q-64 0 -108 -42.5t-44 -110.5t44 -112t108 -44q65 0 110 42t45 114zM286 554l-119 154h109l97 -154h-87z" />
    <glyph glyph-name="aacute" unicode="&#xe1;" horiz-adv-x="612" 
d="M446 0v72q-23 -38 -68.5 -60t-95.5 -22q-99 0 -168 68t-69 176q0 109 69 176t168 67q51 0 96 -21t68 -59v70h90v-467h-90zM445 235q0 71 -46.5 112t-108.5 41q-64 0 -108 -42.5t-44 -110.5t44 -112t108 -44q65 0 110 42t45 114zM428 708l-119 -154h-87l97 154h109z" />
    <glyph glyph-name="acircumflex" unicode="&#xe2;" horiz-adv-x="612" 
d="M446 0v72q-23 -38 -68.5 -60t-95.5 -22q-99 0 -168 68t-69 176q0 109 69 176t168 67q51 0 96 -21t68 -59v70h90v-467h-90zM445 235q0 71 -46.5 112t-108.5 41q-64 0 -108 -42.5t-44 -110.5t44 -112t108 -44q65 0 110 42t45 114zM363 554l-75 87l-74 -87h-82l110 154h93
l110 -154h-82z" />
    <glyph glyph-name="atilde" unicode="&#xe3;" horiz-adv-x="612" 
d="M446 0v72q-23 -38 -68.5 -60t-95.5 -22q-99 0 -168 68t-69 176q0 109 69 176t168 67q51 0 96 -21t68 -59v70h90v-467h-90zM445 235q0 71 -46.5 112t-108.5 41q-64 0 -108 -42.5t-44 -110.5t44 -112t108 -44q65 0 110 42t45 114zM260 610q-10 0 -18 -11t-9 -33h-61
q3 61 28.5 89t59.5 28q25 0 58 -24q21 -17 31 -17t18.5 9.5t9.5 31.5h61q-3 -60 -29 -87t-60 -27q-23 0 -57 25q-24 16 -32 16z" />
    <glyph glyph-name="adieresis" unicode="&#xe4;" horiz-adv-x="612" 
d="M446 0v72q-23 -38 -68.5 -60t-95.5 -22q-99 0 -168 68t-69 176q0 109 69 176t168 67q51 0 96 -21t68 -59v70h90v-467h-90zM445 235q0 71 -46.5 112t-108.5 41q-64 0 -108 -42.5t-44 -110.5t44 -112t108 -44q65 0 110 42t45 114zM144 630q0 26 17.5 42.5t44.5 16.5
q25 0 43 -16.5t18 -42.5t-18 -42.5t-43 -16.5q-27 0 -44.5 16.5t-17.5 42.5zM313 630q0 26 17.5 42.5t44.5 16.5t44.5 -16.5t17.5 -42.5t-17.5 -42.5t-44.5 -16.5t-44.5 16.5t-17.5 42.5z" />
    <glyph glyph-name="aring" unicode="&#xe5;" horiz-adv-x="612" 
d="M446 0v72q-23 -38 -68.5 -60t-95.5 -22q-99 0 -168 68t-69 176q0 109 69 176t168 67q51 0 96 -21t68 -59v70h90v-467h-90zM445 235q0 71 -46.5 112t-108.5 41q-64 0 -108 -42.5t-44 -110.5t44 -112t108 -44q65 0 110 42t45 114zM185 645q0 45 30 75.5t74 30.5
q45 0 76 -30.5t31 -75.5q0 -44 -31 -74t-76 -30q-44 0 -74 30t-30 74zM238 645q0 -21 15 -36t36 -15q23 0 38.5 15t15.5 36q0 23 -15.5 38t-38.5 15q-21 0 -36 -15t-15 -38z" />
    <glyph glyph-name="ae" unicode="&#xe6;" horiz-adv-x="957" 
d="M536 467v-38q62 48 149 48q101 0 166.5 -66.5t65.5 -175.5q0 -25 -1 -36h-379q8 -59 49 -93t102 -34q43 0 78.5 18.5t55.5 53.5q12 -6 39 -15.5t39 -14.5q-29 -60 -86.5 -92t-128.5 -32q-88 0 -149 49v-39h-90v72q-23 -38 -68.5 -60t-95.5 -22q-99 0 -168 68t-69 176
q0 109 69 176t168 67q51 0 96 -21t68 -59v70h90zM445 235q0 71 -46.5 112t-108.5 41q-64 0 -108 -42.5t-44 -110.5t44 -112t108 -44q65 0 110 42t45 114zM537 270h290q-8 59 -46 92t-96 33q-59 0 -99.5 -33.5t-48.5 -91.5z" />
    <glyph glyph-name="ccedilla" unicode="&#xe7;" horiz-adv-x="512" 
d="M316 -8l29 -54q8 -17 8 -42q0 -30 -16.5 -54.5t-46.5 -37.5q-19 -8 -39 -8q-29 0 -53 17t-37 47q-10 21 -10 49l64 -4v-8q0 -8 3 -14q7 -15 21 -21.5t29 -1.5q15 7 20.5 22t-0.5 31l-29 79q-91 10 -152.5 77t-61.5 166q0 108 72 175t175 67q111 0 180 -75l-69 -58
q-44 44 -111 44q-65 0 -111 -42.5t-46 -110.5t46 -112.5t111 -44.5q67 0 111 46l70 -58q-60 -66 -157 -74z" />
    <glyph glyph-name="egrave" unicode="&#xe8;" horiz-adv-x="556" 
d="M136 270h290q-8 59 -46 92t-96 33q-59 0 -99.5 -33.5t-48.5 -91.5zM516 235q0 -25 -1 -36h-379q8 -59 49 -93t102 -34q43 0 78.5 18.5t55.5 53.5q12 -6 39 -15.5t39 -14.5q-29 -60 -86.5 -92t-128.5 -32q-102 0 -170.5 68t-68.5 177t68.5 175.5t170.5 66.5
q101 0 166.5 -66.5t65.5 -175.5zM247 554l-119 154h109l97 -154h-87z" />
    <glyph glyph-name="eacute" unicode="&#xe9;" horiz-adv-x="556" 
d="M136 270h290q-8 59 -46 92t-96 33q-59 0 -99.5 -33.5t-48.5 -91.5zM516 235q0 -25 -1 -36h-379q8 -59 49 -93t102 -34q43 0 78.5 18.5t55.5 53.5q12 -6 39 -15.5t39 -14.5q-29 -60 -86.5 -92t-128.5 -32q-102 0 -170.5 68t-68.5 177t68.5 175.5t170.5 66.5
q101 0 166.5 -66.5t65.5 -175.5zM423 708l-119 -154h-87l97 154h109z" />
    <glyph glyph-name="ecircumflex" unicode="&#xea;" horiz-adv-x="556" 
d="M136 270h290q-8 59 -46 92t-96 33q-59 0 -99.5 -33.5t-48.5 -91.5zM516 235q0 -25 -1 -36h-379q8 -59 49 -93t102 -34q43 0 78.5 18.5t55.5 53.5q12 -6 39 -15.5t39 -14.5q-29 -60 -86.5 -92t-128.5 -32q-102 0 -170.5 68t-68.5 177t68.5 175.5t170.5 66.5
q101 0 166.5 -66.5t65.5 -175.5zM355 554l-75 87l-74 -87h-82l110 154h93l110 -154h-82z" />
    <glyph glyph-name="edieresis" unicode="&#xeb;" horiz-adv-x="556" 
d="M136 270h290q-8 59 -46 92t-96 33q-59 0 -99.5 -33.5t-48.5 -91.5zM516 235q0 -25 -1 -36h-379q8 -59 49 -93t102 -34q43 0 78.5 18.5t55.5 53.5q12 -6 39 -15.5t39 -14.5q-29 -60 -86.5 -92t-128.5 -32q-102 0 -170.5 68t-68.5 177t68.5 175.5t170.5 66.5
q101 0 166.5 -66.5t65.5 -175.5zM134 630q0 26 17.5 42.5t44.5 16.5q25 0 43 -16.5t18 -42.5t-18 -42.5t-43 -16.5q-27 0 -44.5 16.5t-17.5 42.5zM303 630q0 26 17.5 42.5t44.5 16.5t44.5 -16.5t17.5 -42.5t-17.5 -42.5t-44.5 -16.5t-44.5 16.5t-17.5 42.5z" />
    <glyph glyph-name="igrave" unicode="&#xec;" horiz-adv-x="241" 
d="M165 467v-467h-89v467h89zM77 554l-119 154h109l97 -154h-87z" />
    <glyph glyph-name="iacute" unicode="&#xed;" horiz-adv-x="241" 
d="M165 467v-467h-89v467h89zM281 708l-119 -154h-87l97 154h109z" />
    <glyph glyph-name="icircumflex" unicode="&#xee;" horiz-adv-x="241" 
d="M165 467v-467h-89v467h89zM200 554l-75 87l-74 -87h-82l110 154h93l110 -154h-82z" />
    <glyph glyph-name="idieresis" unicode="&#xef;" horiz-adv-x="241" 
d="M165 467v-467h-89v467h89zM-21 630q0 26 17.5 42.5t44.5 16.5q25 0 43 -16.5t18 -42.5t-18 -42.5t-43 -16.5q-27 0 -44.5 16.5t-17.5 42.5zM148 630q0 26 17.5 42.5t44.5 16.5t44.5 -16.5t17.5 -42.5t-17.5 -42.5t-44.5 -16.5t-44.5 16.5t-17.5 42.5z" />
    <glyph glyph-name="eth" unicode="&#xf0;" horiz-adv-x="578" 
d="M276 640l65 40l36 -42l-62 -42l171 -215q46 -63 46 -146q0 -108 -71 -176.5t-172 -68.5q-102 0 -173 68.5t-71 176.5q0 107 69.5 174.5t166.5 67.5q20 0 36 -10l-74 83l-85 -53l-32 47l80 50l-75 95h105zM289 76q66 0 112 44.5t46 114.5t-46 113t-112 43
q-67 0 -112.5 -43t-45.5 -113t46 -114.5t112 -44.5z" />
    <glyph glyph-name="ntilde" unicode="&#xf1;" horiz-adv-x="563" 
d="M167 252v-252h-91v467h91v-70q19 39 61 59.5t85 20.5q87 0 133.5 -54t46.5 -153v-270h-91v264q0 59 -27.5 91.5t-75.5 32.5q-55 0 -93.5 -33.5t-38.5 -102.5zM237 610q-10 0 -18 -11t-9 -33h-61q3 61 28.5 89t59.5 28q25 0 58 -24q21 -17 31 -17t18.5 9.5t9.5 31.5h61
q-3 -60 -29 -87t-60 -27q-23 0 -57 25q-24 16 -32 16z" />
    <glyph glyph-name="ograve" unicode="&#xf2;" horiz-adv-x="579" 
d="M289 -10q-102 0 -173 68t-71 177q0 108 70.5 175t173.5 67t174 -67t71 -175t-71.5 -176.5t-173.5 -68.5zM289 78q64 0 109 43.5t45 113.5q0 69 -45 111t-109 42q-65 0 -109.5 -42t-44.5 -111q0 -70 44.5 -113.5t109.5 -43.5zM253 554l-119 154h109l97 -154h-87z" />
    <glyph glyph-name="oacute" unicode="&#xf3;" horiz-adv-x="579" 
d="M289 -10q-102 0 -173 68t-71 177q0 108 70.5 175t173.5 67t174 -67t71 -175t-71.5 -176.5t-173.5 -68.5zM289 78q64 0 109 43.5t45 113.5q0 69 -45 111t-109 42q-65 0 -109.5 -42t-44.5 -111q0 -70 44.5 -113.5t109.5 -43.5zM436 708l-119 -154h-87l97 154h109z" />
    <glyph glyph-name="ocircumflex" unicode="&#xf4;" horiz-adv-x="579" 
d="M289 -10q-102 0 -173 68t-71 177q0 108 70.5 175t173.5 67t174 -67t71 -175t-71.5 -176.5t-173.5 -68.5zM289 78q64 0 109 43.5t45 113.5q0 69 -45 111t-109 42q-65 0 -109.5 -42t-44.5 -111q0 -70 44.5 -113.5t109.5 -43.5zM364 554l-75 87l-74 -87h-82l110 154h93
l110 -154h-82z" />
    <glyph glyph-name="otilde" unicode="&#xf5;" horiz-adv-x="579" 
d="M289 -10q-102 0 -173 68t-71 177q0 108 70.5 175t173.5 67t174 -67t71 -175t-71.5 -176.5t-173.5 -68.5zM289 78q64 0 109 43.5t45 113.5q0 69 -45 111t-109 42q-65 0 -109.5 -42t-44.5 -111q0 -70 44.5 -113.5t109.5 -43.5zM244 610q-10 0 -18 -11t-9 -33h-61
q3 61 28.5 89t59.5 28q25 0 58 -24q21 -17 31 -17t18.5 9.5t9.5 31.5h61q-3 -60 -29 -87t-60 -27q-23 0 -57 25q-24 16 -32 16z" />
    <glyph glyph-name="odieresis" unicode="&#xf6;" horiz-adv-x="579" 
d="M289 -10q-102 0 -173 68t-71 177q0 108 70.5 175t173.5 67t174 -67t71 -175t-71.5 -176.5t-173.5 -68.5zM289 78q64 0 109 43.5t45 113.5q0 69 -45 111t-109 42q-65 0 -109.5 -42t-44.5 -111q0 -70 44.5 -113.5t109.5 -43.5zM143 630q0 26 17.5 42.5t44.5 16.5
q25 0 43 -16.5t18 -42.5t-18 -42.5t-43 -16.5q-27 0 -44.5 16.5t-17.5 42.5zM312 630q0 26 17.5 42.5t44.5 16.5t44.5 -16.5t17.5 -42.5t-17.5 -42.5t-44.5 -16.5t-44.5 16.5t-17.5 42.5z" />
    <glyph glyph-name="divide" unicode="&#xf7;" horiz-adv-x="537" 
d="M203 90q0 27 19 45t46 18t46.5 -18t19.5 -45t-19.5 -44.5t-46.5 -17.5t-46 17.5t-19 44.5zM203 424q0 27 19 44.5t46 17.5t46.5 -17.5t19.5 -44.5t-19.5 -45t-46.5 -18t-46 18t-19 45zM474 214h-411v83h411v-83z" />
    <glyph glyph-name="oslash" unicode="&#xf8;" horiz-adv-x="577" 
d="M144 33l-57 -58l-47 47l56 57q-52 65 -52 156q0 108 70.5 175t173.5 67q85 0 150 -47l50 51l47 -46l-50 -51q48 -62 48 -149q0 -108 -71.5 -176.5t-173.5 -68.5q-83 0 -144 43zM288 388q-65 0 -109.5 -42t-44.5 -111q0 -53 25 -90l215 219q-38 24 -86 24zM288 78
q64 0 109 43.5t45 113.5q0 43 -22 82l-212 -218q35 -21 80 -21z" />
    <glyph glyph-name="ugrave" unicode="&#xf9;" horiz-adv-x="562" 
d="M259 554l-119 154h109l97 -154h-87zM395 215v252h91v-467h-91v70q-20 -39 -61.5 -59.5t-83.5 -20.5q-88 0 -134.5 54t-45.5 153v270h91v-264q0 -59 27 -91.5t75 -32.5q56 0 94 33t38 103z" />
    <glyph glyph-name="uacute" unicode="&#xfa;" horiz-adv-x="562" 
d="M434 708l-119 -154h-87l97 154h109zM395 215v252h91v-467h-91v70q-20 -39 -61.5 -59.5t-83.5 -20.5q-88 0 -134.5 54t-45.5 153v270h91v-264q0 -59 27 -91.5t75 -32.5q56 0 94 33t38 103z" />
    <glyph glyph-name="ucircumflex" unicode="&#xfb;" horiz-adv-x="562" 
d="M346 554l-75 87l-74 -87h-82l110 154h93l110 -154h-82zM395 215v252h91v-467h-91v70q-20 -39 -61.5 -59.5t-83.5 -20.5q-88 0 -134.5 54t-45.5 153v270h91v-264q0 -59 27 -91.5t75 -32.5q56 0 94 33t38 103z" />
    <glyph glyph-name="udieresis" unicode="&#xfc;" horiz-adv-x="562" 
d="M141 630q0 26 17.5 42.5t44.5 16.5q25 0 43 -16.5t18 -42.5t-18 -42.5t-43 -16.5q-27 0 -44.5 16.5t-17.5 42.5zM310 630q0 26 17.5 42.5t44.5 16.5t44.5 -16.5t17.5 -42.5t-17.5 -42.5t-44.5 -16.5t-44.5 16.5t-17.5 42.5zM395 215v252h91v-467h-91v70
q-20 -39 -61.5 -59.5t-83.5 -20.5q-88 0 -134.5 54t-45.5 153v270h91v-264q0 -59 27 -91.5t75 -32.5q56 0 94 33t38 103z" />
    <glyph glyph-name="yacute" unicode="&#xfd;" horiz-adv-x="509" 
d="M202 -227h-95l98 241l-187 453h97l140 -338l140 338h97zM384 708l-119 -154h-87l97 154h109z" />
    <glyph glyph-name="thorn" unicode="&#xfe;" horiz-adv-x="602" 
d="M76 -213v933h91v-311q24 33 65 50t87 17q102 0 170 -66.5t68 -175.5q0 -108 -68 -176t-170 -68q-46 0 -87 18t-65 51v-272h-91zM467 234q0 68 -42 109.5t-106 41.5q-60 0 -106 -40.5t-46 -110.5q0 -72 43.5 -113t108.5 -41q63 0 105.5 43.5t42.5 110.5z" />
    <glyph glyph-name="ydieresis" unicode="&#xff;" horiz-adv-x="556" 
d="M424 196h-290q8 -59 46 -92t96 -33q59 0 99.5 33.5t48.5 91.5zM44 231q0 25 1 36h379q-8 59 -49 93t-102 34q-43 0 -78.5 -18.5t-55.5 -53.5q-12 6 -39 15.5t-39 14.5q29 60 86.5 92t128.5 32q102 0 170.5 -68t68.5 -177t-68.5 -175.5t-170.5 -66.5q-101 0 -166.5 66.5
t-65.5 175.5z" />
    <glyph glyph-name="ydieresis" unicode="&#x44f;" horiz-adv-x="556" 
d="M424 196h-290q8 -59 46 -92t96 -33q59 0 99.5 33.5t48.5 91.5zM44 231q0 25 1 36h379q-8 59 -49 93t-102 34q-43 0 -78.5 -18.5t-55.5 -53.5q-12 6 -39 15.5t-39 14.5q29 60 86.5 92t128.5 32q102 0 170.5 -68t68.5 -177t-68.5 -175.5t-170.5 -66.5q-101 0 -166.5 66.5
t-65.5 175.5z" />
    <glyph glyph-name="ydieresis" unicode="&#x259;" horiz-adv-x="556" 
d="M424 196h-290q8 -59 46 -92t96 -33q59 0 99.5 33.5t48.5 91.5zM44 231q0 25 1 36h379q-8 59 -49 93t-102 34q-43 0 -78.5 -18.5t-55.5 -53.5q-12 6 -39 15.5t-39 14.5q29 60 86.5 92t128.5 32q102 0 170.5 -68t68.5 -177t-68.5 -175.5t-170.5 -66.5q-101 0 -166.5 66.5
t-65.5 175.5z" />
    <glyph glyph-name="Amacron" unicode="&#x100;" horiz-adv-x="645" 
d="M209 259h228l-114 306zM469 175h-292l-67 -175h-99l262 689h100l261 -689h-98zM196 882h252v-80h-252v80z" />
    <glyph glyph-name="amacron" unicode="&#x101;" horiz-adv-x="612" 
d="M446 0v72q-23 -38 -68.5 -60t-95.5 -22q-99 0 -168 68t-69 176q0 109 69 176t168 67q51 0 96 -21t68 -59v70h90v-467h-90zM445 235q0 71 -46.5 112t-108.5 41q-64 0 -108 -42.5t-44 -110.5t44 -112t108 -44q65 0 110 42t45 114zM179 660h252v-80h-252v80z" />
    <glyph glyph-name="Abreve" unicode="&#x102;" horiz-adv-x="645" 
d="M209 259h228l-114 306zM469 175h-292l-67 -175h-99l262 689h100l261 -689h-98zM192 905h74q0 -27 15 -43t41 -16q25 0 40 18t15 41h76q0 -60 -35.5 -94t-95.5 -34q-65 0 -97.5 36.5t-32.5 91.5z" />
    <glyph glyph-name="abreve" unicode="&#x103;" horiz-adv-x="612" 
d="M446 0v72q-23 -38 -68.5 -60t-95.5 -22q-99 0 -168 68t-69 176q0 109 69 176t168 67q51 0 96 -21t68 -59v70h90v-467h-90zM445 235q0 71 -46.5 112t-108.5 41q-64 0 -108 -42.5t-44 -110.5t44 -112t108 -44q65 0 110 42t45 114zM175 683h74q0 -27 15 -43t41 -16
q25 0 40 18t15 41h76q0 -60 -35.5 -94t-95.5 -34q-65 0 -97.5 36.5t-32.5 91.5z" />
    <glyph glyph-name="Aogonek" unicode="&#x104;" horiz-adv-x="645" 
d="M209 259h228l-114 306zM535 1l-66 174h-292l-67 -175h-99l262 689h100l261 -689h-44l-31 -87q-6 -16 -0.5 -31t20.5 -22q15 -5 29 1.5t21 21.5q3 6 3 14v8l64 4q0 -28 -10 -49q-13 -30 -37 -47t-53 -17q-20 0 -39 8q-30 13 -46.5 37.5t-16.5 54.5q0 25 8 42z" />
    <glyph glyph-name="aogonek" unicode="&#x105;" horiz-adv-x="612" 
d="M539 -117q3 6 3 14v8l64 4q0 -28 -10 -49q-13 -30 -37 -47t-53 -17q-20 0 -39 8q-30 13 -46.5 37.5t-16.5 54.5q0 25 8 42l34 63v71q-23 -38 -68.5 -60t-95.5 -22q-99 0 -168 68t-69 176q0 109 69 176t168 67q51 0 96 -21t68 -59v70h90v-467h-36l-31 -87q-6 -16 -0.5 -31
t20.5 -22q15 -5 29 1.5t21 21.5zM445 235q0 71 -46.5 112t-108.5 41q-64 0 -108 -42.5t-44 -110.5t44 -112t108 -44q65 0 110 42t45 114z" />
    <glyph glyph-name="Cacute" unicode="&#x106;" horiz-adv-x="683" 
d="M589 168l70 -59q-47 -56 -114.5 -87.5t-146.5 -31.5q-146 0 -247.5 103t-101.5 250t101.5 250.5t247.5 103.5q160 0 259 -117l-70 -58q-78 85 -189 85q-108 0 -182 -76.5t-74 -187.5t74 -187t182 -76q116 0 191 88zM535 930l-119 -154h-87l97 154h109z" />
    <glyph glyph-name="cacute" unicode="&#x107;" horiz-adv-x="512" 
d="M45 235q0 108 72 175t175 67q111 0 180 -75l-69 -58q-44 44 -111 44q-65 0 -111 -42.5t-46 -110.5t46 -112.5t111 -44.5q67 0 111 46l70 -58q-70 -76 -181 -76q-103 0 -175 68.5t-72 176.5zM420 708l-119 -154h-87l97 154h109z" />
    <glyph glyph-name="Ccircumflex" unicode="&#x108;" horiz-adv-x="683" 
d="M589 168l70 -59q-47 -56 -114.5 -87.5t-146.5 -31.5q-146 0 -247.5 103t-101.5 250t101.5 250.5t247.5 103.5q160 0 259 -117l-70 -58q-78 85 -189 85q-108 0 -182 -76.5t-74 -187.5t74 -187t182 -76q116 0 191 88zM471 776l-75 87l-74 -87h-82l110 154h93l110 -154h-82z
" />
    <glyph glyph-name="ccircumflex" unicode="&#x109;" horiz-adv-x="512" 
d="M45 235q0 108 72 175t175 67q111 0 180 -75l-69 -58q-44 44 -111 44q-65 0 -111 -42.5t-46 -110.5t46 -112.5t111 -44.5q67 0 111 46l70 -58q-70 -76 -181 -76q-103 0 -175 68.5t-72 176.5zM363 554l-75 87l-74 -87h-82l110 154h93l110 -154h-82z" />
    <glyph glyph-name="Cdotaccent" unicode="&#x10a;" horiz-adv-x="683" 
d="M589 168l70 -59q-47 -56 -114.5 -87.5t-146.5 -31.5q-146 0 -247.5 103t-101.5 250t101.5 250.5t247.5 103.5q160 0 259 -117l-70 -58q-78 85 -189 85q-108 0 -182 -76.5t-74 -187.5t74 -187t182 -76q116 0 191 88zM318 861q0 26 18 42.5t45 16.5t45 -16.5t18 -42.5
t-18 -42.5t-45 -16.5t-45 16.5t-18 42.5z" />
    <glyph glyph-name="cdotaccent" unicode="&#x10b;" horiz-adv-x="512" 
d="M45 235q0 108 72 175t175 67q111 0 180 -75l-69 -58q-44 44 -111 44q-65 0 -111 -42.5t-46 -110.5t46 -112.5t111 -44.5q67 0 111 46l70 -58q-70 -76 -181 -76q-103 0 -175 68.5t-72 176.5zM225 639q0 26 18 42.5t45 16.5t45 -16.5t18 -42.5t-18 -42.5t-45 -16.5
t-45 16.5t-18 42.5z" />
    <glyph glyph-name="Ccaron" unicode="&#x10c;" horiz-adv-x="683" 
d="M589 168l70 -59q-47 -56 -114.5 -87.5t-146.5 -31.5q-146 0 -247.5 103t-101.5 250t101.5 250.5t247.5 103.5q160 0 259 -117l-70 -58q-78 85 -189 85q-108 0 -182 -76.5t-74 -187.5t74 -187t182 -76q116 0 191 88zM382 843l75 87h82l-110 -154h-93l-110 154h82z" />
    <glyph glyph-name="ccaron" unicode="&#x10d;" horiz-adv-x="512" 
d="M45 235q0 108 72 175t175 67q111 0 180 -75l-69 -58q-44 44 -111 44q-65 0 -111 -42.5t-46 -110.5t46 -112.5t111 -44.5q67 0 111 46l70 -58q-70 -76 -181 -76q-103 0 -175 68.5t-72 176.5zM279 621l75 87h82l-110 -154h-93l-110 154h82z" />
    <glyph glyph-name="Dcaron" unicode="&#x10e;" horiz-adv-x="724" 
d="M361 0h-267v689h267q143 0 226.5 -97.5t83.5 -248.5t-83 -247t-227 -96zM187 87h174q104 0 160.5 71.5t56.5 184.5q0 114 -56.5 186.5t-160.5 72.5h-174v-515zM374 843l75 87h82l-110 -154h-93l-110 154h82z" />
    <glyph glyph-name="dcaron" unicode="&#x10f;" horiz-adv-x="602" 
d="M526 705v-705h-88v61q-25 -34 -67 -52t-87 -18q-102 0 -170.5 67.5t-68.5 176.5t68.5 175t170.5 66q101 0 152 -66v295h90zM135 235q0 -67 42.5 -110.5t106.5 -43.5q63 0 107.5 41t44.5 113q0 70 -46.5 110.5t-105.5 40.5q-64 0 -106.5 -41.5t-42.5 -109.5zM626 496
l-58 19q30 41 41 77.5t5 96.5h90q0 -132 -78 -193z" />
    <glyph glyph-name="Dcroat" unicode="&#x110;" horiz-adv-x="724" 
d="M363 0h-263v311h-93v68h93v310h263q143 0 225 -97t82 -249q0 -151 -82 -247t-225 -96zM193 379h165v-68h-165v-219h170q103 0 158.5 69.5t55.5 181.5t-56 183t-158 71h-170v-218z" />
    <glyph glyph-name="dcroat" unicode="&#x111;" horiz-adv-x="612" 
d="M536 559v-1v-558h-91v72q-23 -38 -68.5 -60t-95.5 -22q-99 0 -167.5 68t-68.5 176q0 109 68 176t167 67q53 0 97.5 -20.5t67.5 -59.5v162h-150v62h150v100h91v-100h75v-62h-75zM444 235q0 71 -46.5 112t-108.5 41q-64 0 -107.5 -42.5t-43.5 -110.5t43.5 -112t107.5 -44
q65 0 110 42t45 114z" />
    <glyph glyph-name="Emacron" unicode="&#x112;" horiz-adv-x="565" 
d="M94 689h408v-87h-315v-220h275v-87h-275v-208h325v-87h-418v689zM175 882h252v-80h-252v80z" />
    <glyph glyph-name="emacron" unicode="&#x113;" horiz-adv-x="556" 
d="M136 270h290q-8 59 -46 92t-96 33q-59 0 -99.5 -33.5t-48.5 -91.5zM516 235q0 -25 -1 -36h-379q8 -59 49 -93t102 -34q43 0 78.5 18.5t55.5 53.5q12 -6 39 -15.5t39 -14.5q-29 -60 -86.5 -92t-128.5 -32q-102 0 -170.5 68t-68.5 177t68.5 175.5t170.5 66.5
q101 0 166.5 -66.5t65.5 -175.5zM154 660h252v-80h-252v80z" />
    <glyph glyph-name="Ebreve" unicode="&#x114;" horiz-adv-x="565" 
d="M94 689h408v-87h-315v-220h275v-87h-275v-208h325v-87h-418v689zM152 905h74q0 -27 15 -43t41 -16q25 0 40 18t15 41h76q0 -60 -35.5 -94t-95.5 -34q-65 0 -97.5 36.5t-32.5 91.5z" />
    <glyph glyph-name="ebreve" unicode="&#x115;" horiz-adv-x="556" 
d="M136 270h290q-8 59 -46 92t-96 33q-59 0 -99.5 -33.5t-48.5 -91.5zM516 235q0 -25 -1 -36h-379q8 -59 49 -93t102 -34q43 0 78.5 18.5t55.5 53.5q12 -6 39 -15.5t39 -14.5q-29 -60 -86.5 -92t-128.5 -32q-102 0 -170.5 68t-68.5 177t68.5 175.5t170.5 66.5
q101 0 166.5 -66.5t65.5 -175.5zM150 683h74q0 -27 15 -43t41 -16q25 0 40 18t15 41h76q0 -60 -35.5 -94t-95.5 -34q-65 0 -97.5 36.5t-32.5 91.5z" />
    <glyph glyph-name="Edotaccent" unicode="&#x116;" horiz-adv-x="565" 
d="M94 689h408v-87h-315v-220h275v-87h-275v-208h325v-87h-418v689zM242 861q0 26 18 42.5t45 16.5t45 -16.5t18 -42.5t-18 -42.5t-45 -16.5t-45 16.5t-18 42.5z" />
    <glyph glyph-name="edotaccent" unicode="&#x117;" horiz-adv-x="556" 
d="M136 270h290q-8 59 -46 92t-96 33q-59 0 -99.5 -33.5t-48.5 -91.5zM516 235q0 -25 -1 -36h-379q8 -59 49 -93t102 -34q43 0 78.5 18.5t55.5 53.5q12 -6 39 -15.5t39 -14.5q-29 -60 -86.5 -92t-128.5 -32q-102 0 -170.5 68t-68.5 177t68.5 175.5t170.5 66.5
q101 0 166.5 -66.5t65.5 -175.5zM222 639q0 26 18 42.5t45 16.5t45 -16.5t18 -42.5t-18 -42.5t-45 -16.5t-45 16.5t-18 42.5z" />
    <glyph glyph-name="Eogonek" unicode="&#x118;" horiz-adv-x="565" 
d="M507 0l-27 -76q-6 -16 -0.5 -31t20.5 -22q15 -5 29 1.5t21 21.5q3 6 3 14v8l64 4q0 -28 -10 -49q-13 -30 -37 -47t-53 -17q-20 0 -39 8q-30 13 -46.5 37.5t-16.5 54.5q0 25 8 42l27 51h-356v689h408v-87h-315v-220h275v-87h-275v-208h325v-87h-5z" />
    <glyph glyph-name="eogonek" unicode="&#x119;" horiz-adv-x="557" 
d="M379 -87q-6 -16 -0.5 -31t20.5 -22q15 -5 29 1.5t21 21.5q3 6 3 14v8l64 4q0 -28 -10 -49q-13 -30 -37 -47t-53 -17q-20 0 -39 8q-30 13 -46.5 37.5t-16.5 54.5q0 25 8 42l33 61q-35 -9 -71 -9q-102 0 -170.5 68t-68.5 177t68.5 175.5t170.5 66.5q101 0 166.5 -66.5
t65.5 -175.5q0 -25 -1 -36h-379q8 -59 49 -93t102 -34q43 0 78.5 18.5t55.5 53.5l78 -30q-5 -11 -28.5 -36t-48.5 -66t-43 -99zM136 270h290q-8 59 -46 92t-96 33q-59 0 -99.5 -33.5t-48.5 -91.5z" />
    <glyph glyph-name="Ecaron" unicode="&#x11a;" horiz-adv-x="565" 
d="M94 689h408v-87h-315v-220h275v-87h-275v-208h325v-87h-418v689zM282 843l75 87h82l-110 -154h-93l-110 154h82z" />
    <glyph glyph-name="ecaron" unicode="&#x11b;" horiz-adv-x="556" 
d="M136 270h290q-8 59 -46 92t-96 33q-59 0 -99.5 -33.5t-48.5 -91.5zM516 235q0 -25 -1 -36h-379q8 -59 49 -93t102 -34q43 0 78.5 18.5t55.5 53.5q12 -6 39 -15.5t39 -14.5q-29 -60 -86.5 -92t-128.5 -32q-102 0 -170.5 68t-68.5 177t68.5 175.5t170.5 66.5
q101 0 166.5 -66.5t65.5 -175.5zM280 621l75 87h82l-110 -154h-93l-110 154h82z" />
    <glyph glyph-name="Gcircumflex" unicode="&#x11c;" horiz-adv-x="756" 
d="M630 606l-67 -62q-72 64 -166 64q-107 0 -181 -77.5t-74 -187.5q0 -111 73.5 -187.5t181.5 -76.5q94 0 155 50.5t65 135.5h-196v81h302q0 -177 -86.5 -266.5t-239.5 -89.5q-147 0 -247.5 103t-100.5 250t101 250.5t247 103.5q135 0 233 -91zM456 776l-75 87l-74 -87h-82
l110 154h93l110 -154h-82z" />
    <glyph glyph-name="gcircumflex" unicode="&#x11d;" horiz-adv-x="611" 
d="M146 -67q20 -38 57.5 -59t77.5 -21q166 0 166 212q0 2 -0.5 5.5t-0.5 5.5q-21 -41 -66.5 -63.5t-97.5 -22.5q-99 0 -168 67t-69 175t69 176.5t168 68.5q50 0 95.5 -22t68.5 -61v73h90v-396q0 -304 -255 -304q-67 0 -122.5 32.5t-88.5 93.5q65 35 76 40zM445 233
q0 72 -45 113.5t-110 41.5q-64 0 -108 -44t-44 -111q0 -70 43.5 -112t108.5 -42q62 0 108.5 41.5t46.5 112.5zM380 554l-75 87l-74 -87h-82l110 154h93l110 -154h-82z" />
    <glyph glyph-name="Gbreve" unicode="&#x11e;" horiz-adv-x="756" 
d="M630 606l-67 -62q-72 64 -166 64q-107 0 -181 -77.5t-74 -187.5q0 -111 73.5 -187.5t181.5 -76.5q94 0 155 50.5t65 135.5h-196v81h302q0 -177 -86.5 -266.5t-239.5 -89.5q-147 0 -247.5 103t-100.5 250t101 250.5t247 103.5q135 0 233 -91zM251 905h74q0 -27 15 -43
t41 -16q25 0 40 18t15 41h76q0 -60 -35.5 -94t-95.5 -34q-65 0 -97.5 36.5t-32.5 91.5z" />
    <glyph glyph-name="gbreve" unicode="&#x11f;" horiz-adv-x="611" 
d="M146 -67q20 -38 57.5 -59t77.5 -21q166 0 166 212q0 2 -0.5 5.5t-0.5 5.5q-21 -41 -66.5 -63.5t-97.5 -22.5q-99 0 -168 67t-69 175t69 176.5t168 68.5q50 0 95.5 -22t68.5 -61v73h90v-396q0 -304 -255 -304q-67 0 -122.5 32.5t-88.5 93.5q65 35 76 40zM445 233
q0 72 -45 113.5t-110 41.5q-64 0 -108 -44t-44 -111q0 -70 43.5 -112t108.5 -42q62 0 108.5 41.5t46.5 112.5zM175 683h74q0 -27 15 -43t41 -16q25 0 40 18t15 41h76q0 -60 -35.5 -94t-95.5 -34q-65 0 -97.5 36.5t-32.5 91.5z" />
    <glyph glyph-name="Gdotaccent" unicode="&#x120;" horiz-adv-x="756" 
d="M630 606l-67 -62q-72 64 -166 64q-107 0 -181 -77.5t-74 -187.5q0 -111 73.5 -187.5t181.5 -76.5q94 0 155 50.5t65 135.5h-196v81h302q0 -177 -86.5 -266.5t-239.5 -89.5q-147 0 -247.5 103t-100.5 250t101 250.5t247 103.5q135 0 233 -91zM331 861q0 26 18 42.5
t45 16.5t45 -16.5t18 -42.5t-18 -42.5t-45 -16.5t-45 16.5t-18 42.5z" />
    <glyph glyph-name="gdotaccent" unicode="&#x121;" horiz-adv-x="611" 
d="M146 -67q20 -38 57.5 -59t77.5 -21q166 0 166 212q0 2 -0.5 5.5t-0.5 5.5q-21 -41 -66.5 -63.5t-97.5 -22.5q-99 0 -168 67t-69 175t69 176.5t168 68.5q50 0 95.5 -22t68.5 -61v73h90v-396q0 -304 -255 -304q-67 0 -122.5 32.5t-88.5 93.5q65 35 76 40zM445 233
q0 72 -45 113.5t-110 41.5q-64 0 -108 -44t-44 -111q0 -70 43.5 -112t108.5 -42q62 0 108.5 41.5t46.5 112.5zM242 639q0 26 18 42.5t45 16.5t45 -16.5t18 -42.5t-18 -42.5t-45 -16.5t-45 16.5t-18 42.5z" />
    <glyph glyph-name="Gcommaaccent" unicode="&#x122;" horiz-adv-x="756" 
d="M630 606l-67 -62q-72 64 -166 64q-107 0 -181 -77.5t-74 -187.5q0 -111 73.5 -187.5t181.5 -76.5q94 0 155 50.5t65 135.5h-196v81h302q0 -177 -86.5 -266.5t-239.5 -89.5q-147 0 -247.5 103t-100.5 250t101 250.5t247 103.5q135 0 233 -91zM371 -250l-58 19
q30 41 41 77.5t5 96.5h90q0 -132 -78 -193z" />
    <glyph glyph-name="gcommaaccent" unicode="&#x123;" horiz-adv-x="611" 
d="M146 -67q20 -38 57.5 -59t77.5 -21q166 0 166 212q0 2 -0.5 5.5t-0.5 5.5q-21 -41 -66.5 -63.5t-97.5 -22.5q-99 0 -168 67t-69 175t69 176.5t168 68.5q50 0 95.5 -22t68.5 -61v73h90v-396q0 -304 -255 -304q-67 0 -122.5 32.5t-88.5 93.5q65 35 76 40zM445 233
q0 72 -45 113.5t-110 41.5q-64 0 -108 -44t-44 -111q0 -70 43.5 -112t108.5 -42q62 0 108.5 41.5t46.5 112.5zM310 749l58 -19q-30 -43 -41 -79t-5 -95h-90q0 132 78 193z" />
    <glyph glyph-name="Hcircumflex" unicode="&#x124;" horiz-adv-x="708" 
d="M614 689v-689h-94v300h-333v-300h-93v689h93v-304h333v304h94zM428 776l-75 87l-74 -87h-82l110 154h93l110 -154h-82z" />
    <glyph glyph-name="hcircumflex" unicode="&#x125;" 
d="M167 252v-252h-91v721h91v-324q19 39 65 59.5t89 20.5q89 0 139.5 -54.5t49.5 -152.5v-270h-91v264q0 57 -30.5 90.5t-79.5 33.5q-56 0 -99 -33.5t-43 -102.5zM197 765l-75 87l-74 -87h-82l110 154h93l110 -154h-82z" />
    <glyph glyph-name="Hbar" unicode="&#x126;" horiz-adv-x="716" 
d="M617 564h70v-62h-70v-502h-93v298h-332v-298h-93v502h-69v62h69v125h93v-125h332v125h93v-125zM192 386h332v116h-332v-116z" />
    <glyph glyph-name="hbar" unicode="&#x127;" 
d="M167 559v-162q19 39 65 59.5t89 20.5q89 0 139.5 -54.5t49.5 -152.5v-270h-91v264q0 57 -30.5 90.5t-79.5 33.5q-56 0 -99 -33.5t-43 -102.5v-252h-91v559h-70v62h70v100h91v-100h130v-62h-130z" />
    <glyph glyph-name="Itilde" unicode="&#x128;" horiz-adv-x="281" 
d="M94 689h93v-689h-93v689zM96 832q-10 0 -18 -11t-9 -33h-61q3 61 28.5 89t59.5 28q25 0 58 -24q21 -17 31 -17t18.5 9.5t9.5 31.5h61q-3 -60 -29 -87t-60 -27q-23 0 -57 25q-24 16 -32 16z" />
    <glyph glyph-name="itilde" unicode="&#x129;" horiz-adv-x="241" 
d="M165 467v-467h-89v467h89zM80 610q-10 0 -18 -11t-9 -33h-61q3 61 28.5 89t59.5 28q25 0 58 -24q21 -17 31 -17t18.5 9.5t9.5 31.5h61q-3 -60 -29 -87t-60 -27q-23 0 -57 25q-24 16 -32 16z" />
    <glyph glyph-name="Imacron" unicode="&#x12a;" horiz-adv-x="281" 
d="M94 689h93v-689h-93v689zM15 882h252v-80h-252v80z" />
    <glyph glyph-name="imacron" unicode="&#x12b;" horiz-adv-x="241" 
d="M165 467v-467h-89v467h89zM-1 660h252v-80h-252v80z" />
    <glyph glyph-name="Ibreve" unicode="&#x12c;" horiz-adv-x="281" 
d="M94 689h93v-689h-93v689zM10 905h74q0 -27 15 -43t41 -16q25 0 40 18t15 41h76q0 -60 -35.5 -94t-95.5 -34q-65 0 -97.5 36.5t-32.5 91.5z" />
    <glyph glyph-name="ibreve" unicode="&#x12d;" horiz-adv-x="241" 
d="M165 467v-467h-89v467h89zM-5 683h74q0 -27 15 -43t41 -16q25 0 40 18t15 41h76q0 -60 -35.5 -94t-95.5 -34q-65 0 -97.5 36.5t-32.5 91.5z" />
    <glyph glyph-name="Iogonek" unicode="&#x12e;" horiz-adv-x="281" 
d="M148 0l-31 -87q-6 -16 -0.5 -31t20.5 -22q15 -5 29 1.5t21 21.5q3 6 3 14v8l64 4q0 -28 -10 -49q-13 -30 -37 -47t-53 -17q-20 0 -39 8q-30 13 -46.5 37.5t-16.5 54.5q0 25 8 42l34 63v688h93v-689h-39z" />
    <glyph glyph-name="iogonek" unicode="&#x12f;" horiz-adv-x="242" 
d="M131 0l-31 -87q-6 -16 -0.5 -31t20.5 -22q15 -5 29 1.5t21 21.5q3 6 3 14v8l64 4q0 -28 -10 -49q-13 -30 -37 -47t-53 -17q-20 0 -39 8q-30 13 -46.5 37.5t-16.5 54.5q0 25 8 42l33 62v467h90v-467h-35zM73 639q0 26 18 42.5t45 16.5t45 -16.5t18 -42.5t-18 -42.5
t-45 -16.5t-45 16.5t-18 42.5z" />
    <glyph glyph-name="Idotaccent" unicode="&#x130;" horiz-adv-x="281" 
d="M94 689h93v-689h-93v689zM78 861q0 26 18 42.5t45 16.5t45 -16.5t18 -42.5t-18 -42.5t-45 -16.5t-45 16.5t-18 42.5z" />
    <glyph glyph-name="dotlessi" unicode="&#x131;" horiz-adv-x="242" 
d="M166 467v-467h-90v467h90z" />
    <glyph glyph-name="IJ" unicode="&#x132;" horiz-adv-x="562" 
d="M94 689h93v-689h-93v689zM181 -240l9 88q24 -8 66 -8q61 0 90 37t29 96v716h93v-716q0 -99 -51.5 -161.5t-160.5 -62.5q-22 0 -75 11z" />
    <glyph glyph-name="ij" unicode="&#x133;" horiz-adv-x="486" 
d="M166 467v-467h-90v467h90zM58 639q0 26 18 42.5t45 16.5t45 -16.5t18 -42.5t-18 -42.5t-45 -16.5t-45 16.5t-18 42.5zM180 -229v85h54q51 0 67.5 32t16.5 84v495h92v-496q0 -200 -168 -200h-62zM301 639q0 26 18 42.5t45 16.5t45 -16.5t18 -42.5t-18 -42.5t-45 -16.5
t-45 16.5t-18 42.5z" />
    <glyph glyph-name="Jcircumflex" unicode="&#x134;" horiz-adv-x="281" 
d="M-100 -240l9 88q24 -8 66 -8q61 0 90 37t29 96v716h93v-716q0 -99 -51.5 -161.5t-160.5 -62.5q-22 0 -75 11zM208 776l-75 87l-74 -87h-82l110 154h93l110 -154h-82z" />
    <glyph glyph-name="jcircumflex" unicode="&#x135;" horiz-adv-x="244" 
d="M-62 -229v85h54q51 0 67.5 32t16.5 84v495h92v-496q0 -200 -168 -200h-62zM201 554l-75 87l-74 -87h-82l110 154h93l110 -154h-82z" />
    <glyph glyph-name="Kcommaaccent" unicode="&#x136;" horiz-adv-x="578" 
d="M301 -250l-58 19q30 41 41 77.5t5 96.5h90q0 -132 -78 -193zM265 345l320 -345h-125l-273 294v-294h-93v689h93v-298l228 298h115z" />
    <glyph glyph-name="kcommaaccent" unicode="&#x137;" horiz-adv-x="502" 
d="M166 228v-228h-90v721h90v-417l161 163h124l-200 -202l248 -265h-120zM247 -250l-58 19q30 41 41 77.5t5 96.5h90q0 -132 -78 -193z" />
    <glyph glyph-name="kgreenlandic" unicode="&#x138;" horiz-adv-x="494" 
d="M166 187v-187h-90v467h90v-187l178 187h119l-217 -231l238 -236h-126z" />
    <glyph glyph-name="Lacute" unicode="&#x139;" horiz-adv-x="495" 
d="M94 689h93v-602h281v-87h-374v689zM306 919l-119 -154h-87l97 154h109z" />
    <glyph glyph-name="lacute" unicode="&#x13a;" horiz-adv-x="243" 
d="M76 721h91v-721h-91v721zM283 931l-119 -154h-87l97 154h109z" />
    <glyph glyph-name="Lcommaaccent" unicode="&#x13b;" horiz-adv-x="495" 
d="M94 689h93v-602h281v-87h-374v689zM240 -250l-58 19q30 41 41 77.5t5 96.5h90q0 -132 -78 -193z" />
    <glyph glyph-name="lcommaaccent" unicode="&#x13c;" horiz-adv-x="243" 
d="M76 721h91v-721h-91v721zM89 -250l-58 19q30 41 41 77.5t5 96.5h90q0 -132 -78 -193z" />
    <glyph glyph-name="Lcaron" unicode="&#x13d;" horiz-adv-x="495" 
d="M94 689h93v-602h281v-87h-374v689zM311 496l-58 19q30 41 41 77.5t5 96.5h90q0 -132 -78 -193z" />
    <glyph glyph-name="lcaron" unicode="&#x13e;" horiz-adv-x="243" 
d="M76 721h91v-721h-91v721zM267 528l-58 19q30 41 41 77.5t5 96.5h90q0 -132 -78 -193z" />
    <glyph glyph-name="Ldot" unicode="&#x13f;" horiz-adv-x="495" 
d="M94 689h93v-602h281v-87h-374v689zM266 261q0 27 19 45t46 18t46.5 -18t19.5 -45t-19.5 -44.5t-46.5 -17.5t-46 17.5t-19 44.5z" />
    <glyph glyph-name="ldot" unicode="&#x140;" horiz-adv-x="337" 
d="M76 721h91v-721h-91v721zM223 261q0 27 19 45t46 18t46.5 -18t19.5 -45t-19.5 -44.5t-46.5 -17.5t-46 17.5t-19 44.5z" />
    <glyph glyph-name="Lslash" unicode="&#x141;" horiz-adv-x="499" 
d="M191 452l104 65v-66l-104 -65v-294h280v-92h-372v328l-65 -41v66l65 41v295h92v-237z" />
    <glyph glyph-name="lslash" unicode="&#x142;" horiz-adv-x="255" 
d="M174 721v-281l77 50v-64l-77 -50v-376h-90v319l-67 -43v64l67 43v338h90z" />
    <glyph glyph-name="Nacute" unicode="&#x143;" horiz-adv-x="684" 
d="M590 0h-89l-314 519v-519h-93v689h92l311 -515v515h93v-689zM475 930l-119 -154h-87l97 154h109z" />
    <glyph glyph-name="nacute" unicode="&#x144;" horiz-adv-x="563" 
d="M167 252v-252h-91v467h91v-70q19 39 61 59.5t85 20.5q87 0 133.5 -54t46.5 -153v-270h-91v264q0 59 -27.5 91.5t-75.5 32.5q-55 0 -93.5 -33.5t-38.5 -102.5zM423 708l-119 -154h-87l97 154h109z" />
    <glyph glyph-name="Ncommaaccent" unicode="&#x145;" horiz-adv-x="684" 
d="M590 0h-89l-314 519v-519h-93v689h92l311 -515v515h93v-689zM318 -250l-58 19q30 41 41 77.5t5 96.5h90q0 -132 -78 -193z" />
    <glyph glyph-name="ncommaaccent" unicode="&#x146;" horiz-adv-x="563" 
d="M167 252v-252h-91v467h91v-70q19 39 61 59.5t85 20.5q87 0 133.5 -54t46.5 -153v-270h-91v264q0 59 -27.5 91.5t-75.5 32.5q-55 0 -93.5 -33.5t-38.5 -102.5zM253 -250l-58 19q30 41 41 77.5t5 96.5h90q0 -132 -78 -193z" />
    <glyph glyph-name="Ncaron" unicode="&#x147;" horiz-adv-x="684" 
d="M590 0h-89l-314 519v-519h-93v689h92l311 -515v515h93v-689zM341 843l75 87h82l-110 -154h-93l-110 154h82z" />
    <glyph glyph-name="ncaron" unicode="&#x148;" horiz-adv-x="563" 
d="M167 252v-252h-91v467h91v-70q19 39 61 59.5t85 20.5q87 0 133.5 -54t46.5 -153v-270h-91v264q0 59 -27.5 91.5t-75.5 32.5q-55 0 -93.5 -33.5t-38.5 -102.5zM281 621l75 87h82l-110 -154h-93l-110 154h82z" />
    <glyph glyph-name="napostrophe" unicode="&#x149;" horiz-adv-x="563" 
d="M9 469l-65 19q48 67 52 114q2 24 -4 59h95q0 -130 -78 -192zM167 252v-252h-91v467h91v-70q19 39 61 59.5t85 20.5q87 0 133.5 -54t46.5 -153v-270h-91v264q0 59 -27.5 91.5t-75.5 32.5q-55 0 -93.5 -33.5t-38.5 -102.5z" />
    <glyph glyph-name="Eng" unicode="&#x14a;" horiz-adv-x="682" 
d="M495 -23v33l-309 505v-515h-92v689h91l310 -515v515h93v-685q0 -54 -9.5 -96t-31.5 -78.5t-65 -56.5t-105 -20q-40 0 -76 11l9 93q33 -9 55 -9q41 -4 68 12q62 27 62 117z" />
    <glyph glyph-name="eng" unicode="&#x14b;" horiz-adv-x="562" 
d="M493 270l-1 -256q0 -233 -207 -233q-27 0 -73 10l8 91q36 -12 65 -12q60 0 88.5 36.5t28.5 93.5v264q0 59 -27.5 91.5t-75.5 32.5q-55 0 -93.5 -33.5t-38.5 -102.5v-252h-91v467h91v-70q19 39 61 59.5t85 20.5q88 0 134.5 -54t45.5 -153z" />
    <glyph glyph-name="Omacron" unicode="&#x14c;" horiz-adv-x="796" 
d="M49 343q0 147 101 250.5t247 103.5q147 0 248.5 -103.5t101.5 -250.5t-101.5 -250t-248.5 -103t-247.5 103t-100.5 250zM142 343q0 -111 73.5 -187t181.5 -76t182 76t74 187t-74 187.5t-182 76.5t-181.5 -76.5t-73.5 -187.5zM272 882h252v-80h-252v80z" />
    <glyph glyph-name="omacron" unicode="&#x14d;" horiz-adv-x="579" 
d="M289 -10q-102 0 -173 68t-71 177q0 108 70.5 175t173.5 67t174 -67t71 -175t-71.5 -176.5t-173.5 -68.5zM289 78q64 0 109 43.5t45 113.5q0 69 -45 111t-109 42q-65 0 -109.5 -42t-44.5 -111q0 -70 44.5 -113.5t109.5 -43.5zM154 660h252v-80h-252v80z" />
    <glyph glyph-name="Obreve" unicode="&#x14e;" horiz-adv-x="796" 
d="M49 343q0 147 101 250.5t247 103.5q147 0 248.5 -103.5t101.5 -250.5t-101.5 -250t-248.5 -103t-247.5 103t-100.5 250zM142 343q0 -111 73.5 -187t181.5 -76t182 76t74 187t-74 187.5t-182 76.5t-181.5 -76.5t-73.5 -187.5zM267 905h74q0 -27 15 -43t41 -16q25 0 40 18
t15 41h76q0 -60 -35.5 -94t-95.5 -34q-65 0 -97.5 36.5t-32.5 91.5z" />
    <glyph glyph-name="obreve" unicode="&#x14f;" horiz-adv-x="579" 
d="M289 -10q-102 0 -173 68t-71 177q0 108 70.5 175t173.5 67t174 -67t71 -175t-71.5 -176.5t-173.5 -68.5zM289 78q64 0 109 43.5t45 113.5q0 69 -45 111t-109 42q-65 0 -109.5 -42t-44.5 -111q0 -70 44.5 -113.5t109.5 -43.5zM159 683h74q0 -27 15 -43t41 -16q25 0 40 18
t15 41h76q0 -60 -35.5 -94t-95.5 -34q-65 0 -97.5 36.5t-32.5 91.5z" />
    <glyph glyph-name="Ohungarumlaut" unicode="&#x150;" horiz-adv-x="796" 
d="M49 343q0 147 101 250.5t247 103.5q147 0 248.5 -103.5t101.5 -250.5t-101.5 -250t-248.5 -103t-247.5 103t-100.5 250zM142 343q0 -111 73.5 -187t181.5 -76t182 76t74 187t-74 187.5t-182 76.5t-181.5 -76.5t-73.5 -187.5zM453 930l-89 -154h-83l80 154h92zM597 930
l-102 -154h-81l89 154h94z" />
    <glyph glyph-name="ohungarumlaut" unicode="&#x151;" horiz-adv-x="579" 
d="M289 -10q-102 0 -173 68t-71 177q0 108 70.5 175t173.5 67t174 -67t71 -175t-71.5 -176.5t-173.5 -68.5zM289 78q64 0 109 43.5t45 113.5q0 69 -45 111t-109 42q-65 0 -109.5 -42t-44.5 -111q0 -70 44.5 -113.5t109.5 -43.5zM329 708l-89 -154h-83l80 154h92zM473 708
l-102 -154h-81l89 154h94z" />
    <glyph glyph-name="OE" unicode="&#x152;" horiz-adv-x="1120" 
d="M650 689h406v-92h-313v-213h274v-92h-274v-200h324v-92h-417v108q-46 -55 -112 -86.5t-142 -31.5q-146 0 -246 102.5t-100 250.5q0 147 100 250.5t246 103.5q76 0 142 -32t112 -87v111zM143 343q0 -109 73 -184.5t180 -75.5q104 0 177 72t77 177v22q-4 105 -77 177.5
t-177 72.5q-107 0 -180 -76t-73 -185z" />
    <glyph glyph-name="oe" unicode="&#x153;" horiz-adv-x="955" 
d="M915 235q0 -25 -1 -36h-379q8 -59 49 -93t102 -34q43 0 78.5 18.5t55.5 53.5q12 -6 39 -15.5t39 -14.5q-29 -60 -86.5 -92t-128.5 -32q-61 0 -112 25.5t-83 71.5q-34 -46 -86 -71.5t-113 -25.5q-102 0 -173 68t-71 177q0 108 70.5 175t173.5 67q128 0 199 -96
q68 96 195 96q101 0 166.5 -66.5t65.5 -175.5zM289 78q64 0 109 43.5t45 113.5q0 69 -45 111t-109 42q-65 0 -109.5 -42t-44.5 -111q0 -70 44.5 -113.5t109.5 -43.5zM535 270h290q-8 59 -46 92t-96 33q-59 0 -99.5 -33.5t-48.5 -91.5z" />
    <glyph glyph-name="Racute" unicode="&#x154;" horiz-adv-x="619" 
d="M383 261l184 -261h-113l-178 258h-88v-258h-94v689h265q102 0 153 -63t51 -153q0 -84 -44.5 -144t-135.5 -68zM356 602h-168v-257h164q59 0 87 37t28 91q0 53 -27.5 91t-83.5 38zM411 930l-119 -154h-87l97 154h109z" />
    <glyph glyph-name="racute" unicode="&#x155;" horiz-adv-x="395" 
d="M167 170v-170h-91v467h91v-105q33 115 130 115q55 0 81 -18l-14 -85q-33 16 -69 16q-64 0 -96 -60.5t-32 -159.5zM283 708l-119 -154h-87l97 154h109z" />
    <glyph glyph-name="Rcommaaccent" unicode="&#x156;" horiz-adv-x="619" 
d="M383 261l184 -261h-113l-178 258h-88v-258h-94v689h265q102 0 153 -63t51 -153q0 -84 -44.5 -144t-135.5 -68zM356 602h-168v-257h164q59 0 87 37t28 91q0 53 -27.5 91t-83.5 38zM286 -250l-58 19q30 41 41 77.5t5 96.5h90q0 -132 -78 -193z" />
    <glyph glyph-name="rcommaaccent" unicode="&#x157;" horiz-adv-x="395" 
d="M167 170v-170h-91v467h91v-105q33 115 130 115q55 0 81 -18l-14 -85q-33 16 -69 16q-64 0 -96 -60.5t-32 -159.5zM89 -250l-58 19q30 41 41 77.5t5 96.5h90q0 -132 -78 -193z" />
    <glyph glyph-name="Rcaron" unicode="&#x158;" horiz-adv-x="619" 
d="M383 261l184 -261h-113l-178 258h-88v-258h-94v689h265q102 0 153 -63t51 -153q0 -84 -44.5 -144t-135.5 -68zM356 602h-168v-257h164q59 0 87 37t28 91q0 53 -27.5 91t-83.5 38zM308 843l75 87h82l-110 -154h-93l-110 154h82z" />
    <glyph glyph-name="rcaron" unicode="&#x159;" horiz-adv-x="395" 
d="M167 170v-170h-91v467h91v-105q33 115 130 115q55 0 81 -18l-14 -85q-33 16 -69 16q-64 0 -96 -60.5t-32 -159.5zM205 621l75 87h82l-110 -154h-93l-110 154h82z" />
    <glyph glyph-name="Sacute" unicode="&#x15a;" horiz-adv-x="573" 
d="M52 199h93q0 -47 42.5 -84.5t105.5 -37.5q62 0 97 29t42 72q6 95 -117 123l-89 22q-168 42 -168 180q0 85 66 139.5t157 54.5q96 0 159 -55.5t63 -146.5h-93q0 51 -36 82t-94 31q-53 0 -91 -29t-38 -75q0 -72 98 -96l90 -22q99 -25 147 -79.5t37 -136.5q-10 -78 -71 -129
t-159 -51q-102 0 -171.5 63t-69.5 146zM416 930l-119 -154h-87l97 154h109z" />
    <glyph glyph-name="sacute" unicode="&#x15b;" horiz-adv-x="439" 
d="M246 191l-64 15q-67 18 -99 53.5t-26 98.5q6 51 52.5 85t109.5 34q65 0 110.5 -32.5t51.5 -99.5h-87q-4 25 -24.5 39t-48.5 14q-26 0 -45.5 -11.5t-24.5 -30.5q-6 -23 1 -37q11 -23 55 -36l69 -17q121 -30 121 -136q0 -64 -52.5 -102t-128.5 -38q-67 0 -119.5 41
t-54.5 109h83q6 -38 38 -53q31 -19 74 -16q32 2 51 18.5t20 42.5q1 24 -16 38t-46 21zM350 708l-119 -154h-87l97 154h109z" />
    <glyph glyph-name="Scircumflex" unicode="&#x15c;" horiz-adv-x="573" 
d="M52 199h93q0 -47 42.5 -84.5t105.5 -37.5q62 0 97 29t42 72q6 95 -117 123l-89 22q-168 42 -168 180q0 85 66 139.5t157 54.5q96 0 159 -55.5t63 -146.5h-93q0 51 -36 82t-94 31q-53 0 -91 -29t-38 -75q0 -72 98 -96l90 -22q99 -25 147 -79.5t37 -136.5q-10 -78 -71 -129
t-159 -51q-102 0 -171.5 63t-69.5 146zM352 776l-75 87l-74 -87h-82l110 154h93l110 -154h-82z" />
    <glyph glyph-name="scircumflex" unicode="&#x15d;" horiz-adv-x="439" 
d="M246 191l-64 15q-67 18 -99 53.5t-26 98.5q6 51 52.5 85t109.5 34q65 0 110.5 -32.5t51.5 -99.5h-87q-4 25 -24.5 39t-48.5 14q-26 0 -45.5 -11.5t-24.5 -30.5q-6 -23 1 -37q11 -23 55 -36l69 -17q121 -30 121 -136q0 -64 -52.5 -102t-128.5 -38q-67 0 -119.5 41
t-54.5 109h83q6 -38 38 -53q31 -19 74 -16q32 2 51 18.5t20 42.5q1 24 -16 38t-46 21zM294 554l-75 87l-74 -87h-82l110 154h93l110 -154h-82z" />
    <glyph glyph-name="Scedilla" unicode="&#x15e;" horiz-adv-x="573" 
d="M254 -117q7 -15 21 -21.5t29 -1.5q15 7 20.5 22t-0.5 31l-28 77h-3q-102 0 -171.5 63t-69.5 146h93q0 -47 42.5 -84.5t105.5 -37.5q62 0 97 29t42 72q3 51 -30.5 81.5t-86.5 41.5l-89 22q-168 42 -168 180q0 85 66 139.5t157 54.5q96 0 159 -55.5t63 -146.5h-93
q0 51 -36 82t-94 31q-53 0 -91 -29t-38 -75q0 -72 98 -96l90 -22q99 -25 147 -79.5t37 -136.5q-8 -65 -53.5 -112.5t-119.5 -61.5l31 -58q8 -17 8 -42q0 -30 -16.5 -54.5t-46.5 -37.5q-19 -8 -39 -8q-29 0 -53 17t-37 47q-10 21 -10 49l64 -4v-8q0 -8 3 -14z" />
    <glyph glyph-name="scedilla" unicode="&#x15f;" horiz-adv-x="440" 
d="M280 -1l33 -61q8 -17 8 -42q0 -30 -16.5 -54.5t-46.5 -37.5q-19 -8 -39 -8q-29 0 -53 17t-37 47q-10 21 -10 49l64 -4v-8q0 -8 3 -14q7 -15 21 -21.5t29 -1.5q15 7 20.5 22t-0.5 31l-28 78q-2 0 -6 -0.5t-6 -0.5q-67 0 -119.5 41t-54.5 109h83q6 -38 38 -53
q31 -19 74 -16q32 2 51 18.5t20 42.5q1 24 -16 38t-46 21l-64 15q-67 18 -99 53.5t-26 98.5q6 51 52.5 85t109.5 34q65 0 110.5 -32.5t51.5 -99.5h-87q-4 25 -24.5 39t-48.5 14q-26 0 -45.5 -11.5t-24.5 -30.5q-6 -23 1 -37q11 -23 55 -36l69 -17q121 -30 121 -136
q0 -49 -32 -83.5t-85 -47.5z" />
    <glyph glyph-name="Scaron" unicode="&#x160;" horiz-adv-x="573" 
d="M52 199h93q0 -47 42.5 -84.5t105.5 -37.5q62 0 97 29t42 72q6 95 -117 123l-89 22q-168 42 -168 180q0 85 66 139.5t157 54.5q96 0 159 -55.5t63 -146.5h-93q0 51 -36 82t-94 31q-53 0 -91 -29t-38 -75q0 -72 98 -96l90 -22q99 -25 147 -79.5t37 -136.5q-10 -78 -71 -129
t-159 -51q-102 0 -171.5 63t-69.5 146zM288 843l75 87h82l-110 -154h-93l-110 154h82z" />
    <glyph glyph-name="scaron" unicode="&#x161;" horiz-adv-x="439" 
d="M246 191l-64 15q-67 18 -99 53.5t-26 98.5q6 51 52.5 85t109.5 34q65 0 110.5 -32.5t51.5 -99.5h-87q-4 25 -24.5 39t-48.5 14q-26 0 -45.5 -11.5t-24.5 -30.5q-6 -23 1 -37q11 -23 55 -36l69 -17q121 -30 121 -136q0 -64 -52.5 -102t-128.5 -38q-67 0 -119.5 41
t-54.5 109h83q6 -38 38 -53q31 -19 74 -16q32 2 51 18.5t20 42.5q1 24 -16 38t-46 21zM219 621l75 87h82l-110 -154h-93l-110 154h82z" />
    <glyph glyph-name="Tcommaaccent" unicode="&#x162;" horiz-adv-x="568" 
d="M28 689h512v-88h-209v-601h-94v601h-209v88zM249 -250l-58 19q30 41 41 77.5t5 96.5h90q0 -132 -78 -193z" />
    <glyph glyph-name="tcommaaccent" unicode="&#x163;" horiz-adv-x="328" 
d="M202 467h99v-77h-99v-390h-91v390h-84v77h84v176h91v-176zM123 -250l-58 19q30 41 41 77.5t5 96.5h90q0 -132 -78 -193z" />
    <glyph glyph-name="Tcaron" unicode="&#x164;" horiz-adv-x="568" 
d="M28 689h512v-88h-209v-601h-94v601h-209v88zM283 843l75 87h82l-110 -154h-93l-110 154h82z" />
    <glyph glyph-name="tcaron" unicode="&#x165;" horiz-adv-x="328" 
d="M202 467h99v-77h-99v-390h-91v390h-84v77h84v176h91v-176zM299 528l-58 19q30 41 41 77.5t5 96.5h90q0 -132 -78 -193z" />
    <glyph glyph-name="Tbar" unicode="&#x166;" horiz-adv-x="567" 
d="M330 410h133v-66h-133v-344h-93v344h-132v66h132v187h-211v92h515v-92h-211v-187z" />
    <glyph glyph-name="tbar" unicode="&#x167;" horiz-adv-x="330" 
d="M112 0v226h-68v61h68v103h-84v77h84v176h91v-176h99v-77h-99v-103h76v-61h-76v-226h-91z" />
    <glyph glyph-name="Utilde" unicode="&#x168;" horiz-adv-x="678" 
d="M339 80q66 0 112 43.5t46 113.5v452h94v-452q0 -109 -74 -178t-178 -69q-106 0 -179 68.5t-73 178.5v452h94v-452q0 -70 46 -113.5t112 -43.5zM294 832q-10 0 -18 -11t-9 -33h-61q3 61 28.5 89t59.5 28q25 0 58 -24q21 -17 31 -17t18.5 9.5t9.5 31.5h61q-3 -60 -29 -87
t-60 -27q-23 0 -57 25q-24 16 -32 16z" />
    <glyph glyph-name="utilde" unicode="&#x169;" horiz-adv-x="562" 
d="M395 215v252h91v-467h-91v70q-20 -39 -61.5 -59.5t-83.5 -20.5q-88 0 -134.5 54t-45.5 153v270h91v-264q0 -59 27 -91.5t75 -32.5q56 0 94 33t38 103zM242 610q-10 0 -18 -11t-9 -33h-61q3 61 28.5 89t59.5 28q25 0 58 -24q21 -17 31 -17t18.5 9.5t9.5 31.5h61
q-3 -60 -29 -87t-60 -27q-23 0 -57 25q-24 16 -32 16z" />
    <glyph glyph-name="Umacron" unicode="&#x16a;" horiz-adv-x="678" 
d="M339 80q66 0 112 43.5t46 113.5v452h94v-452q0 -109 -74 -178t-178 -69q-106 0 -179 68.5t-73 178.5v452h94v-452q0 -70 46 -113.5t112 -43.5zM213 882h252v-80h-252v80z" />
    <glyph glyph-name="umacron" unicode="&#x16b;" horiz-adv-x="562" 
d="M395 215v252h91v-467h-91v70q-20 -39 -61.5 -59.5t-83.5 -20.5q-88 0 -134.5 54t-45.5 153v270h91v-264q0 -59 27 -91.5t75 -32.5q56 0 94 33t38 103zM161 660h252v-80h-252v80z" />
    <glyph glyph-name="Ubreve" unicode="&#x16c;" horiz-adv-x="678" 
d="M339 80q66 0 112 43.5t46 113.5v452h94v-452q0 -109 -74 -178t-178 -69q-106 0 -179 68.5t-73 178.5v452h94v-452q0 -70 46 -113.5t112 -43.5zM208 905h74q0 -27 15 -43t41 -16q25 0 40 18t15 41h76q0 -60 -35.5 -94t-95.5 -34q-65 0 -97.5 36.5t-32.5 91.5z" />
    <glyph glyph-name="ubreve" unicode="&#x16d;" horiz-adv-x="562" 
d="M395 215v252h91v-467h-91v70q-20 -39 -61.5 -59.5t-83.5 -20.5q-88 0 -134.5 54t-45.5 153v270h91v-264q0 -59 27 -91.5t75 -32.5q56 0 94 33t38 103zM157 683h74q0 -27 15 -43t41 -16q25 0 40 18t15 41h76q0 -60 -35.5 -94t-95.5 -34q-65 0 -97.5 36.5t-32.5 91.5z" />
    <glyph glyph-name="Uring" unicode="&#x16e;" horiz-adv-x="678" 
d="M339 80q66 0 112 43.5t46 113.5v452h94v-452q0 -109 -74 -178t-178 -69q-106 0 -179 68.5t-73 178.5v452h94v-452q0 -70 46 -113.5t112 -43.5zM233 867q0 45 30 75.5t74 30.5q45 0 76 -30.5t31 -75.5q0 -44 -31 -74t-76 -30q-44 0 -74 30t-30 74zM286 867q0 -21 15 -36
t36 -15q23 0 38.5 15t15.5 36q0 23 -15.5 38t-38.5 15q-21 0 -36 -15t-15 -38z" />
    <glyph glyph-name="uring" unicode="&#x16f;" horiz-adv-x="562" 
d="M395 215v252h91v-467h-91v70q-20 -39 -61.5 -59.5t-83.5 -20.5q-88 0 -134.5 54t-45.5 153v270h91v-264q0 -59 27 -91.5t75 -32.5q56 0 94 33t38 103zM182 645q0 45 30 75.5t74 30.5q45 0 76 -30.5t31 -75.5q0 -44 -31 -74t-76 -30q-44 0 -74 30t-30 74zM235 645
q0 -21 15 -36t36 -15q23 0 38.5 15t15.5 36q0 23 -15.5 38t-38.5 15q-21 0 -36 -15t-15 -38z" />
    <glyph glyph-name="Uhungarumlaut" unicode="&#x170;" horiz-adv-x="678" 
d="M339 80q66 0 112 43.5t46 113.5v452h94v-452q0 -109 -74 -178t-178 -69q-106 0 -179 68.5t-73 178.5v452h94v-452q0 -70 46 -113.5t112 -43.5zM381 930l-89 -154h-83l80 154h92zM525 930l-102 -154h-81l89 154h94z" />
    <glyph glyph-name="uhungarumlaut" unicode="&#x171;" horiz-adv-x="562" 
d="M395 215v252h91v-467h-91v70q-20 -39 -61.5 -59.5t-83.5 -20.5q-88 0 -134.5 54t-45.5 153v270h91v-264q0 -59 27 -91.5t75 -32.5q56 0 94 33t38 103zM321 708l-89 -154h-83l80 154h92zM465 708l-102 -154h-81l89 154h94z" />
    <glyph glyph-name="Uogonek" unicode="&#x172;" horiz-adv-x="678" 
d="M414 -117q3 6 3 14v8l64 4q0 -28 -10 -49q-13 -30 -37 -47t-53 -17q-20 0 -39 8q-30 13 -46.5 37.5t-16.5 54.5q0 25 8 42l28 53q-97 9 -162.5 76t-65.5 170v452h94v-452q0 -70 46 -113.5t112 -43.5t112 43.5t46 113.5v452h94v-452q0 -101 -62.5 -168t-156.5 -77l-28 -79
q-6 -16 -0.5 -31t20.5 -22q15 -5 29 1.5t21 21.5z" />
    <glyph glyph-name="uogonek" unicode="&#x173;" horiz-adv-x="562" 
d="M489 -117q3 6 3 14v8l64 4q0 -28 -10 -49q-13 -30 -37 -47t-53 -17q-20 0 -39 8q-30 13 -46.5 37.5t-16.5 54.5q0 25 8 42l33 62v70q-20 -39 -61.5 -59.5t-83.5 -20.5q-88 0 -134.5 54t-45.5 153v270h91v-264q0 -59 27 -91.5t75 -32.5q56 0 94 33t38 103v252h91v-467h-36
l-31 -87q-6 -16 -0.5 -31t20.5 -22q15 -5 29 1.5t21 21.5z" />
    <glyph glyph-name="Wcircumflex" unicode="&#x174;" horiz-adv-x="901" 
d="M786 689h100l-233 -689h-81l-122 430l-121 -430h-81l-233 689h100l173 -539l127 446h71l127 -446zM525 776l-75 87l-74 -87h-82l110 154h93l110 -154h-82z" />
    <glyph glyph-name="wcircumflex" unicode="&#x175;" horiz-adv-x="790" 
d="M596 0h-75l-127 343l-123 -343h-74l-178 467h97l117 -327l117 327h88l117 -327l117 327h97zM468 554l-75 87l-74 -87h-82l110 154h93l110 -154h-82z" />
    <glyph glyph-name="Ycircumflex" unicode="&#x176;" horiz-adv-x="628" 
d="M362 0h-96v317l-261 372h111l198 -279l200 279h112l-264 -372v-317zM390 776l-75 87l-74 -87h-82l110 154h93l110 -154h-82z" />
    <glyph glyph-name="ycircumflex" unicode="&#x177;" horiz-adv-x="509" 
d="M202 -227h-95l98 241l-187 453h97l140 -338l140 338h97zM332 554l-75 87l-74 -87h-82l110 154h93l110 -154h-82z" />
    <glyph glyph-name="Ydieresis" unicode="&#x178;" horiz-adv-x="628" 
d="M362 0h-96v317l-261 372h111l198 -279l200 279h112l-264 -372v-317zM169 852q0 26 17.5 42.5t44.5 16.5q25 0 43 -16.5t18 -42.5t-18 -42.5t-43 -16.5q-27 0 -44.5 16.5t-17.5 42.5zM338 852q0 26 17.5 42.5t44.5 16.5t44.5 -16.5t17.5 -42.5t-17.5 -42.5t-44.5 -16.5
t-44.5 16.5t-17.5 42.5z" />
    <glyph glyph-name="Zacute" unicode="&#x179;" horiz-adv-x="573" 
d="M42 81l364 520h-350v88h468v-81l-366 -520h366v-88h-482v81zM425 930l-119 -154h-87l97 154h109z" />
    <glyph glyph-name="zacute" unicode="&#x17a;" horiz-adv-x="502" 
d="M453 467v-75l-283 -305h283v-87h-411v75l278 305h-262v87h395zM382 708l-119 -154h-87l97 154h109z" />
    <glyph glyph-name="Zdotaccent" unicode="&#x17b;" horiz-adv-x="573" 
d="M42 81l364 520h-350v88h468v-81l-366 -520h366v-88h-482v81zM220 861q0 26 18 42.5t45 16.5t45 -16.5t18 -42.5t-18 -42.5t-45 -16.5t-45 16.5t-18 42.5z" />
    <glyph glyph-name="zdotaccent" unicode="&#x17c;" horiz-adv-x="502" 
d="M453 467v-75l-283 -305h283v-87h-411v75l278 305h-262v87h395zM185 639q0 26 18 42.5t45 16.5t45 -16.5t18 -42.5t-18 -42.5t-45 -16.5t-45 16.5t-18 42.5z" />
    <glyph glyph-name="Zcaron" unicode="&#x17d;" horiz-adv-x="573" 
d="M42 81l364 520h-350v88h468v-81l-366 -520h366v-88h-482v81zM282 843l75 87h82l-110 -154h-93l-110 154h82z" />
    <glyph glyph-name="zcaron" unicode="&#x17e;" horiz-adv-x="502" 
d="M453 467v-75l-283 -305h283v-87h-411v75l278 305h-262v87h395zM247 621l75 87h82l-110 -154h-93l-110 154h82z" />
    <glyph glyph-name="longs" unicode="&#x17f;" horiz-adv-x="305" 
d="M347 721v-87h-51q-27 0 -45.5 -10t-27 -28t-11.5 -37t-3 -45v-514h-92v390h-90v77h90v47q0 97 44 152t135 55h51z" />
    <glyph glyph-name="florin" unicode="&#x192;" horiz-adv-x="617" 
d="M210 16l80 367h-86l18 84h86l9 40q39 177 173 194q22 4 59 2l37 -2l-17 -83h-58q-21 0 -38.5 -8.5t-27 -17t-19 -30t-12 -30t-8.5 -36t-7 -29.5h108l-17 -84h-109q-71 -326 -74 -341q-21 -97 -61.5 -156t-118.5 -70q-21 -5 -97 1l17 82h59q26 0 45 10t30 30t17 35.5
t12 41.5z" />
    <glyph glyph-name="Aringacute" unicode="&#x1fa;" horiz-adv-x="645" 
d="M469 175h-292l-67 -175h-99l262 689h100l261 -689h-98zM476 1091l-102 -132q54 -31 54 -92q0 -44 -31 -74t-76 -30q-44 0 -74 30t-30 74q0 36 20 63.5t52 37.5l78 123h109zM209 259h228l-114 306zM270 867q0 -21 15 -36t36 -15q23 0 38.5 15t15.5 36q0 23 -15.5 38
t-38.5 15q-21 0 -36 -15t-15 -38z" />
    <glyph glyph-name="aringacute" unicode="&#x1fb;" horiz-adv-x="612" 
d="M446 0v72q-23 -38 -68.5 -60t-95.5 -22q-99 0 -168 68t-69 176q0 109 69 176t168 67q51 0 96 -21t68 -59v70h90v-467h-90zM445 235q0 71 -46.5 112t-108.5 41q-64 0 -108 -42.5t-44 -110.5t44 -112t108 -44q65 0 110 42t45 114zM433 861l-102 -132q54 -31 54 -92
q0 -44 -31 -74t-76 -30q-44 0 -74 30t-30 74q0 36 20 63.5t52 37.5l78 123h109zM227 637q0 -21 15 -36t36 -15q23 0 38.5 15t15.5 36q0 23 -15.5 38t-38.5 15q-21 0 -36 -15t-15 -38z" />
    <glyph glyph-name="AEacute" unicode="&#x1fc;" horiz-adv-x="934" 
d="M220 173l-111 -173h-109l435 689h435v-92h-313v-213h274v-92h-274v-200h324v-92h-416v173h-245zM275 262h190v298zM666 930l-119 -154h-87l97 154h109z" />
    <glyph glyph-name="aeacute" unicode="&#x1fd;" horiz-adv-x="957" 
d="M536 467v-38q62 48 149 48q101 0 166.5 -66.5t65.5 -175.5q0 -25 -1 -36h-379q8 -59 49 -93t102 -34q43 0 78.5 18.5t55.5 53.5q12 -6 39 -15.5t39 -14.5q-29 -60 -86.5 -92t-128.5 -32q-88 0 -149 49v-39h-90v72q-23 -38 -68.5 -60t-95.5 -22q-99 0 -168 68t-69 176
q0 109 69 176t168 67q51 0 96 -21t68 -59v70h90zM445 235q0 71 -46.5 112t-108.5 41q-64 0 -108 -42.5t-44 -110.5t44 -112t108 -44q65 0 110 42t45 114zM537 270h290q-8 59 -46 92t-96 33q-59 0 -99.5 -33.5t-48.5 -91.5zM626 708l-119 -154h-87l97 154h109z" />
    <glyph glyph-name="Oslashacute" unicode="&#x1fe;" horiz-adv-x="795" 
d="M553 930l-119 -154h-87l97 154h109zM178 66l-80 -82l-47 47l80 82q-83 101 -83 230q0 147 101 250.5t247 103.5q129 0 224 -81l79 81l47 -46l-80 -82q80 -99 80 -226q0 -147 -101.5 -250t-248.5 -103q-123 0 -218 76zM141 343q0 -95 54 -164l361 371q-70 57 -160 57
q-108 0 -181.5 -76.5t-73.5 -187.5zM396 80q108 0 182 76t74 187q0 89 -51 159l-359 -370q68 -52 154 -52z" />
    <glyph glyph-name="oslashacute" unicode="&#x1ff;" horiz-adv-x="577" 
d="M435 708l-119 -154h-87l97 154h109zM144 33l-57 -58l-47 47l56 57q-52 65 -52 156q0 108 70.5 175t173.5 67q85 0 150 -47l50 51l47 -46l-50 -51q48 -62 48 -149q0 -108 -71.5 -176.5t-173.5 -68.5q-83 0 -144 43zM288 388q-65 0 -109.5 -42t-44.5 -111q0 -53 25 -90
l215 219q-38 24 -86 24zM288 78q64 0 109 43.5t45 113.5q0 43 -22 82l-212 -218q35 -21 80 -21z" />
    <glyph glyph-name="Scommaaccent" unicode="&#x218;" horiz-adv-x="573" 
d="M52 199h93q0 -47 42.5 -84.5t105.5 -37.5q62 0 97 29t42 72q6 56 -34 86q-31 26 -83 37l-89 22q-168 42 -168 180q0 85 66 139.5t157 54.5q96 0 159 -55.5t63 -146.5h-93q0 51 -36 82t-94 31q-53 0 -91 -29t-38 -75q0 -72 98 -96l90 -22q99 -25 147 -79.5t37 -136.5
q-10 -78 -71 -129t-159 -51q-102 0 -171.5 63t-69.5 146zM265 -250l-58 19q30 41 41 77.5t5 96.5h90q0 -132 -78 -193z" />
    <glyph glyph-name="scommaaccent" unicode="&#x219;" horiz-adv-x="439" 
d="M246 191l-64 15q-67 18 -99 53.5t-26 98.5q6 51 52.5 85t109.5 34q65 0 110.5 -32.5t51.5 -99.5h-87q-4 25 -24.5 39t-48.5 14q-26 0 -45.5 -11.5t-24.5 -30.5q-6 -23 1 -37q11 -23 55 -36l69 -17q121 -30 121 -136q0 -64 -52.5 -102t-128.5 -38q-67 0 -119.5 41
t-54.5 109h83q6 -38 38 -53q31 -19 74 -16q32 2 51 18.5t20 42.5q1 24 -16 38t-46 21zM195 -250l-58 19q30 41 41 77.5t5 96.5h90q0 -132 -78 -193z" />
    <glyph glyph-name="circumflex" unicode="&#x2c6;" horiz-adv-x="523" 
d="M336 554l-75 87l-74 -87h-82l110 154h93l110 -154h-82z" />
    <glyph glyph-name="caron" unicode="&#x2c7;" horiz-adv-x="523" 
d="M261 621l75 87h82l-110 -154h-93l-110 154h82z" />
    <glyph glyph-name="breve" unicode="&#x2d8;" horiz-adv-x="481" 
d="M110 683h74q0 -27 15 -43t41 -16q25 0 40 18t15 41h76q0 -60 -35.5 -94t-95.5 -34q-65 0 -97.5 36.5t-32.5 91.5z" />
    <glyph glyph-name="dotaccent" unicode="&#x2d9;" horiz-adv-x="526" 
d="M200 639q0 26 18 42.5t45 16.5t45 -16.5t18 -42.5t-18 -42.5t-45 -16.5t-45 16.5t-18 42.5z" />
    <glyph glyph-name="ring" unicode="&#x2da;" horiz-adv-x="531" 
d="M160 645q0 45 30 75.5t74 30.5q45 0 76 -30.5t31 -75.5q0 -44 -31 -74t-76 -30q-44 0 -74 30t-30 74zM213 645q0 -21 15 -36t36 -15q23 0 38.5 15t15.5 36q0 23 -15.5 38t-38.5 15q-21 0 -36 -15t-15 -38z" />
    <glyph glyph-name="ogonek" unicode="&#x2db;" horiz-adv-x="522" 
d="M295 -117q3 6 3 14v8l64 4q0 -28 -10 -49q-13 -30 -37 -47t-53 -17q-20 0 -39 8q-30 13 -46.5 37.5t-16.5 54.5q0 25 8 42l51 95h49l-43 -120q-6 -16 -0.5 -31t20.5 -22q15 -5 29 1.5t21 21.5z" />
    <glyph glyph-name="tilde" unicode="&#x2dc;" horiz-adv-x="426" 
d="M168 610q-10 0 -18 -11t-9 -33h-61q3 61 28.5 89t59.5 28q25 0 58 -24q21 -17 31 -17t18.5 9.5t9.5 31.5h61q-3 -60 -29 -87t-60 -27q-23 0 -57 25q-24 16 -32 16z" />
    <glyph glyph-name="hungarumlaut" unicode="&#x2dd;" horiz-adv-x="476" 
d="M252 708l-89 -154h-83l80 154h92zM396 708l-102 -154h-81l89 154h94z" />
    <glyph glyph-name="Wgrave" unicode="&#x1e80;" horiz-adv-x="901" 
d="M786 689h100l-233 -689h-81l-122 430l-121 -430h-81l-233 689h100l173 -539l127 446h71l127 -446zM409 776l-119 154h109l97 -154h-87z" />
    <glyph glyph-name="wgrave" unicode="&#x1e81;" horiz-adv-x="790" 
d="M596 0h-75l-127 343l-123 -343h-74l-178 467h97l117 -327l117 327h88l117 -327l117 327h97zM353 554l-119 154h109l97 -154h-87z" />
    <glyph glyph-name="Wacute" unicode="&#x1e82;" horiz-adv-x="901" 
d="M786 689h100l-233 -689h-81l-122 430l-121 -430h-81l-233 689h100l173 -539l127 446h71l127 -446zM610 930l-119 -154h-87l97 154h109z" />
    <glyph glyph-name="wacute" unicode="&#x1e83;" horiz-adv-x="790" 
d="M596 0h-75l-127 343l-123 -343h-74l-178 467h97l117 -327l117 327h88l117 -327l117 327h97zM555 708l-119 -154h-87l97 154h109z" />
    <glyph glyph-name="Wdieresis" unicode="&#x1e84;" horiz-adv-x="901" 
d="M786 689h100l-233 -689h-81l-122 430l-121 -430h-81l-233 689h100l173 -539l127 446h71l127 -446zM304 852q0 26 17.5 42.5t44.5 16.5q25 0 43 -16.5t18 -42.5t-18 -42.5t-43 -16.5q-27 0 -44.5 16.5t-17.5 42.5zM473 852q0 26 17.5 42.5t44.5 16.5t44.5 -16.5
t17.5 -42.5t-17.5 -42.5t-44.5 -16.5t-44.5 16.5t-17.5 42.5z" />
    <glyph glyph-name="wdieresis" unicode="&#x1e85;" horiz-adv-x="790" 
d="M596 0h-75l-127 343l-123 -343h-74l-178 467h97l117 -327l117 327h88l117 -327l117 327h97zM247 630q0 26 17.5 42.5t44.5 16.5q25 0 43 -16.5t18 -42.5t-18 -42.5t-43 -16.5q-27 0 -44.5 16.5t-17.5 42.5zM416 630q0 26 17.5 42.5t44.5 16.5t44.5 -16.5t17.5 -42.5
t-17.5 -42.5t-44.5 -16.5t-44.5 16.5t-17.5 42.5z" />
    <glyph glyph-name="Ygrave" unicode="&#x1ef2;" horiz-adv-x="628" 
d="M362 0h-96v317l-261 372h111l198 -279l200 279h112l-264 -372v-317zM277 776l-119 154h109l97 -154h-87z" />
    <glyph glyph-name="ygrave" unicode="&#x1ef3;" horiz-adv-x="509" 
d="M202 -227h-95l98 241l-187 453h97l140 -338l140 338h97zM243 554l-119 154h109l97 -154h-87z" />
    <glyph glyph-name="thinspace" unicode="&#x2009;" horiz-adv-x="14" 
 />
    <glyph glyph-name="endash" unicode="&#x2013;" horiz-adv-x="595" 
d="M71 273h453v-78h-453v78z" />
    <glyph glyph-name="emdash" unicode="&#x2014;" horiz-adv-x="801" 
d="M71 273h659v-78h-659v78z" />
    <glyph glyph-name="quoteleft" unicode="&#x2018;" horiz-adv-x="248" 
d="M153 688l53 -19q-64 -91 -63 -211h-83q6 80 33 141.5t60 88.5z" />
    <glyph glyph-name="quoteright" unicode="&#x2019;" horiz-adv-x="245" 
d="M103 454l-53 19q64 91 63 211h83q-6 -80 -33 -141.5t-60 -88.5z" />
    <glyph glyph-name="quotesinglbase" unicode="&#x201a;" horiz-adv-x="242" 
d="M81 -65l-53 19q64 91 63 211h83q-6 -80 -33 -141.5t-60 -88.5z" />
    <glyph glyph-name="quotedblleft" unicode="&#x201c;" horiz-adv-x="397" 
d="M153 689l53 -19q-64 -91 -63 -211h-83q6 80 33 141.5t60 88.5zM302 689l53 -19q-64 -91 -63 -211h-83q6 80 33 141.5t60 88.5z" />
    <glyph glyph-name="quotedblright" unicode="&#x201d;" horiz-adv-x="395" 
d="M253 459l-53 19q64 91 63 211h83q-6 -80 -33 -141.5t-60 -88.5zM104 459l-53 19q64 91 63 211h83q-6 -80 -33 -141.5t-60 -88.5z" />
    <glyph glyph-name="quotedblbase" unicode="&#x201e;" horiz-adv-x="391" 
d="M230 -65l-53 19q64 91 63 211h83q-6 -80 -33 -141.5t-60 -88.5zM81 -65l-53 19q64 91 63 211h83q-6 -80 -33 -141.5t-60 -88.5z" />
    <glyph glyph-name="dagger" unicode="&#x2020;" horiz-adv-x="414" 
d="M251 497h121v-90h-121v-528h-89v528h-120v90h120v179h89v-179z" />
    <glyph glyph-name="daggerdbl" unicode="&#x2021;" horiz-adv-x="448" 
d="M268 497h121v-90h-121v-235h121v-89h-121v-204h-89v204h-120v89h120v235h-120v90h120v179h89v-179z" />
    <glyph glyph-name="bullet" unicode="&#x2022;" horiz-adv-x="461" 
d="M81 239q0 61 43.5 101.5t106.5 40.5q62 0 105.5 -40.5t43.5 -101.5q0 -62 -43.5 -102.5t-105.5 -40.5q-63 0 -106.5 40.5t-43.5 102.5z" />
    <glyph glyph-name="ellipsis" unicode="&#x2026;" horiz-adv-x="718" 
d="M67 52q0 27 19 45t46 18t46.5 -18t19.5 -45t-19.5 -44.5t-46.5 -17.5t-46 17.5t-19 44.5zM293 52q0 27 19 45t46 18t46.5 -18t19.5 -45t-19.5 -44.5t-46.5 -17.5t-46 17.5t-19 44.5zM519 52q0 27 19 45t46 18t46.5 -18t19.5 -45t-19.5 -44.5t-46.5 -17.5t-46 17.5
t-19 44.5z" />
    <glyph glyph-name="perthousand" unicode="&#x2030;" horiz-adv-x="991" 
d="M533 673l-329 -673h-66l329 673h66zM39 539q0 57 38 95.5t95 38.5q56 0 95 -39t39 -95q0 -57 -38.5 -95t-95.5 -38t-95 38t-38 95zM109 539q0 -27 18 -45t45 -18t45.5 18t18.5 45q0 26 -19 45t-45 19q-27 0 -45 -18.5t-18 -45.5zM379 123q0 57 38 95.5t95 38.5
q56 0 95 -39t39 -95q0 -57 -38.5 -95t-95.5 -38t-95 38t-38 95zM449 123q0 -27 18 -45t45 -18t45.5 18t18.5 45q0 26 -19 45t-45 19q-27 0 -45 -18.5t-18 -45.5zM688 123q0 57 38 95.5t95 38.5q56 0 95 -39t39 -95q0 -57 -38.5 -95t-95.5 -38t-95 38t-38 95zM758 123
q0 -27 18 -45t45 -18t45.5 18t18.5 45q0 26 -19 45t-45 19q-27 0 -45 -18.5t-18 -45.5z" />
    <glyph glyph-name="guilsinglleft" unicode="&#x2039;" horiz-adv-x="313" 
d="M46 233l138 207h79l-138 -207l138 -207h-79z" />
    <glyph glyph-name="guilsinglright" unicode="&#x203a;" horiz-adv-x="313" 
d="M267 233l-138 -207h-79l138 207l-138 207h79z" />
    <glyph glyph-name="fraction" unicode="&#x2044;" horiz-adv-x="180" 
d="M346 670l-450 -680h-68l451 680h67z" />
    <glyph glyph-name="zerosuperior" unicode="&#x2070;" horiz-adv-x="364" 
d="M39 625q0 94 32 148.5t111 54.5t111 -54.5t32 -148.5q0 -200 -143 -200t-143 200zM98 625q0 -142 84 -142t84 142q0 144 -84 144t-84 -144z" />
    <glyph glyph-name="foursuperior" unicode="&#x2074;" horiz-adv-x="359" 
d="M276 509v-79h-59v79h-203l218 314h44v-258h56v-56h-56zM116 565h101v150z" />
    <glyph glyph-name="fivesuperior" unicode="&#x2075;" horiz-adv-x="340" 
d="M26 507l49 35q11 -28 35.5 -44t52.5 -16q40 0 63 21.5t23 53.5q0 33 -23 50.5t-52 17.5q-46 0 -111 -33l-18 23l35 207h201v-56h-152l-18 -96q29 13 63 13q56 0 94.5 -33t38.5 -93q0 -61 -39.5 -97t-104.5 -36q-43 0 -80 22t-57 61z" />
    <glyph glyph-name="sixsuperior" unicode="&#x2076;" horiz-adv-x="338" 
d="M300 746l-53 -22q-22 46 -64 46q-38 0 -61.5 -37t-22.5 -95q24 47 80 47q53 0 89 -41t34 -96q-4 -55 -41.5 -91t-91.5 -34t-88.5 37.5t-39.5 97.5q-2 45 1 83t15 85.5t44 74t82 25.5q39 -3 68 -19.5t49 -60.5zM102 557q0 -31 20.5 -52t49.5 -22q29 -2 49 18t22 50
q2 31 -17 52t-48 22q-31 1 -52.5 -18.5t-23.5 -49.5z" />
    <glyph glyph-name="sevensuperior" unicode="&#x2077;" horiz-adv-x="327" 
d="M314 823l-215 -393h-69l183 334h-174v59h275z" />
    <glyph glyph-name="eightsuperior" unicode="&#x2078;" horiz-adv-x="342" 
d="M65 725q0 43 30.5 73t75.5 30t76.5 -30t31.5 -73q0 -35 -29 -67q57 -37 57 -105q0 -54 -39 -91t-97 -37t-97 37t-39 91q0 69 56 105q-26 29 -26 67zM94 553q0 -29 22 -49.5t55 -20.5q32 0 54.5 20.5t22.5 49.5q0 30 -22.5 52.5t-54.5 22.5h-4q-31 0 -52 -22.5t-21 -52.5z
M124 725q0 -18 12 -31.5t32 -15.5h5q20 2 33 15.5t13 31.5t-14 31t-34 13t-33.5 -13t-13.5 -31z" />
    <glyph glyph-name="ninesuperior" unicode="&#x2079;" horiz-adv-x="338" 
d="M38 504l53 22q22 -46 64 -46q38 0 61.5 37t22.5 95q-24 -47 -80 -47q-53 0 -89 41t-34 96t41 91t92 34q54 -2 88.5 -37.5t39.5 -97.5q2 -45 -1 -83t-15 -85.5t-44 -74t-82 -25.5q-82 2 -117 80zM236 693q0 31 -20.5 52t-49.5 22q-29 2 -49 -18t-22 -50q-2 -31 17 -52
t48 -22q31 -1 52.5 18.5t23.5 49.5z" />
    <glyph glyph-name="zeroinferior" unicode="&#x2080;" horiz-adv-x="364" 
d="M39 49q0 94 32 148.5t111 54.5t111 -54.5t32 -148.5q0 -200 -143 -200t-143 200zM98 49q0 -142 84 -142t84 142q0 144 -84 144t-84 -144z" />
    <glyph glyph-name="oneinferior" unicode="&#x2081;" horiz-adv-x="207" 
d="M93 -146v305l-68 -35v57l128 70v-397h-60z" />
    <glyph glyph-name="twoinferior" unicode="&#x2082;" horiz-adv-x="325" 
d="M39 -118l158 191q27 34 27 61t-19 44t-47 17q-27 0 -46.5 -17.5t-24.5 -47.5l-53 14q8 49 42.5 78.5t81.5 29.5q53 0 88.5 -33t35.5 -85q0 -56 -43 -102l-101 -119h145v-59h-244v28z" />
    <glyph glyph-name="threeinferior" unicode="&#x2083;" horiz-adv-x="320" 
d="M87 162l-40 32q18 28 48 43.5t65 13.5q47 -2 78.5 -34t29.5 -74q0 -12 -3 -24q-11 -36 -43 -54q30 -12 47 -42t15 -63q-4 -50 -46 -82.5t-97 -28.5q-38 3 -69.5 25.5t-47.5 56.5l48 26q9 -21 29.5 -36.5t43.5 -17.5h-1q32 -2 58.5 16.5t26.5 47.5q1 28 -21.5 49t-53.5 21
h-45v52h45q20 0 35 13t19 32q5 23 -7 40q-13 21 -45 23q-43 4 -69 -35z" />
    <glyph glyph-name="fourinferior" unicode="&#x2084;" horiz-adv-x="360" 
d="M277 -67v-79h-59v79h-203l218 314h44v-258h56v-56h-56zM117 -11h101v150z" />
    <glyph glyph-name="fiveinferior" unicode="&#x2085;" horiz-adv-x="338" 
d="M26 -69l49 35q11 -28 35.5 -44t52.5 -16q40 0 63 21.5t23 53.5q0 33 -23 50.5t-52 17.5q-46 0 -111 -33l-18 23l35 207h201v-56h-152l-18 -96q29 13 63 13q56 0 94.5 -33t38.5 -93q0 -61 -39.5 -97t-104.5 -36q-43 0 -80 22t-57 61z" />
    <glyph glyph-name="sixinferior" unicode="&#x2086;" horiz-adv-x="337" 
d="M300 170l-53 -22q-22 46 -64 46q-38 0 -61.5 -37t-22.5 -95q24 47 80 47q53 0 89 -41t34 -96q-4 -55 -41.5 -91t-91.5 -34t-88.5 37.5t-39.5 97.5q-2 45 1 83t15 85.5t44 74t82 25.5q39 -3 68 -19.5t49 -60.5zM102 -19q0 -31 20.5 -52t49.5 -22q29 -2 49 18t22 50
q2 31 -17 52t-48 22q-31 1 -52.5 -18.5t-23.5 -49.5z" />
    <glyph glyph-name="seveninferior" unicode="&#x2087;" horiz-adv-x="320" 
d="M315 247l-215 -393h-69l183 334h-174v59h275z" />
    <glyph glyph-name="eightinferior" unicode="&#x2088;" horiz-adv-x="342" 
d="M65 149q0 43 30.5 73t75.5 30t76.5 -30t31.5 -73q0 -35 -29 -67q57 -37 57 -105q0 -54 -39 -91t-97 -37t-97 37t-39 91q0 69 56 105q-26 29 -26 67zM94 -23q0 -29 22 -49.5t55 -20.5q32 0 54.5 20.5t22.5 49.5q0 30 -22.5 52.5t-54.5 22.5h-4q-31 0 -52 -22.5t-21 -52.5z
M124 149q0 -18 12 -31.5t32 -15.5h5q20 2 33 15.5t13 31.5t-14 31t-34 13t-33.5 -13t-13.5 -31z" />
    <glyph glyph-name="nineinferior" unicode="&#x2089;" horiz-adv-x="338" 
d="M39 -72l53 22q22 -46 64 -46q38 0 61.5 37t22.5 95q-24 -47 -80 -47q-53 0 -89 41t-34 96t41 91t92 34q54 -2 88.5 -37.5t39.5 -97.5q1 -29 2 -64t-8 -71.5t-23.5 -66.5t-43.5 -48.5t-69 -17.5q-82 2 -117 80zM237 117q0 31 -20.5 52t-49.5 22q-29 2 -49 -18t-22 -50
q-2 -31 17 -52t48 -22q31 -1 52.5 18.5t23.5 49.5z" />
    <glyph glyph-name="colonmonetary" unicode="&#x20a1;" horiz-adv-x="702" 
d="M311 0l-39 -109l-47 17l38 108q-39 15 -75 43l-47 -131l-47 16l53 150q-100 102 -100 249q0 137 90.5 238.5t224.5 113.5l39 110l47 -17l-33 -92q45 -1 86 -15l31 87l47 -16l-32 -89q59 -27 108 -83l-70 -58q-32 33 -69 54l-175 -490q27 -6 55 -6q116 0 191 88l70 -59
q-47 -56 -114.5 -87.5t-146.5 -31.5q-46 0 -85 10zM396 607h-13l-163 -457q32 -30 74 -49l176 494q-34 12 -74 12zM140 343q0 -80 43 -148l144 402q-83 -23 -135 -93.5t-52 -160.5z" />
    <glyph glyph-name="lira" unicode="&#x20a4;" horiz-adv-x="635" 
d="M144 398v104q0 87 60.5 141t144.5 54q83 0 140 -57.5t57 -151.5h-90q0 44 -20 74t-52 39q-28 7 -45 4q-42 -2 -74 -30.5t-32 -72.5v-104h153v-53h-153v-66h153v-53h-153v-136h244q17 0 17 22v57h90v-49q0 -53 -24.5 -86.5t-71.5 -33.5h-436v90h92v136h-76v53h76v66h-76
v53h76z" />
    <glyph glyph-name="uni20A6" unicode="&#x20a6;" horiz-adv-x="757" 
d="M622 0h-89l-151 250h-163v-250h-93v250h-69v55h69v74h-69v55h69v255h92l154 -255h157v255h93v-255h82v-55h-82v-74h82v-55h-82v-250zM219 379v-74h129l-44 74h-85zM405 379l45 -74h79v74h-124zM219 519v-85h51zM483 250l46 -76v76h-46z" />
    <glyph glyph-name="peseta" unicode="&#x20a7;" horiz-adv-x="745" 
d="M133 399h-80v55h80v49h-80v55h80v131h275q72 0 119 -36t69 -95h104v-55h-90q3 -21 3 -41v-8h87v-55h-95q-37 -141 -197 -141h-181v-258h-94v399zM520 454v8q0 16 -5 41h-288v-49h293zM227 345h175q76 0 104 54h-279v-54zM407 602h-180v-44h264q-31 44 -84 44z" />
    <glyph glyph-name="rupee" unicode="&#x20a8;" horiz-adv-x="674" 
d="M185 258h-118v87h194q58 0 85 35t30 88h-309v55h303q-23 79 -105 79h-198l-1 87h560v-55h-216q46 -44 58 -111h158v-55h-154q-3 -83 -46.5 -141t-133.5 -66l184 -261h-113z" />
    <glyph glyph-name="uni20A9" unicode="&#x20a9;" horiz-adv-x="982" 
d="M195 274h-135v55h117l-34 100h-83v55h64l-69 205h100l66 -205h202l32 112h71l32 -112h202l66 205h100l-70 -205h66v-55h-84l-34 -100h118v-55h-136l-93 -274h-81l-78 274h-88l-77 -274h-81zM573 429l29 -100h108l32 100h-169zM238 429l32 -100h109l28 100h-169zM617 274
l36 -124l40 124h-76zM288 274l40 -124l35 124h-75zM489 429l-28 -100h58l-29 100h-1z" />
    <glyph glyph-name="afii57636" unicode="&#x20aa;" horiz-adv-x="751" 
d="M504 332v-167h-89v167q0 50 -33.5 83.5t-88.5 33.5h-107v-449h-90v538h197q94 0 152.5 -59t58.5 -147zM247 206v167h89v-167q0 -50 33.5 -83.5t88.5 -33.5h107v449h90v-538h-197q-94 0 -152.5 59t-58.5 147z" />
    <glyph glyph-name="Euro" unicode="&#x20ac;" horiz-adv-x="783" 
d="M519 365h-467v56h102q27 115 113.5 188.5t205.5 73.5q140 0 250 -110l-63 -63q-86 84 -187 84q-81 0 -141.5 -48.5t-82.5 -124.5h270v-56zM52 304h467v-55h-269q22 -74 83 -121.5t140 -47.5q103 0 188 85l63 -64q-110 -110 -251 -110q-118 0 -205 72.5t-113 185.5h-103
v55z" />
    <glyph glyph-name="uni2113" unicode="&#x2113;" horiz-adv-x="393" 
d="M221 89h95v-89h-107q-137 0 -137 159v379q0 159 137 159q70 0 102 -43.5t32 -115.5v-190q0 -88 -39.5 -124t-142.5 -36v-29q0 -46 20 -61q17 -9 40 -9zM161 278h48q44 0 44 75v179q0 76 -44 76q-48 0 -48 -76v-254z" />
    <glyph glyph-name="afii61352" unicode="&#x2116;" horiz-adv-x="969" 
d="M655 558q0 54 39 92.5t93 38.5t92.5 -38.5t38.5 -92.5t-38.5 -92.5t-92.5 -38.5t-93 38.5t-39 92.5zM723 558q0 -26 19 -45t45 -19t45 19t19 45t-19 45t-45 19t-45 -19t-19 -45zM660 338v47h253v-47h-253zM592 0h-89l-314 519v-519h-93v689h92l311 -515v515h93v-689z" />
    <glyph glyph-name="trademark" unicode="&#x2122;" horiz-adv-x="844" 
d="M66 681h357l123 -270l123 270h58l46 -383h-65l-32 268l-102 -227h-55l-104 227l-31 -268h-66l38 324h-106v-324h-68v324h-116v59z" />
    <glyph glyph-name="estimated" unicode="&#x212e;" horiz-adv-x="659" 
d="M611 279h-429v-193q68 -63 152 -63q76 0 123 33t87 94l31 -19q-46 -69 -100 -105t-141 -36q-119 0 -195 84.5t-76 205.5q0 123 75 206.5t200 83.5q124 0 198.5 -84.5t74.5 -206.5zM491 312v163q-68 62 -153 62q-96 0 -156 -62v-163h309z" />
    <glyph glyph-name="minus" unicode="&#x2212;" horiz-adv-x="576" 
d="M74 305h428v-82h-428v82z" />
    <glyph glyph-name="notequal" unicode="&#x2260;" horiz-adv-x="594" 
d="M311 197h216v-87h-259l-54 -110h-70l54 110h-131v87h173l52 106h-225v87h267l54 110h71l-54 -110h122v-87h-165z" />
    <glyph glyph-name="lessequal" unicode="&#x2264;" horiz-adv-x="654" 
d="M572 141l-506 194v87l506 194v-97l-380 -140l380 -142v-96zM75 80h497v-80h-497v80z" />
    <glyph glyph-name="greaterequal" unicode="&#x2265;" horiz-adv-x="654" 
d="M588 335l-506 -194v96l380 142l-380 140v97l506 -194v-87zM82 80h497v-80h-497v80z" />
    <glyph glyph-name="commaaccent" unicode="&#xf6c3;" horiz-adv-x="277" 
d="M128 -250l-58 19q30 41 41 77.5t5 96.5h90q0 -132 -78 -193z" />
    <glyph glyph-name="rupiah" unicode="&#xf6dd;" horiz-adv-x="1176" 
d="M363 261l184 -261h-113l-178 258h-88v-258h-94v689h265q102 0 153 -63t51 -153q0 -84 -44.5 -144t-135.5 -68zM336 602h-168v-257h164q59 0 87 37t28 91q0 53 -27.5 91t-83.5 38zM744 467v-73q24 39 68 61t95 22q98 0 166 -68t68 -177q0 -108 -67.5 -175t-166.5 -67
q-51 0 -95.5 20.5t-67.5 59.5v-297h-91v694h91zM745 231q0 -71 46 -111.5t107 -40.5q65 0 108 42t43 110q0 69 -43.5 113t-107.5 44t-108.5 -42.5t-44.5 -114.5z" />
    <glyph glyph-name="apple" unicode="&#xf8ff;" horiz-adv-x="847" 
d="M767 687v-687h-687v687h687zM164 595v-377h81l-74 75v178l255 -253l256 253v-178l-74 -75h84v377l-266 -263zM179 132h-15v-53h9v37l13 -37h10l11 37v-37h9v53h-14l-9 -36zM248 132q-25 0 -25 -27q0 -11 6.5 -18.5t18.5 -7.5q11 0 17 8t6 18q0 27 -23 27zM248 89
q-8 0 -12.5 5t-4.5 11t4.5 11.5t12.5 5.5q12 0 12 -17q0 -16 -12 -16zM284 99h-13q0 -20 22 -20t22 17q0 11 -15 14q-16 4 -16 6q0 6 9 6q10 0 10 -6h9q0 16 -19 16t-19 -16q0 -8 16 -15q13 0 13 -5q0 -7 -10 -7q-9 0 -9 10zM315 122h17v-43h8v43h15v10h-40v-10zM377 132h-9
l-22 -53h12l4 13h22l3 -13h11zM374 119l7 -18h-16l6 18h3zM426 132h-28v-53h9v22h13q9 0 9 -9v-13h13q-3 3 -3 13q0 9 -7 13q7 3 7 11q0 16 -13 16zM420 108h-13v14h13q9 0 9 -6q0 -8 -9 -8zM466 132h-20v-53h20q25 0 25 29q0 24 -25 24zM466 89h-8v33h4q17 0 17 -17
q0 -16 -13 -16zM531 132h-37v-53h40v10h-28v12h25v9h-25v12h25v10zM543 99h-9q0 -20 22 -20t22 17q0 11 -15 14q-17 4 -17 6q0 6 7 6q12 0 12 -6h10q0 16 -19 16q-22 0 -22 -16q0 -8 19 -15q12 0 12 -5q0 -7 -9 -7q-13 0 -13 10zM589 132h-7v-53h7v53zM633 86l4 -7h6v29h-22
v-9h12q-4 -10 -12 -10q-16 0 -16 16q0 17 16 17q9 0 9 -10h13q-4 20 -22 20q-25 0 -25 -27q0 -10 7 -18t18 -8q9 0 12 7zM657 132h-8v-53h8v33l22 -33h13v53h-13v-33z" />
    <glyph glyph-name="CR" horiz-adv-x="260" 
 />
    <glyph glyph-name="published" horiz-adv-x="809" 
d="M436 280h-67v-122h-69v353h136q54 0 84 -34.5t30 -81.5q0 -44 -29.5 -79.5t-84.5 -35.5zM436 443h-67v-95h65q22 0 33.5 13.5t11.5 33.5t-11 34t-32 14zM55 343q0 147 101.5 250.5t247.5 103.5t248 -103.5t102 -250.5t-102 -250t-248 -103t-247.5 103t-101.5 250z
M116 343q0 -120 84 -205.5t204 -85.5t204 85.5t84 205.5q0 121 -84 206.5t-204 85.5t-204 -85.5t-84 -206.5z" />
    <glyph glyph-name="frenchfranc" horiz-adv-x="726" 
d="M478 116v-116h-91v330h-200v-330h-90v676h392v-90h-302v-166h291v-112q33 115 130 115q55 0 81 -18l-14 -85q-33 16 -69 16q-64 0 -96 -60.5t-32 -159.5z" />
    <glyph glyph-name="parenleft.case" horiz-adv-x="363" 
d="M49 348q0 215 74.5 340t199.5 125v-89q-86 0 -137.5 -101.5t-51.5 -274.5t51.5 -274.5t137.5 -101.5v-89q-125 0 -199.5 125t-74.5 340z" />
    <glyph glyph-name="parenright.case" horiz-adv-x="363" 
d="M314 348q0 -215 -74.5 -340t-199.5 -125v89q86 0 137.5 102t51.5 274t-51.5 274t-137.5 102v89q125 0 199.5 -125t74.5 -340z" />
    <glyph glyph-name="hyphen.case" horiz-adv-x="486" 
d="M69 394h348v-87h-348v87z" />
    <glyph glyph-name="at.case" horiz-adv-x="971" 
d="M601 225v129q0 55 -37.5 92t-91.5 37t-91.5 -37t-37.5 -92q0 -53 37.5 -90.5t91.5 -37.5q51 0 99 48v-85q-48 -34 -99 -34q-82 0 -141 58.5t-59 140.5q0 83 59 141.5t141 58.5q81 0 138 -55q57 -54 62 -136v-145q0 -66 72 -66q34 0 58.5 21.5t36.5 56t17 68t5 68.5
q0 150 -111.5 250.5t-267.5 100.5q-152 0 -256.5 -107.5t-104.5 -260.5t104 -259t257 -106h23v-71h-23q-182 0 -307 126.5t-125 309.5t125 311t307 128q121 0 224 -54t165 -151.5t62 -216.5q0 -47 -10 -94t-31 -91t-59.5 -71.5t-88.5 -27.5q-62 0 -102.5 33.5t-40.5 109.5z
" />
    <glyph glyph-name="bracketleft.case" horiz-adv-x="327" 
d="M84 -107v916h201v-83h-111v-750h111v-83h-201z" />
    <glyph glyph-name="bracketright.case" horiz-adv-x="327" 
d="M243 807v-916h-201v83h111v750h-111v83h201z" />
    <glyph glyph-name="braceleft.case" horiz-adv-x="400" 
d="M186 255v-174q0 -49 32 -83t76 -34h67v-79h-64q-83 0 -140 54t-57 142v174q0 20 -18 35.5t-43 15.5v81q25 0 43 15.5t18 35.5v176q0 88 57 141.5t140 53.5h64v-79h-67q-45 0 -76.5 -34t-31.5 -82v-176q0 -28 -13 -54t-36 -38q21 -12 35 -38t14 -53z" />
    <glyph glyph-name="braceright.case" horiz-adv-x="400" 
d="M214 81v174q0 27 14 53t35 38q-23 12 -36 38t-13 54v176q0 48 -31.5 82t-76.5 34h-67v79h64q83 0 140 -53.5t57 -141.5v-176q0 -20 18 -35.5t43 -15.5v-81q-25 0 -43 -15.5t-18 -35.5v-174q0 -88 -57 -142t-140 -54h-64v79h67q44 0 76 34t32 83z" />
    <glyph glyph-name="exclamdown.case" horiz-adv-x="263" 
d="M168 502l9 -503h-90l10 503h71zM66 635q0 27 19 44.5t46 17.5t46.5 -17.5t19.5 -44.5t-19.5 -45t-46.5 -18t-46 18t-19 45z" />
    <glyph glyph-name="guillemotleft.case" horiz-adv-x="515" 
d="M57 350l138 207h79l-138 -207l138 -207h-79zM233 350l138 207h79l-138 -207l138 -207h-79z" />
    <glyph glyph-name="periodcentered.case" horiz-adv-x="268" 
d="M69 353q0 27 19 45t46 18t46.5 -18t19.5 -45t-19.5 -44.5t-46.5 -17.5t-46 17.5t-19 44.5z" />
    <glyph glyph-name="guillemotright.case" horiz-adv-x="515" 
d="M458 350l-138 -207h-79l138 207l-138 207h79zM282 350l-138 -207h-79l138 207l-138 207h79z" />
    <glyph glyph-name="questiondown.case" horiz-adv-x="482" 
d="M350 199h90q0 -94 -57 -151.5t-140 -57.5q-84 0 -144.5 54t-60.5 141q0 70 41 120t103 69q36 11 53.5 26t17.5 47l2 59h88v-59q0 -67 -34.5 -103t-99.5 -56q-27 -8 -48 -30q-34 -30 -34 -73q0 -47 35 -76.5t81 -29.5t76.5 32.5t30.5 87.5zM364 635q0 -27 -19.5 -45
t-46.5 -18t-46 18t-19 45t19 44.5t46 17.5t46.5 -17.5t19.5 -44.5z" />
    <glyph glyph-name="endash.case" horiz-adv-x="597" 
d="M72 389h453v-78h-453v78z" />
    <glyph glyph-name="emdash.case" horiz-adv-x="803" 
d="M72 389h659v-78h-659v78z" />
    <glyph glyph-name="bullet.case" horiz-adv-x="463" 
d="M82 350q0 61 43.5 101.5t106.5 40.5q62 0 105.5 -40.5t43.5 -101.5q0 -62 -43.5 -102.5t-105.5 -40.5q-63 0 -106.5 40.5t-43.5 102.5z" />
    <glyph glyph-name="guilsinglleft.case" horiz-adv-x="339" 
d="M57 350l138 207h79l-138 -207l138 -207h-79z" />
    <glyph glyph-name="guilsinglright.case" horiz-adv-x="339" 
d="M282 350l-138 -207h-79l138 207l-138 207h79z" />
    <glyph glyph-name="cent.case" horiz-adv-x="533" 
d="M252 0v107q-87 15 -144 80t-57 161q0 95 57 159t144 79v103h62v-100q99 -5 164 -74l-69 -58q-44 44 -111 44q-65 0 -111 -42.5t-46 -110.5t46 -112.5t111 -44.5q67 0 111 46l70 -58q-63 -69 -165 -75v-104h-62z" />
    <glyph glyph-name="zero.tnum" 
d="M53 325q0 74 11 131.5t36.5 105.5t73.5 73.5t116 25.5t115.5 -25.5t73 -73.5t36.5 -105t11 -132q0 -74 -11 -130.5t-36.5 -104.5t-73 -73.5t-115.5 -25.5q-55 0 -96.5 17.5t-68 47t-43 73t-23 91t-6.5 105.5zM143 325q0 -245 147 -245t147 245q0 74 -11.5 125.5t-45.5 86
t-90 34.5t-90 -34.5t-45.5 -86t-11.5 -125.5z" />
    <glyph glyph-name="one.tnum" 
d="M271 0v539l-106 -37v86l196 71v-659h-90z" />
    <glyph glyph-name="two.tnum" 
d="M86 40l265 321q48 58 48 107q0 47 -33.5 75t-82.5 28q-46 0 -78.5 -27.5t-39.5 -75.5l-87 21q12 78 70 125t135 47q87 0 146 -54t59 -139q0 -90 -71 -169q-48 -55 -95 -111.5t-82 -97.5h249v-90h-403v40z" />
    <glyph glyph-name="three.tnum" 
d="M170 513l-67 53q27 48 78 74t111 22q79 -4 130.5 -57.5t49.5 -123.5q0 -19 -6 -40q-18 -59 -71 -89q49 -17 78 -69.5t25 -106.5q-8 -84 -77.5 -137t-161.5 -47q-65 5 -116 41.5t-78 94.5l79 43q16 -35 50 -61t72 -29h-1q54 -4 97 28t45 79t-36.5 82t-89.5 35h-74v87h74
q34 -1 59 20.5t31 54.5q7 41 -11 67q-24 33 -76 38q-70 6 -114 -59z" />
    <glyph glyph-name="four.tnum" 
d="M449 134v-134h-89v134h-340l362 519h67v-434h94v-85h-94zM173 219h187v272z" />
    <glyph glyph-name="five.tnum" 
d="M56 139l77 42q19 -48 56 -76t84 -28q78 0 117.5 37t39.5 96q0 60 -38.5 92.5t-96.5 32.5q-41 0 -76 -12t-86 -42l-56 46l57 325h348v-86h-274l-36 -185q22 16 57.5 27t65.5 11q95 0 159 -55.5t64 -153.5q0 -100 -67.5 -160t-177.5 -60q-69 0 -128 40.5t-89 108.5z" />
    <glyph glyph-name="six.tnum" 
d="M504 535l-80 -34q-38 75 -111 75q-68 0 -109 -65t-31 -163q29 74 134 74q88 0 146 -67.5t56 -156.5q-4 -88 -68 -149.5t-151 -57.5t-143.5 63.5t-64.5 160.5q-9 120 11 247q14 91 75 146t149 53q62 -3 109 -30t78 -96zM172 212q0 -54 35 -91t87 -39q51 -2 87.5 32.5
t38.5 87.5t-31 90.5t-85 39.5t-91 -33t-41 -87z" />
    <glyph glyph-name="seven.tnum" 
d="M538 653l-358 -653h-105l311 564h-299v89h451z" />
    <glyph glyph-name="eight.tnum" 
d="M116 494q0 70 50 118.5t124 48.5t125 -48.5t51 -118.5q0 -69 -51 -115q100 -62 100 -175q0 -89 -65 -151t-160 -62q-96 0 -160.5 61.5t-64.5 151.5q0 54 26.5 100.5t72.5 74.5q-48 46 -48 115zM155 204q0 -52 39 -88t96 -36t96 36t39 88t-39.5 89t-95.5 37h-7
q-54 -2 -91 -38.5t-37 -87.5zM205 494q0 -32 22.5 -55t57.5 -25h8q36 2 59.5 25t23.5 55t-24.5 54.5t-61.5 22.5q-36 0 -60.5 -22.5t-24.5 -54.5z" />
    <glyph glyph-name="nine.tnum" 
d="M75 116l80 34q38 -75 111 -75q69 0 108.5 64.5t31.5 163.5q-29 -74 -134 -74q-87 0 -146.5 67.5t-55.5 156.5q4 88 68 149.5t151 57.5t143.5 -63.5t64.5 -160.5q11 -121 -11 -248v1q-15 -90 -76 -146.5t-148 -52.5q-135 6 -187 126zM407 439q0 54 -35 91t-87 39
q-51 2 -87.5 -32.5t-38.5 -87.5t31 -90.5t85 -39.5t91 33t41 87z" />
    <glyph glyph-name="zero.taboldstyle" 
d="M289 -10q-100 0 -171 72t-71 186t71 185.5t171 71.5q102 0 173 -71t71 -186q0 -114 -71 -186t-173 -72zM289 79q64 0 109 47t45 122q0 74 -45 120.5t-109 46.5q-63 0 -108 -46.5t-45 -120.5q0 -75 45 -122t108 -47z" />
    <glyph glyph-name="one.taboldstyle" 
d="M387 516v-516h-90v370l-148 -77v95z" />
    <glyph glyph-name="two.taboldstyle" 
d="M100 41l235 254q36 36 36 66q0 27 -23.5 44.5t-59.5 17.5q-34 0 -57 -20t-26 -54l-88 15q6 67 56.5 108t118.5 41q75 0 123.5 -43t48.5 -109q0 -14 -2 -26.5t-7.5 -25t-9 -20.5t-14.5 -21.5t-15 -18.5t-18.5 -21.5t-18.5 -20.5l-113 -117h199v-90h-365v41z" />
    <glyph glyph-name="six.taboldstyle" 
d="M504 535l-80 -34q-38 75 -111 75q-68 0 -109 -65t-31 -163q29 74 134 74q88 0 146 -67.5t56 -156.5q-4 -88 -68 -149.5t-151 -57.5t-143.5 63.5t-64.5 160.5q-9 120 11 247q14 91 75 146t149 53q62 -3 109 -30t78 -96zM172 212q0 -54 35 -91t87 -39q51 -2 87.5 32.5
t38.5 87.5t-31 90.5t-85 39.5t-91 -33t-41 -87z" />
    <glyph glyph-name="eight.taboldstyle" 
d="M116 494q0 70 50 118.5t124 48.5t125 -48.5t51 -118.5q0 -69 -51 -115q100 -62 100 -175q0 -89 -65 -151t-160 -62q-96 0 -160.5 61.5t-64.5 151.5q0 54 26.5 100.5t72.5 74.5q-48 46 -48 115zM155 204q0 -52 39 -88t96 -36t96 36t39 88t-39.5 89t-95.5 37h-7
q-54 -2 -91 -38.5t-37 -87.5zM205 494q0 -32 22.5 -55t57.5 -25h8q36 2 59.5 25t23.5 55t-24.5 54.5t-61.5 22.5q-36 0 -60.5 -22.5t-24.5 -54.5z" />
    <glyph glyph-name="three.taboldstyle" 
d="M173 325l-67 53q27 48 78 74t111 22q79 -4 130.5 -57.5t49.5 -123.5q0 -19 -6 -40q-18 -59 -71 -89q49 -17 78 -69.5t25 -106.5q-8 -84 -77.5 -137t-161.5 -47q-65 5 -116 41.5t-78 94.5l79 43q16 -35 50 -61t72 -29h-1q54 -4 97 28t45 79t-36.5 82t-89.5 35h-74v87h74
q34 -1 59 20.5t31 54.5q7 41 -11 67q-24 33 -76 38q-70 6 -114 -59z" />
    <glyph glyph-name="four.taboldstyle" 
d="M449 -53v-134h-89v134h-340l362 519h67v-434h94v-85h-94zM173 32h187v272z" />
    <glyph glyph-name="five.taboldstyle" 
d="M57 -48l77 42q19 -48 56 -76t84 -28q78 0 117.5 37t39.5 96q0 60 -38.5 92.5t-96.5 32.5q-41 0 -76 -12t-86 -42l-56 46l57 325h348v-86h-274l-36 -185q22 16 57.5 27t65.5 11q95 0 159 -55.5t64 -153.5q0 -100 -67.5 -160t-177.5 -60q-69 0 -128 40.5t-89 108.5z" />
    <glyph glyph-name="seven.taboldstyle" 
d="M539 465l-358 -653h-105l311 564h-299v89h451z" />
    <glyph glyph-name="nine.taboldstyle" 
d="M80 -73l80 34q38 -75 111 -75q69 0 108.5 64.5t31.5 163.5q-29 -74 -134 -74q-87 0 -146.5 67.5t-55.5 156.5q4 88 68 149.5t151 57.5t143.5 -63.5t64.5 -160.5q11 -121 -11 -248v1q-15 -90 -76 -146.5t-148 -52.5q-135 6 -187 126zM412 250q0 54 -35 91t-87 39
q-51 2 -87.5 -32.5t-38.5 -87.5t31 -90.5t85 -39.5t91 33t41 87z" />
    <glyph glyph-name="zero.oldstyle" horiz-adv-x="592" 
d="M295 -10q-100 0 -171 72t-71 186t71 185.5t171 71.5q102 0 173 -71t71 -186q0 -114 -71 -186t-173 -72zM295 79q64 0 109 47t45 122q0 74 -45 120.5t-109 46.5q-63 0 -108 -46.5t-45 -120.5q0 -75 45 -122t108 -47z" />
    <glyph glyph-name="one.oldstyle" horiz-adv-x="365" 
d="M280 516v-516h-90v370l-148 -77v95z" />
    <glyph glyph-name="two.oldstyle" horiz-adv-x="475" 
d="M48 41l235 254q36 36 36 66q0 27 -23.5 44.5t-59.5 17.5q-34 0 -57 -20t-26 -54l-88 15q6 67 56.5 108t118.5 41q75 0 123.5 -43t48.5 -109q0 -14 -2 -26.5t-7.5 -25t-9 -20.5t-14.5 -21.5t-15 -18.5t-18.5 -21.5t-18.5 -20.5l-113 -117h199v-90h-365v41z" />
    <glyph glyph-name="three.oldstyle" horiz-adv-x="515" 
d="M140 325l-67 53q27 48 78 74t111 22q79 -4 130.5 -57.5t49.5 -123.5q0 -19 -6 -40q-18 -59 -71 -89q49 -17 78 -69.5t25 -106.5q-8 -84 -77.5 -137t-161.5 -47q-65 5 -116 41.5t-78 94.5l79 43q16 -35 50 -61t72 -29h-1q54 -4 97 28t45 79t-36.5 82t-89.5 35h-74v87h74
q34 -1 59 20.5t31 54.5q7 41 -11 67q-24 33 -76 38q-70 6 -114 -59z" />
    <glyph glyph-name="four.oldstyle" 
d="M449 -53v-134h-89v134h-340l362 519h67v-434h94v-85h-94zM173 32h187v272z" />
    <glyph glyph-name="five.oldstyle" horiz-adv-x="548" 
d="M41 -48l77 42q19 -48 56 -76t84 -28q78 0 117.5 37t39.5 96q0 60 -38.5 92.5t-96.5 32.5q-41 0 -76 -12t-86 -42l-56 46l57 325h348v-86h-274l-36 -185q22 16 57.5 27t65.5 11q95 0 159 -55.5t64 -153.5q0 -100 -67.5 -160t-177.5 -60q-69 0 -128 40.5t-89 108.5z" />
    <glyph glyph-name="six.oldstyle" horiz-adv-x="556" 
d="M492 535l-80 -34q-38 75 -111 75q-68 0 -109 -65t-31 -163q29 74 134 74q88 0 146 -67.5t56 -156.5q-4 -88 -68 -149.5t-151 -57.5t-143.5 63.5t-64.5 160.5q-9 120 11 247q14 91 75 146t149 53q62 -3 109 -30t78 -96zM160 212q0 -54 35 -91t87 -39q51 -2 87.5 32.5
t38.5 87.5t-31 90.5t-85 39.5t-91 -33t-41 -87z" />
    <glyph glyph-name="seven.oldstyle" horiz-adv-x="506" 
d="M502 465l-358 -653h-105l311 564h-299v89h451z" />
    <glyph glyph-name="eight.oldstyle" horiz-adv-x="562" 
d="M107 494q0 70 50 118.5t124 48.5t125 -48.5t51 -118.5q0 -69 -51 -115q100 -62 100 -175q0 -89 -65 -151t-160 -62q-96 0 -160.5 61.5t-64.5 151.5q0 54 26.5 100.5t72.5 74.5q-48 46 -48 115zM146 204q0 -52 39 -88t96 -36t96 36t39 88t-39.5 89t-95.5 37h-7
q-54 -2 -91 -38.5t-37 -87.5zM196 494q0 -32 22.5 -55t57.5 -25h8q36 2 59.5 25t23.5 55t-24.5 54.5t-61.5 22.5q-36 0 -60.5 -22.5t-24.5 -54.5z" />
    <glyph glyph-name="nine.oldstyle" horiz-adv-x="534" 
d="M57 -73l80 34q38 -75 111 -75q69 0 108.5 64.5t31.5 163.5q-29 -74 -134 -74q-87 0 -146.5 67.5t-55.5 156.5q4 88 68 149.5t151 57.5t143.5 -63.5t64.5 -160.5q11 -121 -11 -248v1q-15 -90 -76 -146.5t-148 -52.5q-135 6 -187 126zM389 250q0 54 -35 91t-87 39
q-51 2 -87.5 -32.5t-38.5 -87.5t31 -90.5t85 -39.5t91 33t41 87z" />
    <glyph glyph-name="Lslash.sc" horiz-adv-x="434" 
d="M177 388l87 54v-63l-87 -55v-241h235v-83h-319v272l-54 -35v64l54 35v248h84v-196z" />
    <glyph glyph-name="Zcaron.sc" horiz-adv-x="507" 
d="M45 72l302 433h-290v79h399v-72l-305 -432h305v-80h-411v72zM249 715l63 71h75l-97 -134h-80l-98 134h76z" />
    <glyph glyph-name="exclam.sc" horiz-adv-x="262" 
d="M172 584l-8 -429h-65l-8 429h81zM79 46q0 22 15 36.5t36 14.5q22 0 37 -14.5t15 -36.5q0 -20 -15 -34.5t-37 -14.5q-21 0 -36 14.5t-15 34.5z" />
    <glyph glyph-name="ampersand.sc" horiz-adv-x="577" 
d="M252 360h110v74h78v-75h73v-67h-73v-112q0 -53 18 -82t70 -29v-77q-94 0 -137 59q-51 -59 -141 -59q-85 0 -139 54t-54 134q0 97 84 154q-38 38 -38 102q0 63 43.5 105.5t109.5 42.5q44 0 82 -23.5t62 -62.5l-68 -43q-31 51 -76 51q-32 0 -53.5 -20t-21.5 -50
q0 -31 20 -53.5t51 -22.5zM362 292h-111q-47 0 -81 -34t-34 -78q0 -46 32 -77.5t82 -31.5q47 0 78.5 29.5t33.5 74.5v117z" />
    <glyph glyph-name="question.sc" horiz-adv-x="426" 
d="M121 410h-78q0 81 49 130.5t120 49.5q72 0 123.5 -46t51.5 -119q0 -59 -35.5 -103.5t-87.5 -58.5q-30 -10 -44 -22t-14 -37l-1 -49h-80v49q0 58 29.5 89t84.5 48q27 7 47.5 31t20.5 53q0 37 -28.5 61t-66.5 24q-37 0 -64 -28t-27 -72zM107 47q0 24 17 40.5t41 16.5
q25 0 41.5 -16t16.5 -41q0 -24 -16.5 -39.5t-41.5 -15.5q-24 0 -41 15.5t-17 39.5z" />
    <glyph glyph-name="A.sc" horiz-adv-x="570" 
d="M193 223h184q-15 42 -45.5 122t-46.5 122zM406 147h-241q-10 -24 -28.5 -73.5t-27.5 -73.5h-90l222 584h88l222 -584h-89z" />
    <glyph glyph-name="B.sc" horiz-adv-x="553" 
d="M470 431q0 -86 -66 -119q44 -14 70.5 -55.5t26.5 -86.5q0 -72 -47 -121t-125 -49h-240v584h221q75 0 117.5 -41t42.5 -112zM174 345h136q35 0 54.5 24t19.5 60t-22 56.5t-61 20.5h-127v-161zM323 270h-149v-191h151q40 0 65 27.5t25 64.5q0 36 -26 67.5t-66 31.5z" />
    <glyph glyph-name="C.sc" horiz-adv-x="600" 
d="M508 148l63 -53q-86 -104 -223 -104q-124 0 -210.5 87.5t-86.5 212.5q0 124 86.5 211.5t210.5 87.5q134 0 221 -100l-62 -53q-67 72 -159 72q-90 0 -151.5 -63.5t-61.5 -154.5t61.5 -154.5t151.5 -63.5q95 0 160 75z" />
    <glyph glyph-name="D.sc" horiz-adv-x="633" 
d="M316 0h-227v584h227q122 0 192.5 -82.5t70.5 -210.5t-70.5 -209.5t-192.5 -81.5zM173 79h143q85 0 132 59t47 153t-47 154.5t-132 60.5h-143v-427z" />
    <glyph glyph-name="E.sc" horiz-adv-x="499" 
d="M89 584h348v-78h-264v-179h231v-79h-231v-169h272v-79h-356v584z" />
    <glyph glyph-name="F.sc" horiz-adv-x="464" 
d="M89 584h343v-78h-259v-179h205v-79h-205v-248h-84v584z" />
    <glyph glyph-name="G.sc" horiz-adv-x="659" 
d="M545 511l-60 -56q-58 55 -139 55q-89 0 -150 -64t-61 -155t61 -155t150 -64q76 0 126.5 41t54.5 109h-164v74h259q0 -151 -73 -228t-203 -77q-125 0 -210 87.5t-85 212.5q0 124 85 211.5t210 87.5q118 0 199 -79z" />
    <glyph glyph-name="H.sc" horiz-adv-x="620" 
d="M531 584v-584h-85v252h-273v-252h-84v584h84v-255h273v255h85z" />
    <glyph glyph-name="I.sc" horiz-adv-x="262" 
d="M89 584h84v-584h-84v584z" />
    <glyph glyph-name="J.sc" horiz-adv-x="262" 
d="M-74 -201l8 81q19 -8 59 -8q50 0 73 30t23 78v604h84v-604q0 -85 -43.5 -137.5t-136.5 -52.5q-22 0 -67 9z" />
    <glyph glyph-name="K.sc" horiz-adv-x="515" 
d="M238 292l276 -292h-115l-226 242v-242h-84v584h84v-244l187 244h102z" />
    <glyph glyph-name="L.sc" horiz-adv-x="430" 
d="M89 584h84v-505h236v-79h-320v584z" />
    <glyph glyph-name="M.sc" horiz-adv-x="810" 
d="M404 165l203 419h76l71 -584h-84l-51 427l-177 -363h-73l-178 363l-52 -427h-83l71 584h76z" />
    <glyph glyph-name="N.sc" horiz-adv-x="601" 
d="M512 0h-80l-259 428v-428h-84v584h82l257 -423v423h84v-584z" />
    <glyph glyph-name="O.sc" horiz-adv-x="694" 
d="M51 291q0 124 85 211.5t210 87.5t211 -87.5t86 -211.5q0 -125 -86 -212.5t-211 -87.5t-210 87.5t-85 212.5zM135 291q0 -91 60.5 -154.5t150.5 -63.5q89 0 150.5 63.5t61.5 154.5t-61.5 154.5t-150.5 63.5q-90 0 -150.5 -63.5t-60.5 -154.5z" />
    <glyph glyph-name="P.sc" horiz-adv-x="534" 
d="M89 584h234q87 0 131 -54t44 -130q0 -78 -44 -131t-131 -53h-149v-216h-85v584zM322 506h-148v-211h144q48 0 72 31t24 74t-23.5 74.5t-68.5 31.5z" />
    <glyph glyph-name="Q.sc" horiz-adv-x="694" 
d="M507 39l60 -96l-66 -42l-65 104q-49 -14 -90 -14q-125 0 -210 87.5t-85 212.5q0 124 85 211.5t210 87.5t211 -87.5t86 -211.5q0 -77 -37 -144t-99 -108zM396 215l65 -105q45 30 71 77.5t26 103.5q0 91 -61.5 154.5t-150.5 63.5q-90 0 -150.5 -63.5t-60.5 -154.5
q0 -83 57 -145t139 -70q46 0 58 3l-58 95z" />
    <glyph glyph-name="R.sc" horiz-adv-x="546" 
d="M340 220l155 -220h-102l-149 216h-70v-216h-85v584h225q86 0 130.5 -54t44.5 -130q0 -72 -36.5 -122t-112.5 -58zM312 506h-138v-211h134q48 0 71 30.5t23 74.5q0 43 -22.5 74.5t-67.5 31.5z" />
    <glyph glyph-name="S.sc" horiz-adv-x="505" 
d="M53 173h85q0 -41 34 -72t86 -31q51 0 79.5 24t34.5 58q5 41 -23.5 66t-72.5 35l-75 19q-142 33 -142 154q0 72 56.5 118t133.5 46q82 0 135.5 -47.5t53.5 -126.5h-84q0 42 -30 68t-76 26q-43 0 -74 -23.5t-31 -60.5q0 -58 80 -77l75 -19q83 -21 124 -69t33 -116
q-10 -65 -63 -109.5t-134 -44.5q-88 0 -146.5 54.5t-58.5 127.5z" />
    <glyph glyph-name="T.sc" horiz-adv-x="482" 
d="M23 584h436v-79h-176v-505h-85v505h-175v79z" />
    <glyph glyph-name="U.sc" horiz-adv-x="595" 
d="M297 73q54 0 92.5 36t38.5 92v383h84v-383q0 -93 -62.5 -151.5t-152.5 -58.5q-89 0 -151.5 58.5t-62.5 151.5v383h85v-383q0 -56 38 -92t91 -36z" />
    <glyph glyph-name="V.sc" horiz-adv-x="498" 
d="M120 584l130 -438q23 82 70 241t58 197h87l-176 -584h-79l-177 584h87z" />
    <glyph glyph-name="W.sc" horiz-adv-x="785" 
d="M672 584h90l-198 -584h-72l-100 352l-99 -352h-72l-198 584h90l143 -446q14 49 49.5 174t55.5 194h63l105 -368z" />
    <glyph glyph-name="X.sc" horiz-adv-x="546" 
d="M324 313l204 -313h-102l-153 242l-153 -242h-101l203 314l-181 270h101l131 -200l132 200h100z" />
    <glyph glyph-name="Y.sc" horiz-adv-x="563" 
d="M324 0h-86v268l-222 316h99l165 -233l167 233h102l-225 -316v-268z" />
    <glyph glyph-name="Z.sc" horiz-adv-x="507" 
d="M45 72l302 433h-290v79h399v-72l-305 -432h305v-80h-411v72z" />
    <glyph glyph-name="Scaron.sc" horiz-adv-x="505" 
d="M254 715l63 71h76l-98 -134h-80l-98 134h76zM53 173h85q0 -41 34 -72t86 -31q51 0 79.5 24t34.5 58q5 41 -23.5 66t-72.5 35l-75 19q-142 33 -142 154q0 72 56.5 118t133.5 46q82 0 135.5 -47.5t53.5 -126.5h-84q0 42 -30 68t-76 26q-43 0 -74 -23.5t-31 -60.5
q0 -58 80 -77l75 -19q83 -21 124 -69t33 -116q-10 -65 -63 -109.5t-134 -44.5q-88 0 -146.5 54.5t-58.5 127.5z" />
    <glyph glyph-name="OE.sc" horiz-adv-x="964" 
d="M554 584h347v-83h-263v-173h230v-83h-230v-162h272v-83h-356v86q-87 -95 -210 -95t-208 87.5t-85 212.5q0 124 85 211.5t208 87.5q124 0 210 -94v88zM134 291q0 -90 60.5 -152.5t149.5 -62.5q83 0 143.5 61t66.5 144v19q-6 84 -66.5 145t-143.5 61q-89 0 -149.5 -62.5
t-60.5 -152.5z" />
    <glyph glyph-name="Ydieresis.sc" horiz-adv-x="563" 
d="M324 0h-86v268l-222 316h99l165 -233l167 233h102l-225 -316v-268zM156 718q0 23 15.5 37.5t39.5 14.5q23 0 38.5 -14.5t15.5 -37.5t-15.5 -38t-38.5 -15t-39 15t-16 38zM298 718q0 23 15.5 37.5t39.5 14.5t39.5 -14.5t15.5 -37.5t-16 -38t-39 -15t-39 15t-16 38z" />
    <glyph glyph-name="exclamdown.sc" horiz-adv-x="264" 
d="M75 536q0 24 16.5 39.5t40.5 15.5q25 0 41.5 -15.5t16.5 -39.5t-16.5 -40t-41.5 -16q-24 0 -40.5 16t-16.5 40zM91 0l8 429h65l8 -429h-81z" />
    <glyph glyph-name="questiondown.sc" horiz-adv-x="426" 
d="M312 -14h81q0 -82 -48.5 -131.5t-119.5 -49.5q-72 0 -123.5 46t-51.5 120q0 57 35.5 100.5t86.5 60.5q29 10 44 22.5t15 36.5l1 53h80v-53q0 -59 -29.5 -89t-85.5 -48q-23 -6 -38 -23q-28 -26 -28 -60q0 -38 28 -62t66 -24q37 0 62 27.5t25 73.5zM329 351
q0 -24 -16.5 -40t-41.5 -16t-41 16t-16 40t16 39.5t41 15.5t41.5 -15.5t16.5 -39.5z" />
    <glyph glyph-name="Agrave.sc" horiz-adv-x="570" 
d="M193 223h184q-15 42 -45.5 122t-46.5 122zM406 147h-241q-10 -24 -28.5 -73.5t-27.5 -73.5h-90l222 584h88l222 -584h-89zM253 652l-105 134h99l86 -134h-80z" />
    <glyph glyph-name="Aacute.sc" horiz-adv-x="570" 
d="M424 780l-104 -134h-80l85 134h99zM193 223h184q-15 42 -45.5 122t-46.5 122zM406 147h-241q-10 -24 -28.5 -73.5t-27.5 -73.5h-90l222 584h88l222 -584h-89z" />
    <glyph glyph-name="Acircumflex.sc" horiz-adv-x="570" 
d="M193 223h184q-15 42 -45.5 122t-46.5 122zM406 147h-241q-10 -24 -28.5 -73.5t-27.5 -73.5h-90l222 584h88l222 -584h-89zM346 652l-62 72l-61 -72h-75l97 134h80l98 -134h-77z" />
    <glyph glyph-name="Atilde.sc" horiz-adv-x="570" 
d="M193 223h184q-15 42 -45.5 122t-46.5 122zM406 147h-241q-10 -24 -28.5 -73.5t-27.5 -73.5h-90l222 584h88l222 -584h-89zM247 698q-19 0 -20 -36h-57q3 53 25 78t52 25q21 0 45 -18l-1 1q1 0 3 -2l3 -3q15 -12 25 -12q19 0 20 34h57q-3 -54 -25.5 -78t-51.5 -24
q-24 0 -50 22l-10 6q-10 7 -15 7z" />
    <glyph glyph-name="Adieresis.sc" horiz-adv-x="570" 
d="M159 718q0 23 15.5 37.5t39.5 14.5q23 0 38.5 -14.5t15.5 -37.5t-15.5 -38t-38.5 -15t-39 15t-16 38zM301 718q0 23 15.5 37.5t38.5 14.5q24 0 40 -14.5t16 -37.5t-16 -38t-40 -15q-23 0 -38.5 15t-15.5 38zM193 223h184q-15 42 -45.5 122t-46.5 122zM406 147h-241
q-10 -24 -28.5 -73.5t-27.5 -73.5h-90l222 584h88l222 -584h-89z" />
    <glyph glyph-name="Aring.sc" horiz-adv-x="570" 
d="M193 731q0 39 26 65t64 26q40 0 66.5 -26t26.5 -65q0 -38 -26.5 -64t-66.5 -26q-38 0 -64 26t-26 64zM244 731q0 -17 11.5 -28.5t27.5 -11.5q18 0 30.5 11.5t12.5 28.5t-12.5 29t-30.5 12q-16 0 -27.5 -12t-11.5 -29zM193 223h184q-15 42 -45.5 122t-46.5 122zM406 147
h-241q-10 -24 -28.5 -73.5t-27.5 -73.5h-90l222 584h88l222 -584h-89z" />
    <glyph glyph-name="AE.sc" horiz-adv-x="814" 
d="M204 145l-93 -145h-100l370 584h370v-83h-263v-173h229v-83h-229v-162h272v-83h-356v145h-200zM254 226h150v235z" />
    <glyph glyph-name="Ccedilla.sc" horiz-adv-x="601" 
d="M282 -94q5 -11 16.5 -16.5t22.5 -1.5q24 11 15 41l-24 64q-111 12 -186 97t-75 201q0 124 86.5 211.5t210.5 87.5q134 0 221 -100l-62 -53q-67 72 -159 72q-90 0 -151.5 -63.5t-61.5 -154.5t61.5 -154.5t151.5 -63.5q95 0 160 75l63 -53q-79 -93 -204 -103l22 -40
q7 -15 7 -36q0 -54 -55 -81q-13 -6 -34 -6q-24 0 -45.5 15t-32.5 40q-9 23 -9 46l60 -4v-8q0 -4 2 -12z" />
    <glyph glyph-name="Egrave.sc" horiz-adv-x="499" 
d="M89 584h348v-78h-264v-179h231v-79h-231v-169h272v-79h-356v584zM236 652l-105 134h100l85 -134h-80z" />
    <glyph glyph-name="Eacute.sc" horiz-adv-x="499" 
d="M372 786l-105 -134h-80l85 134h100zM89 584h348v-78h-264v-179h231v-79h-231v-169h272v-79h-356v584z" />
    <glyph glyph-name="Ecircumflex.sc" horiz-adv-x="499" 
d="M89 584h348v-78h-264v-179h231v-79h-231v-169h272v-79h-356v584zM312 652l-62 72l-62 -72h-76l98 134h80l97 -134h-75z" />
    <glyph glyph-name="Edieresis.sc" horiz-adv-x="499" 
d="M127 718q0 23 16 37.5t40 14.5q22 0 38 -14.5t16 -37.5t-16 -38t-38 -15q-24 0 -40 15t-16 38zM269 718q0 23 15.5 37.5t39.5 14.5t39.5 -14.5t15.5 -37.5t-16 -38t-39 -15t-39 15t-16 38zM89 584h348v-78h-264v-179h231v-79h-231v-169h272v-79h-356v584z" />
    <glyph glyph-name="Igrave.sc" horiz-adv-x="261" 
d="M89 584h83v-584h-83v584zM95 652l-104 134h100l84 -134h-80z" />
    <glyph glyph-name="Iacute.sc" horiz-adv-x="261" 
d="M270 786l-105 -134h-80l86 134h99zM89 584h83v-584h-83v584z" />
    <glyph glyph-name="Icircumflex.sc" horiz-adv-x="262" 
d="M89 584h84v-584h-84v584zM193 652l-63 72l-61 -72h-76l98 134h80l98 -134h-76z" />
    <glyph glyph-name="Idieresis.sc" horiz-adv-x="261" 
d="M5 718q0 23 15.5 37.5t39.5 14.5t39.5 -14.5t15.5 -37.5t-16 -38t-39 -15t-39 15t-16 38zM147 718q0 23 15.5 37.5t38.5 14.5q24 0 40 -14.5t16 -37.5t-16 -38t-40 -15q-23 0 -38.5 15t-15.5 38zM89 584h83v-584h-83v584z" />
    <glyph glyph-name="Eth.sc" horiz-adv-x="630" 
d="M316 0h-223v262h-78v60h78v262h223q122 0 191 -82.5t69 -210.5q0 -129 -68.5 -210t-191.5 -81zM177 322h138v-60h-138v-179h139q85 0 131 57.5t46 150.5t-46 151.5t-131 58.5h-139v-179z" />
    <glyph glyph-name="Ntilde.sc" horiz-adv-x="601" 
d="M512 0h-80l-259 428v-428h-84v584h82l257 -423v423h84v-584zM263 698q-7 0 -13.5 -9t-6.5 -27h-57q3 54 25 78.5t52 24.5q17 0 46 -18l4 -3q15 -13 24 -13q20 0 20 34h58q-3 -54 -26 -78t-52 -24q-23 0 -49 22l-10 6q-10 7 -15 7z" />
    <glyph glyph-name="Ograve.sc" horiz-adv-x="694" 
d="M51 291q0 124 85 211.5t210 87.5t211 -87.5t86 -211.5q0 -125 -86 -212.5t-211 -87.5t-210 87.5t-85 212.5zM135 291q0 -91 60.5 -154.5t150.5 -63.5q89 0 150.5 63.5t61.5 154.5t-61.5 154.5t-150.5 63.5q-90 0 -150.5 -63.5t-60.5 -154.5zM317 652l-104 134h98l86 -134
h-80z" />
    <glyph glyph-name="Oacute.sc" horiz-adv-x="694" 
d="M471 786l-104 -134h-80l85 134h99zM51 291q0 124 85 211.5t210 87.5t211 -87.5t86 -211.5q0 -125 -86 -212.5t-211 -87.5t-210 87.5t-85 212.5zM135 291q0 -91 60.5 -154.5t150.5 -63.5q89 0 150.5 63.5t61.5 154.5t-61.5 154.5t-150.5 63.5q-90 0 -150.5 -63.5
t-60.5 -154.5z" />
    <glyph glyph-name="Ocircumflex.sc" horiz-adv-x="694" 
d="M51 291q0 124 85 211.5t210 87.5t211 -87.5t86 -211.5q0 -125 -86 -212.5t-211 -87.5t-210 87.5t-85 212.5zM135 291q0 -91 60.5 -154.5t150.5 -63.5q89 0 150.5 63.5t61.5 154.5t-61.5 154.5t-150.5 63.5q-90 0 -150.5 -63.5t-60.5 -154.5zM408 652l-62 72l-61 -72h-76
l97 134h80l97 -134h-75z" />
    <glyph glyph-name="Otilde.sc" horiz-adv-x="694" 
d="M51 291q0 124 85 211.5t210 87.5t211 -87.5t86 -211.5q0 -125 -86 -212.5t-211 -87.5t-210 87.5t-85 212.5zM135 291q0 -91 60.5 -154.5t150.5 -63.5q89 0 150.5 63.5t61.5 154.5t-61.5 154.5t-150.5 63.5q-90 0 -150.5 -63.5t-60.5 -154.5zM309 698q-18 0 -19 -36h-58
q3 53 25 78t52 25q18 0 47 -18l4 -3q15 -13 23 -13q20 0 21 34h57q-3 -54 -25.5 -78t-52.5 -24q-22 0 -48 22l-11 6q-10 7 -15 7z" />
    <glyph glyph-name="Odieresis.sc" horiz-adv-x="694" 
d="M220 718q0 23 16 37.5t40 14.5q22 0 37.5 -14.5t15.5 -37.5t-15.5 -38t-37.5 -15q-24 0 -40 15t-16 38zM363 718q0 23 15.5 37.5t38.5 14.5q24 0 39.5 -14.5t15.5 -37.5t-16 -38t-39 -15t-38.5 15t-15.5 38zM51 291q0 124 85 211.5t210 87.5t211 -87.5t86 -211.5
q0 -125 -86 -212.5t-211 -87.5t-210 87.5t-85 212.5zM135 291q0 -91 60.5 -154.5t150.5 -63.5q89 0 150.5 63.5t61.5 154.5t-61.5 154.5t-150.5 63.5q-90 0 -150.5 -63.5t-60.5 -154.5z" />
    <glyph glyph-name="Oslash.sc" horiz-adv-x="692" 
d="M162 54l-67 -69l-43 44l67 69q-69 85 -69 193q0 124 85 211.5t210 87.5q105 0 187 -66l68 67l43 -42l-67 -68q66 -85 66 -190q0 -125 -86 -212.5t-211 -87.5q-103 0 -183 63zM134 291q0 -76 42 -134l299 307q-56 45 -130 45q-90 0 -150.5 -63.5t-60.5 -154.5zM345 73
q89 0 150.5 63.5t61.5 154.5q0 70 -40 130l-298 -307q53 -41 126 -41z" />
    <glyph glyph-name="Ugrave.sc" horiz-adv-x="595" 
d="M276 652l-105 134h100l85 -134h-80zM297 73q54 0 92.5 36t38.5 92v383h84v-383q0 -93 -62.5 -151.5t-152.5 -58.5q-89 0 -151.5 58.5t-62.5 151.5v383h85v-383q0 -56 38 -92t91 -36z" />
    <glyph glyph-name="Uacute.sc" horiz-adv-x="595" 
d="M297 73q54 0 92.5 36t38.5 92v383h84v-383q0 -93 -62.5 -151.5t-152.5 -58.5q-89 0 -151.5 58.5t-62.5 151.5v383h85v-383q0 -56 38 -92t91 -36zM416 786l-105 -134h-80l86 134h99z" />
    <glyph glyph-name="Ucircumflex.sc" horiz-adv-x="595" 
d="M358 652l-61 72l-61 -72h-76l97 134h80l97 -134h-76zM297 73q54 0 92.5 36t38.5 92v383h84v-383q0 -93 -62.5 -151.5t-152.5 -58.5q-89 0 -151.5 58.5t-62.5 151.5v383h85v-383q0 -56 38 -92t91 -36z" />
    <glyph glyph-name="Udieresis.sc" horiz-adv-x="595" 
d="M297 73q54 0 92.5 36t38.5 92v383h84v-383q0 -93 -62.5 -151.5t-152.5 -58.5q-89 0 -151.5 58.5t-62.5 151.5v383h85v-383q0 -56 38 -92t91 -36zM171 718q0 23 15.5 37.5t39.5 14.5q23 0 38.5 -14.5t15.5 -37.5t-15.5 -38t-38.5 -15t-39 15t-16 38zM313 718
q0 23 15.5 37.5t39.5 14.5t39.5 -14.5t15.5 -37.5t-16 -38t-39 -15t-39 15t-16 38z" />
    <glyph glyph-name="Yacute.sc" horiz-adv-x="563" 
d="M324 0h-86v268l-222 316h99l165 -233l167 233h102l-225 -316v-268zM409 786l-105 -134h-80l85 134h100z" />
    <glyph glyph-name="Thorn.sc" horiz-adv-x="505" 
d="M287 116h-114v-116h-84v584h84v-103h114q78 0 129.5 -49.5t51.5 -131.5t-52 -133t-129 -51zM173 197h114q42 0 69.5 29t27.5 74q0 46 -29.5 72.5t-74.5 28.5q-18 0 -53.5 0.5t-53.5 0.5v-205z" />
    <glyph glyph-name="Amacron.sc" horiz-adv-x="570" 
d="M193 223h184q-15 42 -45.5 122t-46.5 122zM406 147h-241q-10 -24 -28.5 -73.5t-27.5 -73.5h-90l222 584h88l222 -584h-89zM176 746h217v-73h-217v73z" />
    <glyph glyph-name="Abreve.sc" horiz-adv-x="570" 
d="M173 765h68q0 -22 11.5 -35.5t31.5 -13.5t32 15t12 34h69q0 -53 -30.5 -83t-82.5 -30q-56 0 -83.5 32t-27.5 81zM193 223h184q-15 42 -45.5 122t-46.5 122zM406 147h-241q-10 -24 -28.5 -73.5t-27.5 -73.5h-90l222 584h88l222 -584h-89z" />
    <glyph glyph-name="Cacute.sc" horiz-adv-x="600" 
d="M468 786l-105 -134h-80l86 134h99zM508 148l63 -53q-86 -104 -223 -104q-124 0 -210.5 87.5t-86.5 212.5q0 124 86.5 211.5t210.5 87.5q134 0 221 -100l-62 -53q-67 72 -159 72q-90 0 -151.5 -63.5t-61.5 -154.5t61.5 -154.5t151.5 -63.5q95 0 160 75z" />
    <glyph glyph-name="Ccircumflex.sc" horiz-adv-x="600" 
d="M508 148l63 -53q-86 -104 -223 -104q-124 0 -210.5 87.5t-86.5 212.5q0 124 86.5 211.5t210.5 87.5q134 0 221 -100l-62 -53q-67 72 -159 72q-90 0 -151.5 -63.5t-61.5 -154.5t61.5 -154.5t151.5 -63.5q95 0 160 75zM408 652l-62 72l-62 -72h-75l97 134h80l98 -134h-76z
" />
    <glyph glyph-name="Cdotaccent.sc" horiz-adv-x="600" 
d="M278 726q0 23 15.5 37.5t39.5 14.5t40 -14.5t16 -37.5t-16 -38t-40 -15q-23 0 -39 15t-16 38zM508 148l63 -53q-86 -104 -223 -104q-124 0 -210.5 87.5t-86.5 212.5q0 124 86.5 211.5t210.5 87.5q134 0 221 -100l-62 -53q-67 72 -159 72q-90 0 -151.5 -63.5t-61.5 -154.5
t61.5 -154.5t151.5 -63.5q95 0 160 75z" />
    <glyph glyph-name="Ccaron.sc" horiz-adv-x="600" 
d="M334 715l62 71h76l-98 -134h-80l-96 134h75zM508 148l63 -53q-86 -104 -223 -104q-124 0 -210.5 87.5t-86.5 212.5q0 124 86.5 211.5t210.5 87.5q134 0 221 -100l-62 -53q-67 72 -159 72q-90 0 -151.5 -63.5t-61.5 -154.5t61.5 -154.5t151.5 -63.5q95 0 160 75z" />
    <glyph glyph-name="Dcaron.sc" horiz-adv-x="626" 
d="M324 715l62 71h75l-96 -134h-80l-98 134h76zM312 0h-223v584h223q122 0 191 -82.5t69 -210.5q0 -129 -68.5 -210t-191.5 -81zM173 501v-418h139q85 0 131 57.5t46 150.5t-46 151.5t-131 58.5h-139z" />
    <glyph glyph-name="Aogonek.sc" horiz-adv-x="570" 
d="M194 223h183q-15 42 -45.5 122t-46.5 122zM460 4l-55 143h-240q-10 -24 -28.5 -73.5t-27.5 -73.5h-90l222 584h88l222 -584h-39l-25 -71q-5 -13 -0.5 -24.5t15.5 -16.5q25 -8 37 18q3 9 3 12v8l59 4q0 -22 -8 -46q-24 -55 -79 -55q-21 0 -33 6q-55 25 -55 81q0 21 7 36z
" />
    <glyph glyph-name="Emacron.sc" horiz-adv-x="499" 
d="M89 584h348v-78h-264v-179h231v-79h-231v-169h272v-79h-356v584zM157 746h217v-73h-217v73z" />
    <glyph glyph-name="Ebreve.sc" horiz-adv-x="499" 
d="M137 765h68q0 -21 12 -35t33 -14q19 0 31 15t12 34h69q0 -53 -30.5 -83t-81.5 -30q-56 0 -84.5 32.5t-28.5 80.5zM89 584h348v-78h-264v-179h231v-79h-231v-169h272v-79h-356v584z" />
    <glyph glyph-name="Edotaccent.sc" horiz-adv-x="499" 
d="M213 726q0 23 15.5 37.5t39.5 14.5t40.5 -14.5t16.5 -37.5t-16.5 -38t-40.5 -15q-23 0 -39 15t-16 38zM89 584h348v-78h-264v-179h231v-79h-231v-169h272v-79h-356v584z" />
    <glyph glyph-name="Ecaron.sc" horiz-adv-x="499" 
d="M250 715l62 71h75l-97 -134h-80l-98 134h76zM89 584h348v-78h-264v-179h231v-79h-231v-169h272v-79h-356v584z" />
    <glyph glyph-name="Gcircumflex.sc" horiz-adv-x="659" 
d="M545 511l-60 -56q-58 55 -139 55q-89 0 -150 -64t-61 -155t61 -155t150 -64q76 0 126.5 41t54.5 109h-164v74h259q0 -151 -73 -228t-203 -77q-125 0 -210 87.5t-85 212.5q0 124 85 211.5t210 87.5q118 0 199 -79zM394 652l-62 72l-60 -72h-76l97 134h79l98 -134h-76z" />
    <glyph glyph-name="Gbreve.sc" horiz-adv-x="659" 
d="M220 765h69q0 -22 11.5 -35.5t31.5 -13.5t31.5 15t11.5 34h71q0 -53 -31 -83t-83 -30q-56 0 -84 32.5t-28 80.5zM545 511l-60 -56q-58 55 -139 55q-89 0 -150 -64t-61 -155t61 -155t150 -64q76 0 126.5 41t54.5 109h-164v74h259q0 -151 -73 -228t-203 -77
q-125 0 -210 87.5t-85 212.5q0 124 85 211.5t210 87.5q118 0 199 -79z" />
    <glyph glyph-name="Eogonek.sc" horiz-adv-x="499" 
d="M440 0l-21 -62q-5 -11 -0.5 -23.5t15.5 -17.5q11 -4 22 1.5t16 16.5q2 8 2 13v8l60 3q0 -23 -9 -46q-11 -25 -32 -40t-46 -15q-19 0 -34 7q-54 23 -54 80q0 19 6 36l21 39h-297v584h349v-78h-265v-179h231v-79h-231v-169h272l-2 -78z" />
    <glyph glyph-name="Dcroat.sc" horiz-adv-x="631" 
d="M317 0h-223v260h-78v66h78v258h223q122 0 191 -82.5t69 -210.5q0 -129 -68.5 -210t-191.5 -81zM178 326h138v-66h-138v-177h139q85 0 131 57.5t46 150.5t-46 151.5t-131 58.5h-139v-175z" />
    <glyph glyph-name="Gdotaccent.sc" horiz-adv-x="659" 
d="M266 726q0 23 15.5 37.5t39.5 14.5t40 -14.5t16 -37.5t-16 -38t-40 -15q-23 0 -39 15t-16 38zM545 511l-60 -56q-58 55 -139 55q-89 0 -150 -64t-61 -155t61 -155t150 -64q76 0 126.5 41t54.5 109h-164v74h259q0 -151 -73 -228t-203 -77q-125 0 -210 87.5t-85 212.5
q0 124 85 211.5t210 87.5q118 0 199 -79z" />
    <glyph glyph-name="Hcircumflex.sc" horiz-adv-x="620" 
d="M531 584v-584h-85v252h-273v-252h-84v584h84v-255h273v255h85zM371 652l-62 72l-61 -72h-75l97 134h80l97 -134h-76z" />
    <glyph glyph-name="Hbar.sc" horiz-adv-x="628" 
d="M534 479h59v-52h-59v-427h-84v250h-273v-250h-84v427h-57v52h57v105h84v-105h273v105h84v-105zM177 330h273v97h-273v-97z" />
    <glyph glyph-name="Itilde.sc" horiz-adv-x="262" 
d="M89 584h84v-584h-84v584zM94 698q-19 0 -20 -36h-57q3 53 25 78t52 25q17 0 46 -18l4 -3q15 -13 24 -13q20 0 21 34h57q-3 -54 -25.5 -78t-52.5 -24q-23 0 -49 22l-10 6q-10 7 -15 7z" />
    <glyph glyph-name="Imacron.sc" horiz-adv-x="262" 
d="M89 584h84v-584h-84v584zM23 746h217v-73h-217v73z" />
    <glyph glyph-name="Iogonek.sc" horiz-adv-x="262" 
d="M139 0l-24 -71q-12 -29 14 -41q26 -9 38 18q3 9 3 12v8l59 4q0 -23 -9 -46q-11 -25 -32 -40t-46 -15q-21 0 -33 6q-56 26 -56 81q0 21 7 36l29 53v579h84v-584h-34z" />
    <glyph glyph-name="IJ.sc" horiz-adv-x="524" 
d="M89 584h84v-584h-84v584zM188 -201l8 81q19 -8 59 -8q50 0 73 30t23 78v604h84v-604q0 -85 -43.5 -137.5t-136.5 -52.5q-22 0 -67 9z" />
    <glyph glyph-name="Jcircumflex.sc" horiz-adv-x="262" 
d="M186 652l-62 72l-61 -72h-76l98 134h80l96 -134h-75zM-74 -201l8 81q19 -8 59 -8q50 0 73 30t23 78v604h84v-604q0 -85 -43.5 -137.5t-136.5 -52.5q-22 0 -67 9z" />
    <glyph glyph-name="Lacute.sc" horiz-adv-x="430" 
d="M275 777l-104 -135h-80l85 135h99zM89 584h84v-505h236v-79h-320v584z" />
    <glyph glyph-name="Lcaron.sc" horiz-adv-x="431" 
d="M89 584h84v-505h236v-79h-320v584zM285 423l-55 14q38 55 38 112q0 8 -2 30h82q0 -104 -63 -156z" />
    <glyph glyph-name="Ldot.sc" horiz-adv-x="430" 
d="M89 584h84v-505h236v-79h-320v584zM239 222q0 21 15 35.5t36 14.5q22 0 37.5 -14.5t15.5 -35.5t-15.5 -35t-37.5 -14q-21 0 -36 14t-15 35z" />
    <glyph glyph-name="Nacute.sc" horiz-adv-x="601" 
d="M418 786l-105 -134h-80l85 134h100zM512 0h-80l-259 428v-428h-84v584h82l257 -423v423h84v-584z" />
    <glyph glyph-name="Ncaron.sc" horiz-adv-x="601" 
d="M299 715l62 71h75l-96 -134h-80l-98 134h76zM512 0h-80l-259 428v-428h-84v584h82l257 -423v423h84v-584z" />
    <glyph glyph-name="Omacron.sc" horiz-adv-x="694" 
d="M51 291q0 124 85 211.5t210 87.5t211 -87.5t86 -211.5q0 -125 -86 -212.5t-211 -87.5t-210 87.5t-85 212.5zM135 291q0 -91 60.5 -154.5t150.5 -63.5q89 0 150.5 63.5t61.5 154.5t-61.5 154.5t-150.5 63.5q-90 0 -150.5 -63.5t-60.5 -154.5zM238 746h217v-73h-217v73z
" />
    <glyph glyph-name="Obreve.sc" horiz-adv-x="694" 
d="M234 765h67q0 -21 12 -35t33 -14q20 0 31.5 15t11.5 34h69q0 -53 -30.5 -83t-81.5 -30q-56 0 -84 32.5t-28 80.5zM51 291q0 124 85 211.5t210 87.5t211 -87.5t86 -211.5q0 -125 -86 -212.5t-211 -87.5t-210 87.5t-85 212.5zM135 291q0 -91 60.5 -154.5t150.5 -63.5
q89 0 150.5 63.5t61.5 154.5t-61.5 154.5t-150.5 63.5q-90 0 -150.5 -63.5t-60.5 -154.5z" />
    <glyph glyph-name="Ohungarumlaut.sc" horiz-adv-x="694" 
d="M399 786l-79 -134h-77l70 134h86zM519 786l-90 -134h-75l79 134h86zM51 291q0 124 85 211.5t210 87.5t211 -87.5t86 -211.5q0 -125 -86 -212.5t-211 -87.5t-210 87.5t-85 212.5zM135 291q0 -91 60.5 -154.5t150.5 -63.5q89 0 150.5 63.5t61.5 154.5t-61.5 154.5
t-150.5 63.5q-90 0 -150.5 -63.5t-60.5 -154.5z" />
    <glyph glyph-name="Racute.sc" horiz-adv-x="546" 
d="M363 786l-104 -134h-80l86 134h98zM340 220l155 -220h-102l-149 216h-70v-216h-85v584h225q86 0 130.5 -54t44.5 -130q0 -72 -36.5 -122t-112.5 -58zM312 506h-138v-211h134q48 0 71 30.5t23 74.5q0 43 -22.5 74.5t-67.5 31.5z" />
    <glyph glyph-name="Rcaron.sc" horiz-adv-x="546" 
d="M272 715l62 71h75l-97 -134h-80l-98 134h76zM340 220l155 -220h-102l-149 216h-70v-216h-85v584h225q86 0 130.5 -54t44.5 -130q0 -72 -36.5 -122t-112.5 -58zM312 506h-138v-211h134q48 0 71 30.5t23 74.5q0 43 -22.5 74.5t-67.5 31.5z" />
    <glyph glyph-name="Sacute.sc" horiz-adv-x="505" 
d="M368 786l-105 -134h-80l85 134h100zM53 173h85q0 -41 34 -72t86 -31q51 0 79.5 24t34.5 58q5 41 -23.5 66t-72.5 35l-75 19q-142 33 -142 154q0 72 56.5 118t133.5 46q82 0 135.5 -47.5t53.5 -126.5h-84q0 42 -30 68t-76 26q-43 0 -74 -23.5t-31 -60.5q0 -58 80 -77
l75 -19q83 -21 124 -69t33 -116q-10 -65 -63 -109.5t-134 -44.5q-88 0 -146.5 54.5t-58.5 127.5z" />
    <glyph glyph-name="Scircumflex.sc" horiz-adv-x="505" 
d="M307 652l-61 72l-62 -72h-76l98 134h80l97 -134h-76zM53 173h85q0 -41 34 -72t86 -31q51 0 79.5 24t34.5 58q5 41 -23.5 66t-72.5 35l-75 19q-142 33 -142 154q0 72 56.5 118t133.5 46q82 0 135.5 -47.5t53.5 -126.5h-84q0 42 -30 68t-76 26q-43 0 -74 -23.5t-31 -60.5
q0 -58 80 -77l75 -19q83 -21 124 -69t33 -116q-10 -65 -63 -109.5t-134 -44.5q-88 0 -146.5 54.5t-58.5 127.5z" />
    <glyph glyph-name="Scedilla.sc" horiz-adv-x="506" 
d="M229 -94q5 -11 16 -16.5t22 -1.5q11 5 15.5 17t-0.5 24l-26 62q-87 0 -145 55t-58 127h85q0 -40 34.5 -71.5t85.5 -31.5t79.5 24t34.5 58q5 41 -23.5 66t-72.5 35l-75 19q-142 33 -142 154q0 72 56.5 118t133.5 46q82 0 135.5 -47.5t53.5 -126.5h-84q0 42 -30 68t-76 26
q-43 0 -74 -23.5t-31 -60.5q0 -58 80 -77l75 -19q83 -21 124 -69t33 -116q-9 -53 -46.5 -94t-96.5 -53l23 -46q7 -15 7 -36q0 -56 -55 -81q-13 -6 -34 -6q-24 0 -45.5 15t-32.5 40q-8 26 -8 46l60 -4v-8q0 -10 2 -12z" />
    <glyph glyph-name="Utilde.sc" horiz-adv-x="595" 
d="M260 698q-7 0 -13 -9t-7 -27h-57q3 53 25 78t52 25q23 0 48 -19l4 -4q18 -11 23 -11q20 0 21 34h56q-3 -54 -25.5 -78t-51.5 -24q-24 0 -50 22q-3 0 -6 3q-14 10 -19 10zM297 73q54 0 92.5 36t38.5 92v383h84v-383q0 -93 -62.5 -151.5t-152.5 -58.5q-89 0 -151.5 58.5
t-62.5 151.5v383h85v-383q0 -56 38 -92t91 -36z" />
    <glyph glyph-name="Umacron.sc" horiz-adv-x="595" 
d="M189 746h217v-73h-217v73zM297 73q54 0 92.5 36t38.5 92v383h84v-383q0 -93 -62.5 -151.5t-152.5 -58.5q-89 0 -151.5 58.5t-62.5 151.5v383h85v-383q0 -56 38 -92t91 -36z" />
    <glyph glyph-name="Ubreve.sc" horiz-adv-x="595" 
d="M297 73q54 0 92.5 36t38.5 92v383h84v-383q0 -93 -62.5 -151.5t-152.5 -58.5q-89 0 -151.5 58.5t-62.5 151.5v383h85v-383q0 -56 38 -92t91 -36zM185 765h68q0 -21 12 -35t32 -14q19 0 31 15t12 34h70q0 -53 -30.5 -83t-82.5 -30q-57 0 -84.5 32t-27.5 81z" />
    <glyph glyph-name="Uring.sc" horiz-adv-x="595" 
d="M297 73q54 0 92.5 36t38.5 92v383h84v-383q0 -93 -62.5 -151.5t-152.5 -58.5q-89 0 -151.5 58.5t-62.5 151.5v383h85v-383q0 -56 38 -92t91 -36zM205 731q0 39 26.5 65t64.5 26q40 0 66.5 -26t26.5 -65q0 -38 -26.5 -64t-66.5 -26q-38 0 -64.5 26t-26.5 64zM256 731
q0 -17 12 -28.5t28 -11.5q18 0 30.5 11.5t12.5 28.5t-13 29t-30 12q-16 0 -28 -12t-12 -29z" />
    <glyph glyph-name="Uhungarumlaut.sc" horiz-adv-x="595" 
d="M297 73q54 0 92.5 36t38.5 92v383h84v-383q0 -93 -62.5 -151.5t-152.5 -58.5q-89 0 -151.5 58.5t-62.5 151.5v383h85v-383q0 -56 38 -92t91 -36zM339 786l-79 -134h-76l70 134h85zM459 786l-89 -134h-76l79 134h86z" />
    <glyph glyph-name="Uogonek.sc" horiz-adv-x="597" 
d="M358 -94l1 1q2 6 2 11v8l60 4q0 -25 -8 -46q-12 -26 -33.5 -40.5t-45.5 -14.5q-22 0 -34 6q-55 27 -55 81q0 21 7 36l22 41q-82 8 -136 65t-54 143v383h85v-383q0 -56 38 -92t91 -36q54 0 92.5 36t38.5 92v383h84v-383q0 -85 -52 -141.5t-132 -66.5q-3 -12 -11 -32
t-12 -32q-5 -13 -0.5 -24.5t15.5 -16.5q25 -8 37 18z" />
    <glyph glyph-name="Wcircumflex.sc" horiz-adv-x="785" 
d="M672 584h90l-198 -584h-72l-100 352l-99 -352h-72l-198 584h90l143 -446q14 49 49.5 174t55.5 194h63l105 -368zM454 652l-62 72l-61 -72h-76l97 134h80l98 -134h-76z" />
    <glyph glyph-name="Ycircumflex.sc" horiz-adv-x="563" 
d="M343 652l-62 72l-61 -72h-75l97 134h80l98 -134h-77zM324 0h-86v268l-222 316h99l165 -233l167 233h102l-225 -316v-268z" />
    <glyph glyph-name="Tcaron.sc" horiz-adv-x="482" 
d="M241 715l61 71h76l-98 -134h-80l-97 134h76zM23 584h436v-79h-176v-505h-85v505h-175v79z" />
    <glyph glyph-name="Tbar.sc" horiz-adv-x="483" 
d="M283 350h112v-57h-112v-293h-84v293h-110v57h110v151h-177v83h439v-83h-178v-151z" />
    <glyph glyph-name="Zacute.sc" horiz-adv-x="507" 
d="M45 72l302 433h-290v79h399v-72l-305 -432h305v-80h-411v72zM376 786l-106 -134h-80l86 134h100z" />
    <glyph glyph-name="Zdotaccent.sc" horiz-adv-x="507" 
d="M45 72l302 433h-290v79h399v-72l-305 -432h305v-80h-411v72zM194 726q0 23 16 37.5t40 14.5t40 -14.5t16 -37.5t-16 -38t-40 -15t-40 15t-16 38z" />
    <glyph glyph-name="Wgrave.sc" horiz-adv-x="785" 
d="M672 584h90l-198 -584h-72l-100 352l-99 -352h-72l-198 584h90l143 -446q14 49 49.5 174t55.5 194h63l105 -368zM357 652l-106 134h100l86 -134h-80z" />
    <glyph glyph-name="Wacute.sc" horiz-adv-x="785" 
d="M532 786l-105 -134h-80l86 134h99zM672 584h90l-198 -584h-72l-100 352l-99 -352h-72l-198 584h90l143 -446q14 49 49.5 174t55.5 194h63l105 -368z" />
    <glyph glyph-name="Wdieresis.sc" horiz-adv-x="785" 
d="M266 718q0 23 15.5 37.5t39.5 14.5t39.5 -14.5t15.5 -37.5t-16 -38t-39 -15t-39 15t-16 38zM408 718q0 23 16 37.5t40 14.5q23 0 38.5 -14.5t15.5 -37.5t-15.5 -38t-38.5 -15q-24 0 -40 15t-16 38zM672 584h90l-198 -584h-72l-100 352l-99 -352h-72l-198 584h90l143 -446
q14 49 49.5 174t55.5 194h63l105 -368z" />
    <glyph glyph-name="Aringacute.sc" horiz-adv-x="570" 
d="M420 921l-87 -112q43 -25 43 -78q0 -38 -26.5 -64t-66.5 -26q-38 0 -64 26t-26 64q0 31 17 54.5t44 31.5l66 104h100zM244 731q0 -17 11.5 -28.5t27.5 -11.5q18 0 30.5 11.5t12.5 28.5t-12.5 29t-30.5 12q-16 0 -27.5 -12t-11.5 -29zM193 223h184q-15 42 -45.5 122
t-46.5 122zM406 147h-241q-10 -24 -28.5 -73.5t-27.5 -73.5h-90l222 584h88l222 -584h-89z" />
    <glyph glyph-name="AEacute.sc" horiz-adv-x="814" 
d="M582 786l-105 -134h-80l86 134h99zM204 145l-93 -145h-100l370 584h370v-83h-263v-173h229v-83h-229v-162h272v-83h-356v145h-200zM254 226h150v235z" />
    <glyph glyph-name="Oslashacute.sc" horiz-adv-x="692" 
d="M482 786l-105 -134h-80l86 134h99zM162 54l-67 -69l-43 44l67 69q-69 85 -69 193q0 124 85 211.5t210 87.5q105 0 187 -66l68 67l43 -42l-67 -68q66 -85 66 -190q0 -125 -86 -212.5t-211 -87.5q-103 0 -183 63zM134 291q0 -76 42 -134l299 307q-56 45 -130 45
q-90 0 -150.5 -63.5t-60.5 -154.5zM345 73q89 0 150.5 63.5t61.5 154.5q0 70 -40 130l-298 -307q53 -41 126 -41z" />
    <glyph glyph-name="Ibreve.sc" horiz-adv-x="262" 
d="M19 765h67q0 -21 12 -35t32 -14t32 15t12 34h69q0 -53 -30.5 -83t-82.5 -30q-56 0 -83.5 32t-27.5 81zM89 584h84v-584h-84v584z" />
    <glyph glyph-name="Eng.sc" horiz-adv-x="599" 
d="M425 -17v26l-253 415v-424h-83v584h81l255 -423v423h85v-578q0 -213 -181 -213q-37 0 -66 10l7 83l49 -7q32 -2 53 8q53 22 53 96z" />
    <glyph glyph-name="Ygrave.sc" horiz-adv-x="563" 
d="M249 652l-105 134h99l86 -134h-80zM324 0h-86v268l-222 316h99l165 -233l167 233h102l-225 -316v-268z" />
    <glyph glyph-name="Gcommaaccent.sc" horiz-adv-x="659" 
d="M545 511l-60 -56q-58 55 -139 55q-89 0 -150 -64t-61 -155t61 -155t150 -64q76 0 126.5 41t54.5 109h-164v74h259q0 -151 -73 -228t-203 -77q-125 0 -210 87.5t-85 212.5q0 124 85 211.5t210 87.5q118 0 199 -79zM321 -210l-54 17q43 60 43 116q0 12 -2 36h81
q0 -111 -68 -169z" />
    <glyph glyph-name="Kcommaaccent.sc" horiz-adv-x="515" 
d="M266 -210l-54 17q43 60 43 116q0 12 -2 36h81q0 -111 -68 -169zM238 292l276 -292h-115l-226 242v-242h-84v584h84v-244l187 244h102z" />
    <glyph glyph-name="Lcommaaccent.sc" horiz-adv-x="430" 
d="M89 584h84v-505h236v-79h-320v584zM219 -210l-54 17q43 60 43 116q0 12 -2 36h81q0 -111 -68 -169z" />
    <glyph glyph-name="Ncommaaccent.sc" horiz-adv-x="601" 
d="M512 0h-80l-259 428v-428h-84v584h82l257 -423v423h84v-584zM284 -210l-54 17q43 60 43 116q0 12 -2 36h81q0 -111 -68 -169z" />
    <glyph glyph-name="Rcommaaccent.sc" horiz-adv-x="546" 
d="M340 220l155 -220h-102l-149 216h-70v-216h-85v584h225q86 0 130.5 -54t44.5 -130q0 -72 -36.5 -122t-112.5 -58zM312 506h-138v-211h134q48 0 71 30.5t23 74.5q0 43 -22.5 74.5t-67.5 31.5zM262 -210l-54 17q43 60 43 116q0 12 -2 36h81q0 -111 -68 -169z" />
    <glyph glyph-name="Tcommaaccent.sc" horiz-adv-x="482" 
d="M23 584h436v-79h-176v-505h-85v505h-175v79zM210 -210l-54 17q43 60 43 116q0 12 -2 36h81q0 -111 -68 -169z" />
    <glyph glyph-name="Scommaaccent.sc" horiz-adv-x="505" 
d="M53 173h85q0 -41 34 -72t86 -31q51 0 79.5 24t34.5 58q5 41 -23.5 66t-72.5 35l-75 19q-142 33 -142 154q0 72 56.5 118t133.5 46q82 0 135.5 -47.5t53.5 -126.5h-84q0 42 -30 68t-76 26q-43 0 -74 -23.5t-31 -60.5q0 -58 80 -77l75 -19q83 -21 124 -69t33 -116
q-10 -65 -63 -109.5t-134 -44.5q-88 0 -146.5 54.5t-58.5 127.5zM235 -210l-54 17q43 60 43 116q0 12 -2 36h81q0 -111 -68 -169z" />
    <glyph glyph-name="Idotaccent.sc" horiz-adv-x="262" 
d="M75 726q0 23 16 37.5t40 14.5t40 -14.5t16 -37.5t-16 -38t-40 -15t-40 15t-16 38zM89 584h84v-584h-84v584z" />
    <glyph glyph-name="zero.numr" horiz-adv-x="364" 
d="M39 455q0 94 32 148.5t111 54.5t111 -54.5t32 -148.5q0 -200 -143 -200t-143 200zM98 455q0 -142 84 -142t84 142q0 144 -84 144t-84 -144z" />
    <glyph glyph-name="one.numr" horiz-adv-x="209" 
d="M94 260v305l-68 -35v57l128 70v-397h-60z" />
    <glyph glyph-name="two.numr" horiz-adv-x="319" 
d="M36 288l158 191q27 34 27 61t-19 44t-47 17q-27 0 -46.5 -17.5t-24.5 -47.5l-53 14q8 49 42.5 78.5t81.5 29.5q53 0 88.5 -33t35.5 -85q0 -56 -43 -102l-101 -119h145v-59h-244v28z" />
    <glyph glyph-name="three.numr" horiz-adv-x="321" 
d="M88 563l-45 36q17 29 48.5 45t67.5 14q49 -2 80.5 -34.5t29.5 -75.5q0 -44 -41 -76q56 -29 56 -96q0 -57 -39.5 -88.5t-96.5 -31.5q-37 0 -72.5 22t-51.5 56l50 29q9 -20 32.5 -34t45.5 -14q31 0 51 16.5t21 43.5q2 27 -15.5 46.5t-46.5 19.5h-56v57h47q41 0 50 41
q3 26 -11.5 43t-44.5 17q-35 0 -59 -36z" />
    <glyph glyph-name="four.numr" horiz-adv-x="361" 
d="M278 339v-79h-59v79h-203l218 314h44v-258h56v-56h-56zM118 395h101v150z" />
    <glyph glyph-name="five.numr" horiz-adv-x="340" 
d="M27 337l49 35q11 -28 35.5 -44t52.5 -16q40 0 63 21.5t23 53.5q0 33 -23 50.5t-52 17.5q-46 0 -111 -33l-18 23l35 207h201v-56h-152l-18 -96q29 13 63 13q56 0 94.5 -33t38.5 -93q0 -61 -39.5 -97t-104.5 -36q-43 0 -80 22t-57 61z" />
    <glyph glyph-name="six.numr" horiz-adv-x="338" 
d="M300 576l-53 -22q-22 46 -64 46q-38 0 -61.5 -37t-22.5 -95q24 47 80 47q53 0 89 -41t34 -96q-4 -55 -41.5 -91t-91.5 -34t-88.5 37.5t-39.5 97.5q-2 45 1 83t15 85.5t44 74t82 25.5q39 -3 68 -19.5t49 -60.5zM102 387q0 -31 20.5 -52t49.5 -22q29 -2 49 18t22 50
q2 31 -17 52t-48 22q-31 1 -52.5 -18.5t-23.5 -49.5z" />
    <glyph glyph-name="seven.numr" horiz-adv-x="322" 
d="M312 653l-215 -393h-69l183 334h-174v59h275z" />
    <glyph glyph-name="eight.numr" horiz-adv-x="342" 
d="M65 555q0 43 30.5 73t75.5 30t76.5 -30t31.5 -73q0 -35 -29 -67q57 -37 57 -105q0 -54 -39 -91t-97 -37t-97 37t-39 91q0 69 56 105q-26 29 -26 67zM94 383q0 -29 22 -49.5t55 -20.5q32 0 54.5 20.5t22.5 49.5q0 30 -22.5 52.5t-54.5 22.5h-4q-31 0 -52 -22.5t-21 -52.5z
M124 555q0 -18 12 -31.5t32 -15.5h5q20 2 33 15.5t13 31.5t-14 31t-34 13t-33.5 -13t-13.5 -31z" />
    <glyph glyph-name="nine.numr" horiz-adv-x="337" 
d="M38 334l53 22q22 -46 64 -46q38 0 61.5 37t22.5 95q-24 -47 -80 -47q-53 0 -89 41t-34 96t41 91t92 34q54 -2 88.5 -37.5t39.5 -97.5q2 -45 -1 -83t-15 -85.5t-44 -74t-82 -25.5q-82 2 -117 80zM236 523q0 31 -20.5 52t-49.5 22q-29 2 -49 -18t-22 -50q-2 -31 17 -52
t48 -22q31 -1 52.5 18.5t23.5 49.5z" />
    <glyph glyph-name="zero.dnom" horiz-adv-x="364" 
d="M39 195q0 94 32 148.5t111 54.5t111 -54.5t32 -148.5q0 -200 -143 -200t-143 200zM98 195q0 -142 84 -142t84 142q0 144 -84 144t-84 -144z" />
    <glyph glyph-name="one.dnom" horiz-adv-x="209" 
d="M94 0v305l-68 -35v57l128 70v-397h-60z" />
    <glyph glyph-name="two.dnom" horiz-adv-x="319" 
d="M36 28l158 191q27 34 27 61t-19 44t-47 17q-27 0 -46.5 -17.5t-24.5 -47.5l-53 14q8 49 42.5 78.5t81.5 29.5q53 0 88.5 -33t35.5 -85q0 -56 -43 -102l-101 -119h145v-59h-244v28z" />
    <glyph glyph-name="three.dnom" horiz-adv-x="321" 
d="M88 303l-45 36q17 29 48.5 45t67.5 14q49 -2 80.5 -34.5t29.5 -75.5q0 -44 -41 -76q56 -29 56 -96q0 -57 -39.5 -88.5t-96.5 -31.5q-37 0 -72.5 22t-51.5 56l50 29q9 -20 32.5 -34t45.5 -14q31 0 51 16.5t21 43.5q2 27 -15.5 46.5t-46.5 19.5h-56v57h47q41 0 50 41
q3 26 -11.5 43t-44.5 17q-35 0 -59 -36z" />
    <glyph glyph-name="four.dnom" horiz-adv-x="361" 
d="M278 79v-79h-59v79h-203l218 314h44v-258h56v-56h-56zM118 135h101v150z" />
    <glyph glyph-name="five.dnom" horiz-adv-x="340" 
d="M27 77l49 35q11 -28 35.5 -44t52.5 -16q40 0 63 21.5t23 53.5q0 33 -23 50.5t-52 17.5q-46 0 -111 -33l-18 23l35 207h201v-56h-152l-18 -96q29 13 63 13q56 0 94.5 -33t38.5 -93q0 -61 -39.5 -97t-104.5 -36q-43 0 -80 22t-57 61z" />
    <glyph glyph-name="six.dnom" horiz-adv-x="338" 
d="M300 316l-53 -22q-22 46 -64 46q-38 0 -61.5 -37t-22.5 -95q24 47 80 47q53 0 89 -41t34 -96q-4 -55 -41.5 -91t-91.5 -34t-88.5 37.5t-39.5 97.5q-2 45 1 83t15 85.5t44 74t82 25.5q39 -3 68 -19.5t49 -60.5zM102 127q0 -31 20.5 -52t49.5 -22q29 -2 49 18t22 50
q2 31 -17 52t-48 22q-31 1 -52.5 -18.5t-23.5 -49.5z" />
    <glyph glyph-name="seven.dnom" horiz-adv-x="321" 
d="M312 393l-215 -393h-69l183 334h-174v59h275z" />
    <glyph glyph-name="eight.dnom" horiz-adv-x="342" 
d="M65 295q0 43 30.5 73t75.5 30t76.5 -30t31.5 -73q0 -35 -29 -67q57 -37 57 -105q0 -54 -39 -91t-97 -37t-97 37t-39 91q0 69 56 105q-26 29 -26 67zM94 123q0 -29 22 -49.5t55 -20.5q32 0 54.5 20.5t22.5 49.5q0 30 -22.5 52.5t-54.5 22.5h-4q-31 0 -52 -22.5t-21 -52.5z
M124 295q0 -18 12 -31.5t32 -15.5h5q20 2 33 15.5t13 31.5t-14 31t-34 13t-33.5 -13t-13.5 -31z" />
    <glyph glyph-name="nine.dnom" horiz-adv-x="337" 
d="M38 74l53 22q22 -46 64 -46q38 0 61.5 37t22.5 95q-24 -47 -80 -47q-53 0 -89 41t-34 96t41 91t92 34q54 -2 88.5 -37.5t39.5 -97.5q2 -45 -1 -83t-15 -85.5t-44 -74t-82 -25.5q-82 2 -117 80zM236 263q0 31 -20.5 52t-49.5 22q-29 2 -49 -18t-22 -50q-2 -31 17 -52
t48 -22q31 -1 52.5 18.5t23.5 49.5z" />
    <glyph glyph-name="l.alt1" horiz-adv-x="279" 
d="M277 85v-85h-39q-168 0 -168 200v521h92v-520q0 -24 2.5 -41t10.5 -36t26 -29t45 -10h31z" />
    <glyph glyph-name="a.alt1" horiz-adv-x="540" 
d="M218 71q42 0 90 21t71 58v34q-69 24 -139 24q-114 0 -114 -73q0 -28 23 -46t69 -18zM119 335l-56 54q62 88 194 88q101 0 157 -50t56 -146v-60v-221h-90v60q-25 -34 -70.5 -52t-93.5 -18q-81 0 -128.5 38.5t-47.5 106.5q0 66 48 106.5t152 40.5q59 0 140 -25v24
q0 52 -34 83t-96 31q-35 0 -71 -16t-60 -44z" />
    <glyph glyph-name="y.alt1" horiz-adv-x="508" 
d="M179 -48l26 62l-187 453h97l139 -336l140 336h97l-229 -550q-37 -83 -77 -116.5t-112 -33.5q-30 0 -55 7v80q19 -3 53 -3q42 0 62.5 22t45.5 79z" />
    <glyph glyph-name="lslash.alt1" horiz-adv-x="290" 
d="M286 85v-85h-39q-168 0 -168 200v118l-66 -42v64l66 42v339h92v-280l76 49v-64l-76 -49v-176q0 -24 2.5 -41t10.5 -36t26 -29t45 -10h31z" />
    <glyph glyph-name="lacute.alt1" horiz-adv-x="279" 
d="M277 931l-119 -154h-87l97 154h109zM277 85v-85h-39q-168 0 -168 200v521h92v-520q0 -24 2.5 -41t10.5 -36t26 -29t45 -10h31z" />
    <glyph glyph-name="lcommaaccent.alt1" horiz-adv-x="279" 
d="M168 -250l-58 19q30 41 41 77.5t5 96.5h90q0 -132 -78 -193zM277 85v-85h-39q-168 0 -168 200v521h92v-520q0 -24 2.5 -41t10.5 -36t26 -29t45 -10h31z" />
    <glyph glyph-name="lcaron.alt1" horiz-adv-x="279" 
d="M262 528l-58 19q30 41 41 77.5t5 96.5h90q0 -132 -78 -193zM277 85v-85h-39q-168 0 -168 200v521h92v-520q0 -24 2.5 -41t10.5 -36t26 -29t45 -10h31z" />
    <glyph glyph-name="aacute.alt1" horiz-adv-x="540" 
d="M414 708l-119 -154h-87l97 154h109zM218 71q42 0 90 21t71 58v34q-69 24 -139 24q-114 0 -114 -73q0 -28 23 -46t69 -18zM119 335l-56 54q62 88 194 88q101 0 157 -50t56 -146v-60v-221h-90v60q-25 -34 -70.5 -52t-93.5 -18q-81 0 -128.5 38.5t-47.5 106.5q0 66 48 106.5
t152 40.5q59 0 140 -25v24q0 52 -34 83t-96 31q-35 0 -71 -16t-60 -44z" />
    <glyph glyph-name="agrave.alt1" horiz-adv-x="540" 
d="M230 554l-119 154h109l97 -154h-87zM218 71q42 0 90 21t71 58v34q-69 24 -139 24q-114 0 -114 -73q0 -28 23 -46t69 -18zM119 335l-56 54q62 88 194 88q101 0 157 -50t56 -146v-60v-221h-90v60q-25 -34 -70.5 -52t-93.5 -18q-81 0 -128.5 38.5t-47.5 106.5q0 66 48 106.5
t152 40.5q59 0 140 -25v24q0 52 -34 83t-96 31q-35 0 -71 -16t-60 -44z" />
    <glyph glyph-name="acircumflex.alt1" horiz-adv-x="540" 
d="M329 554l-75 87l-74 -87h-82l110 154h93l110 -154h-82zM218 71q42 0 90 21t71 58v34q-69 24 -139 24q-114 0 -114 -73q0 -28 23 -46t69 -18zM119 335l-56 54q62 88 194 88q101 0 157 -50t56 -146v-60v-221h-90v60q-25 -34 -70.5 -52t-93.5 -18q-81 0 -128.5 38.5
t-47.5 106.5q0 66 48 106.5t152 40.5q59 0 140 -25v24q0 52 -34 83t-96 31q-35 0 -71 -16t-60 -44z" />
    <glyph glyph-name="adieresis.alt1" horiz-adv-x="540" 
d="M121 630q0 26 17.5 42.5t44.5 16.5q25 0 43 -16.5t18 -42.5t-18 -42.5t-43 -16.5q-27 0 -44.5 16.5t-17.5 42.5zM290 630q0 26 17.5 42.5t44.5 16.5t44.5 -16.5t17.5 -42.5t-17.5 -42.5t-44.5 -16.5t-44.5 16.5t-17.5 42.5zM218 71q42 0 90 21t71 58v34q-69 24 -139 24
q-114 0 -114 -73q0 -28 23 -46t69 -18zM119 335l-56 54q62 88 194 88q101 0 157 -50t56 -146v-60v-221h-90v60q-25 -34 -70.5 -52t-93.5 -18q-81 0 -128.5 38.5t-47.5 106.5q0 66 48 106.5t152 40.5q59 0 140 -25v24q0 52 -34 83t-96 31q-35 0 -71 -16t-60 -44z" />
    <glyph glyph-name="atilde.alt1" horiz-adv-x="540" 
d="M209 610q-10 0 -18 -11t-9 -33h-61q3 61 28.5 89t59.5 28q25 0 58 -24q21 -17 31 -17t18.5 9.5t9.5 31.5h61q-3 -60 -29 -87t-60 -27q-23 0 -57 25q-24 16 -32 16zM218 71q42 0 90 21t71 58v34q-69 24 -139 24q-114 0 -114 -73q0 -28 23 -46t69 -18zM119 335l-56 54
q62 88 194 88q101 0 157 -50t56 -146v-60v-221h-90v60q-25 -34 -70.5 -52t-93.5 -18q-81 0 -128.5 38.5t-47.5 106.5q0 66 48 106.5t152 40.5q59 0 140 -25v24q0 52 -34 83t-96 31q-35 0 -71 -16t-60 -44z" />
    <glyph glyph-name="aring.alt1" horiz-adv-x="540" 
d="M154 645q0 45 30 75.5t74 30.5q45 0 76 -30.5t31 -75.5q0 -44 -31 -74t-76 -30q-44 0 -74 30t-30 74zM207 645q0 -21 15 -36t36 -15q23 0 38.5 15t15.5 36q0 23 -15.5 38t-38.5 15q-21 0 -36 -15t-15 -38zM218 71q42 0 90 21t71 58v34q-69 24 -139 24q-114 0 -114 -73
q0 -28 23 -46t69 -18zM119 335l-56 54q62 88 194 88q101 0 157 -50t56 -146v-60v-221h-90v60q-25 -34 -70.5 -52t-93.5 -18q-81 0 -128.5 38.5t-47.5 106.5q0 66 48 106.5t152 40.5q59 0 140 -25v24q0 52 -34 83t-96 31q-35 0 -71 -16t-60 -44z" />
    <glyph glyph-name="amacron.alt1" horiz-adv-x="540" 
d="M137 660h252v-80h-252v80zM218 71q42 0 90 21t71 58v34q-69 24 -139 24q-114 0 -114 -73q0 -28 23 -46t69 -18zM119 335l-56 54q62 88 194 88q101 0 157 -50t56 -146v-60v-221h-90v60q-25 -34 -70.5 -52t-93.5 -18q-81 0 -128.5 38.5t-47.5 106.5q0 66 48 106.5t152 40.5
q59 0 140 -25v24q0 52 -34 83t-96 31q-35 0 -71 -16t-60 -44z" />
    <glyph glyph-name="abreve.alt1" horiz-adv-x="540" 
d="M138 683h74q0 -27 15 -43t41 -16q25 0 40 18t15 41h76q0 -60 -35.5 -94t-95.5 -34q-65 0 -97.5 36.5t-32.5 91.5zM218 71q42 0 90 21t71 58v34q-69 24 -139 24q-114 0 -114 -73q0 -28 23 -46t69 -18zM119 335l-56 54q62 88 194 88q101 0 157 -50t56 -146v-60v-221h-90v60
q-25 -34 -70.5 -52t-93.5 -18q-81 0 -128.5 38.5t-47.5 106.5q0 66 48 106.5t152 40.5q59 0 140 -25v24q0 52 -34 83t-96 31q-35 0 -71 -16t-60 -44z" />
    <glyph glyph-name="aogonek.alt1" horiz-adv-x="540" 
d="M119 335l-56 54q62 88 194 88q101 0 157 -50t56 -146v-281h-35l-31 -87q-6 -16 -0.5 -31t20.5 -22q15 -5 29 1.5t21 21.5q3 6 3 14v8l64 4q0 -28 -10 -49q-13 -30 -37 -47t-53 -17q-20 0 -39 8q-30 13 -46.5 37.5t-16.5 54.5q0 25 8 42l33 62v60q-25 -34 -70.5 -52
t-93.5 -18q-81 0 -128.5 38.5t-47.5 106.5q0 66 48 106.5t152 40.5q59 0 140 -25v24q0 52 -34 83t-96 31q-35 0 -71 -16t-60 -44zM218 71q42 0 90 21t71 58v34q-69 24 -139 24q-114 0 -114 -73q0 -28 23 -46t69 -18z" />
    <glyph glyph-name="yacute.alt1" horiz-adv-x="508" 
d="M404 708l-119 -154h-87l97 154h109zM179 -48l26 62l-187 453h97l139 -336l140 336h97l-229 -550q-37 -83 -77 -116.5t-112 -33.5q-30 0 -55 7v80q19 -3 53 -3q42 0 62.5 22t45.5 79z" />
    <glyph glyph-name="ydieresis.alt1" horiz-adv-x="508" 
d="M112 630q0 26 17.5 42.5t44.5 16.5q25 0 43 -16.5t18 -42.5t-18 -42.5t-43 -16.5q-27 0 -44.5 16.5t-17.5 42.5zM281 630q0 26 17.5 42.5t44.5 16.5t44.5 -16.5t17.5 -42.5t-17.5 -42.5t-44.5 -16.5t-44.5 16.5t-17.5 42.5zM179 -48l26 62l-187 453h97l139 -336l140 336
h97l-229 -550q-37 -83 -77 -116.5t-112 -33.5q-30 0 -55 7v80q19 -3 53 -3q42 0 62.5 22t45.5 79z" />
    <glyph glyph-name="ae.alt1" horiz-adv-x="890" 
d="M470 38v-38h-90v60q-25 -34 -70.5 -52t-93.5 -18q-81 0 -128.5 38.5t-47.5 106.5q0 66 48 106.5t152 40.5q59 0 140 -25v24q0 52 -34 83t-96 31q-35 0 -71 -16t-60 -44l-56 54q62 88 194 88q127 0 180 -77q69 77 181 77q101 0 166.5 -66.5t65.5 -175.5q0 -25 -1 -36h-379
q8 -59 49 -93t102 -34q43 0 78.5 18.5t55.5 53.5q12 -6 39 -15.5t39 -14.5q-29 -60 -86.5 -92t-128.5 -32q-86 0 -148 48zM470 270h290q-8 59 -46 92t-96 33q-59 0 -99.5 -33.5t-48.5 -91.5zM218 71q42 0 90 21t71 58v34q-69 24 -139 24q-114 0 -114 -73q0 -28 23 -46
t69 -18z" />
    <glyph glyph-name="aeacute.alt1" horiz-adv-x="890" 
d="M612 708l-119 -154h-87l97 154h109zM470 38v-38h-90v60q-25 -34 -70.5 -52t-93.5 -18q-81 0 -128.5 38.5t-47.5 106.5q0 66 48 106.5t152 40.5q59 0 140 -25v24q0 52 -34 83t-96 31q-35 0 -71 -16t-60 -44l-56 54q62 88 194 88q127 0 180 -77q69 77 181 77
q101 0 166.5 -66.5t65.5 -175.5q0 -25 -1 -36h-379q8 -59 49 -93t102 -34q43 0 78.5 18.5t55.5 53.5q12 -6 39 -15.5t39 -14.5q-29 -60 -86.5 -92t-128.5 -32q-86 0 -148 48zM470 270h290q-8 59 -46 92t-96 33q-59 0 -99.5 -33.5t-48.5 -91.5zM218 71q42 0 90 21t71 58v34
q-69 24 -139 24q-114 0 -114 -73q0 -28 23 -46t69 -18z" />
    <glyph glyph-name="ycircumflex.alt1" horiz-adv-x="508" 
d="M327 554l-75 87l-74 -87h-82l110 154h93l110 -154h-82zM179 -48l26 62l-187 453h97l139 -336l140 336h97l-229 -550q-37 -83 -77 -116.5t-112 -33.5q-30 0 -55 7v80q19 -3 53 -3q42 0 62.5 22t45.5 79z" />
    <glyph glyph-name="ldot.alt1" horiz-adv-x="339" 
d="M217 261q0 27 19 45t46 18t46.5 -18t19.5 -45t-19.5 -44.5t-46.5 -17.5t-46 17.5t-19 44.5zM277 85v-85h-39q-168 0 -168 200v521h92v-520q0 -24 2.5 -41t10.5 -36t26 -29t45 -10h31z" />
    <glyph glyph-name="t.alt1" horiz-adv-x="351" 
d="M315 85v-85h-35q-168 0 -168 200v190h-84v77h84v125l92 28v-153h98v-77h-98v-189q0 -24 2.5 -41t10.5 -36t26 -29t45 -10h27z" />
    <glyph glyph-name="tcaron.alt1" horiz-adv-x="351" 
d="M300 528l-58 19q30 41 41 77.5t5 96.5h90q0 -132 -78 -193zM315 85v-85h-35q-168 0 -168 200v190h-84v77h84v125l92 28v-153h98v-77h-98v-189q0 -24 2.5 -41t10.5 -36t26 -29t45 -10h27z" />
    <glyph glyph-name="tbar.alt1" horiz-adv-x="353" 
d="M317 85v-85h-35q-168 0 -168 200v26h-68v61h68v103h-84v77h84v125l92 28v-153h98v-77h-98v-103h75v-61h-75v-25q0 -24 2.5 -41t10.5 -36t26 -29t45 -10h27z" />
    <glyph glyph-name="tcommaaccent.alt1" horiz-adv-x="351" 
d="M193 -250l-58 19q30 41 41 77.5t5 96.5h90q0 -132 -78 -193zM315 85v-85h-35q-168 0 -168 200v190h-84v77h84v125l92 28v-153h98v-77h-98v-189q0 -24 2.5 -41t10.5 -36t26 -29t45 -10h27z" />
    <glyph glyph-name="T.sc.alt1" horiz-adv-x="482" 
d="M23 584h436v-79h-176v-505h-85v505h-175v79z" />
    <glyph glyph-name="Tcaron.sc.alt1" horiz-adv-x="482" 
d="M241 715l61 71h76l-98 -134h-80l-97 134h76zM23 584h436v-79h-176v-505h-85v505h-175v79z" />
    <glyph glyph-name="Tbar.sc.alt1" horiz-adv-x="483" 
d="M283 350h112v-57h-112v-293h-84v293h-110v57h110v151h-177v83h439v-83h-178v-151z" />
    <glyph glyph-name="Tcommaaccent.sc.alt1" horiz-adv-x="482" 
d="M23 584h436v-79h-176v-505h-85v505h-175v79zM210 -210l-54 17q43 60 43 116q0 12 -2 36h81q0 -111 -68 -169z" />
    <glyph glyph-name="aringacute.alt1" horiz-adv-x="540" 
d="M417 861l-102 -132q54 -31 54 -92q0 -44 -31 -74t-76 -30q-44 0 -74 30t-30 74q0 36 20 63.5t52 37.5l78 123h109zM211 637q0 -21 15 -36t36 -15q23 0 38.5 15t15.5 36q0 23 -15.5 38t-38.5 15q-21 0 -36 -15t-15 -38zM218 71q42 0 90 21t71 58v34q-61 21 -139 21
q-114 0 -114 -70q0 -28 23 -46t69 -18zM119 335l-56 54q62 88 194 88q101 0 157 -50t56 -146v-60v-221h-90v60q-25 -34 -70.5 -52t-93.5 -18q-81 0 -128.5 38.5t-47.5 106.5q0 66 48 106.5t152 40.5q59 0 140 -25v24q0 52 -34 83t-96 31q-35 0 -71 -16t-60 -44z" />
    </font>
</defs>
</svg>
