<svg width="28" height="24" viewBox="0 0 28 24" fill="none" xmlns="http://www.w3.org/2000/svg">
<path d="M14 0L0.815674 5.55218L5.30665 7.34984V8.7867C4.21999 10.96 3.13333 15.524 3.13333 20.74H7.67524C8.97331 22.3347 11.0244 24 14 24C16.9755 24 19.0266 22.3347 20.3247 20.74H24.8666C24.8666 15.524 23.7799 10.96 22.6933 8.7867V7.34984L24.8666 6.47966V12.0467H27.0399V5.60948L27.1843 5.55218L14 0ZM9.65331 10.96H18.3466C19.542 10.96 20.52 11.938 20.52 13.1334V14.22C20.52 15.7378 20.1141 16.974 19.5967 17.9618C18.8062 19.333 16.9683 21.8267 14 21.8267C11.0316 21.8267 9.19377 19.333 8.40322 17.9618C7.88586 16.974 7.47998 15.7378 7.47998 14.22V13.1334C7.47998 11.938 8.44711 10.96 9.65331 10.96Z" fill="white"/>
</svg>
