<svg width="15" height="15" viewBox="0 0 15 15" fill="none" xmlns="http://www.w3.org/2000/svg">
<path opacity="0.6" d="M7.5 0C3.3645 0 0 3.3645 0 7.5C0 11.6355 3.3645 15 7.5 15C11.6355 15 15 11.6355 15 7.5C15 3.3645 11.6355 0 7.5 0ZM3.75 5.25L6.75 6.75C6.75 6.75 6.4455 7.5 5.25 7.5C4.42125 7.5 3.75 6.82875 3.75 6V5.25ZM9.492 11.1803C8.69625 11.3558 8.10825 11.175 7.449 10.9005C6.77775 10.6267 6.01125 10.3245 5.4015 10.3245C4.79175 10.3245 3.6915 11.0505 3.75 10.5C4.03125 9.258 5.166 9.0585 5.38725 9.01875C6.32625 8.913 7.19625 9.17625 7.899 9.44475C9.86025 10.197 11.4255 8.89425 11.25 9.75C10.8173 10.3523 10.2863 11.0033 9.492 11.1803ZM11.25 6C11.25 6.82875 10.5787 7.5 9.75 7.5C8.6715 7.5 8.25 6.75 8.25 6.75L11.25 5.25V6Z" fill="#00AEEF"/>
</svg>
