<svg width="15" height="15" viewBox="0 0 15 15" fill="none" xmlns="http://www.w3.org/2000/svg">
<path d="M7.5 0.673697L0 3.8321L2.55473 4.85472V5.67209C1.93657 6.9084 1.31842 9.50467 1.31842 12.4718H3.90212C4.64054 13.379 5.80735 14.3263 7.5 14.3263C9.19265 14.3263 10.3595 13.379 11.0979 12.4718H13.6816C13.6816 9.50467 13.0634 6.9084 12.4453 5.67209V4.85472L13.6816 4.35971V7.52656H14.9179V3.8647L15 3.8321L7.5 0.673697ZM5.02737 6.9084H9.97263C10.6526 6.9084 11.209 7.46475 11.209 8.14472V8.76288C11.209 9.62626 10.9781 10.3295 10.6838 10.8914C10.234 11.6714 9.18856 13.09 7.5 13.09C5.81144 13.09 4.76595 11.6714 4.31624 10.8914C4.02193 10.3295 3.79105 9.62626 3.79105 8.76288V8.14472C3.79105 7.46475 4.34121 6.9084 5.02737 6.9084Z" fill="#00AEEF"/>
</svg>
