<svg width="20" height="20" viewBox="0 0 20 20" fill="none" xmlns="http://www.w3.org/2000/svg">
<rect width="20" height="20" rx="5" fill="#00AEEF"/>
<path d="M5 5V14C5 14.5508 5.44922 15 6 15H12L15 12V5L14 6L13 5L12 6L11 5L10 6L9 5L8 6L7 5L6 6L5 5ZM7 6.25C7 6.25 7.5 7 8 7C8.48438 7 9 6.25 9 6.25C9 6.25 9.48438 7 10 7C10.4844 7 11 6.25 11 6.25C11 6.25 11.5156 7 12 7C12.4688 7 13 6.25 13 6.25C13 6.25 13.5156 7 14 7V12H10.5V12.5H12V13H10.5V13.5H12V14H6V7C6.46875 7 7 6.25 7 6.25ZM6.5 7.5V8.5H13.5V7.5H6.5ZM6.5 9V12.5H10V9H6.5ZM10.5 9V9.5H13.5V9H10.5ZM7.5 9.5V10L8 9.5H9L9.5 10H8.5V11L9 10.5H9.5V11.5L9 12H7.5L7 11.5V10L7.5 9.5ZM8.5 11L8 11.5H9V11H8.5ZM8 11.5V10H7.5V11.5H8ZM10.5 10V10.5H13.5V10H10.5ZM10.5 11V11.5H13.5V11H10.5ZM6.5 13V13.5H10V13H6.5Z" fill="white"/>
</svg>
