<svg width="15" height="15" viewBox="0 0 15 15" fill="none" xmlns="http://www.w3.org/2000/svg">
<path d="M0 0V13.5C0 14.3262 0.673828 15 1.5 15H10.5L15 10.5V0L13.5 1.5L12 0L10.5 1.5L9 0L7.5 1.5L6 0L4.5 1.5L3 0L1.5 1.5L0 0ZM3 1.875C3 1.875 3.75 3 4.5 3C5.22656 3 6 1.875 6 1.875C6 1.875 6.72656 3 7.5 3C8.22656 3 9 1.875 9 1.875C9 1.875 9.77344 3 10.5 3C11.2031 3 12 1.875 12 1.875C12 1.875 12.7734 3 13.5 3V10.5H8.25V11.25H10.5V12H8.25V12.75H10.5V13.5H1.5V3C2.20312 3 3 1.875 3 1.875ZM2.25 3.75V5.25H12.75V3.75H2.25ZM2.25 6V11.25H7.5V6H2.25ZM8.25 6V6.75H12.75V6H8.25ZM3.75 6.75V7.5L4.5 6.75H6L6.75 7.5H5.25V9L6 8.25H6.75V9.75L6 10.5H3.75L3 9.75V7.5L3.75 6.75ZM5.25 9L4.5 9.75H6V9H5.25ZM4.5 9.75V7.5H3.75V9.75H4.5ZM8.25 7.5V8.25H12.75V7.5H8.25ZM8.25 9V9.75H12.75V9H8.25ZM2.25 12V12.75H7.5V12H2.25Z" fill="#00AEEF"/>
</svg>
