<svg width="24" height="24" viewBox="0 0 24 24" fill="none" xmlns="http://www.w3.org/2000/svg">
<path d="M0 0V21.6C0 22.9219 1.07813 24 2.4 24H16.8L24 16.8V0L21.6 2.4L19.2 0L16.8 2.4L14.4 0L12 2.4L9.6 0L7.2 2.4L4.8 0L2.4 2.4L0 0ZM4.8 3C4.8 3 6 4.8 7.2 4.8C8.3625 4.8 9.6 3 9.6 3C9.6 3 10.7625 4.8 12 4.8C13.1625 4.8 14.4 3 14.4 3C14.4 3 15.6375 4.8 16.8 4.8C17.925 4.8 19.2 3 19.2 3C19.2 3 20.4375 4.8 21.6 4.8V16.8H13.2V18H16.8V19.2H13.2V20.4H16.8V21.6H2.4V4.8C3.525 4.8 4.8 3 4.8 3ZM3.6 6V8.4H20.4V6H3.6ZM3.6 9.6V18H12V9.6H3.6ZM13.2 9.6V10.8H20.4V9.6H13.2ZM6 10.8V12L7.2 10.8H9.6L10.8 12H8.4V14.4L9.6 13.2H10.8V15.6L9.6 16.8H6L4.8 15.6V12L6 10.8ZM8.4 14.4L7.2 15.6H9.6V14.4H8.4ZM7.2 15.6V12H6V15.6H7.2ZM13.2 12V13.2H20.4V12H13.2ZM13.2 14.4V15.6H20.4V14.4H13.2ZM3.6 19.2V20.4H12V19.2H3.6Z" fill="white"/>
</svg>
