<svg width="29" height="24" viewBox="0 0 29 24" fill="none" xmlns="http://www.w3.org/2000/svg">
<path d="M6.91985 0C2.94224 2.51868 0.294189 6.94416 0.294189 12C0.294189 17.0558 2.94224 21.4813 6.91985 24L8.43754 21.6C5.25545 19.5856 3.13535 16.0444 3.13535 12C3.13535 7.95561 5.25545 4.41438 8.43754 2.4L6.91985 0ZM22.0801 0L20.5624 2.4C23.7445 4.41438 25.8646 7.95561 25.8646 12C25.8646 16.0444 23.7445 19.5856 20.5624 21.6L22.0801 24C26.0577 21.4813 28.7057 17.0558 28.7057 12C28.7057 6.94416 26.0577 2.51868 22.0801 0ZM9.95246 4.8C7.56588 6.31007 5.9765 8.96707 5.9765 12C5.9765 15.0329 7.56588 17.6885 9.95246 19.2L11.4729 16.7945C9.88187 15.7858 8.81766 14.0229 8.81766 12C8.81766 9.9771 9.88187 8.21551 11.4729 7.20832L9.95246 4.8ZM19.0475 4.8L17.527 7.20555C19.1181 8.21416 20.1823 9.9771 20.1823 12C20.1823 14.0229 19.1181 15.7845 17.527 16.7917L19.0475 19.2C21.4341 17.6899 23.0234 15.0329 23.0234 12C23.0234 8.96707 21.4341 6.31149 19.0475 4.8ZM14.5 9.15884C13.7464 9.15884 13.0238 9.45818 12.491 9.991C11.9581 10.5238 11.6588 11.2465 11.6588 12C11.6588 12.7535 11.9581 13.4762 12.491 14.009C13.0238 14.5418 13.7464 14.8412 14.5 14.8412C15.2535 14.8412 15.9761 14.5418 16.509 14.009C17.0418 13.4762 17.3411 12.7535 17.3411 12C17.3411 11.2465 17.0418 10.5238 16.509 9.991C15.9761 9.45818 15.2535 9.15884 14.5 9.15884Z" fill="white"/>
</svg>
