<svg width="15" height="13" viewBox="0 0 15 13" fill="none" xmlns="http://www.w3.org/2000/svg">
<path d="M3.49805 0.164551C1.39805 1.4943 0 3.83075 0 6.5C0 9.16925 1.39805 11.5057 3.49805 12.8354L4.29932 11.5684C2.61932 10.5049 1.5 8.63525 1.5 6.5C1.5 4.36475 2.61932 2.49514 4.29932 1.43164L3.49805 0.164551ZM11.502 0.164551L10.7007 1.43164C12.3807 2.49514 13.5 4.36475 13.5 6.5C13.5 8.63525 12.3807 10.5049 10.7007 11.5684L11.502 12.8354C13.602 11.5057 15 9.16925 15 6.5C15 3.83075 13.602 1.4943 11.502 0.164551ZM5.09912 2.69873C3.83912 3.49598 3 4.89875 3 6.5C3 8.10125 3.83912 9.50327 5.09912 10.3013L5.90186 9.03125C5.06186 8.49875 4.5 7.568 4.5 6.5C4.5 5.432 5.06186 4.50197 5.90186 3.97021L5.09912 2.69873ZM9.90088 2.69873L9.09814 3.96875C9.93814 4.50125 10.5 5.432 10.5 6.5C10.5 7.568 9.93814 8.49804 9.09814 9.02979L9.90088 10.3013C11.1609 9.50402 12 8.10125 12 6.5C12 4.89875 11.1609 3.49673 9.90088 2.69873ZM7.5 5C7.10218 5 6.72064 5.15804 6.43934 5.43934C6.15804 5.72064 6 6.10218 6 6.5C6 6.89782 6.15804 7.27936 6.43934 7.56066C6.72064 7.84196 7.10218 8 7.5 8C7.89782 8 8.27936 7.84196 8.56066 7.56066C8.84196 7.27936 9 6.89782 9 6.5C9 6.10218 8.84196 5.72064 8.56066 5.43934C8.27936 5.15804 7.89782 5 7.5 5Z" fill="#00AEEF"/>
</svg>
